<svg width="308" height="219" viewBox="0 0 308 219" fill="none" xmlns="http://www.w3.org/2000/svg">
<path d="M129.89 217.462C129.378 211.822 132.192 206.054 136.86 202.913C141.529 199.773 147.988 199.452 152.977 202.08C154.192 198.811 155.407 195.543 157.581 192.787C159.756 190.031 162.953 187.98 166.471 188.108V217.526H129.89V217.462Z" fill="#4B8DF0"/>
<path d="M33.5756 103.7L14.9012 141.514L20.4651 141.706L4.6686 171.701H12.9826L0 198.427H72.5233L56.5349 171.701L64.2093 171.38L48.9244 141.386L54.5523 141.065L33.5756 103.7Z" fill="#D9E8FF"/>
<path d="M36.7733 147.538C36.8373 147.538 36.7094 163.561 36.3896 183.301C36.0698 203.041 35.814 219.064 35.6861 219.064C35.6221 219.064 35.75 203.041 36.0698 183.301C36.3896 163.561 36.6454 147.538 36.7733 147.538Z" fill="#4B8DF0"/>
<path d="M45.6628 156.319C45.7267 156.319 45.2151 157.024 44.4477 158.049C43.6802 159.075 42.529 160.549 41.25 162.087C40.0349 163.625 38.8837 164.971 37.9884 166.061C37.157 167.086 36.6453 167.663 36.5814 167.663C36.5174 167.663 37.029 166.958 37.7965 165.933C38.5639 164.907 39.7151 163.433 40.9942 161.895C42.2093 160.421 43.3604 159.011 44.2558 157.921C45.0872 156.96 45.5988 156.319 45.6628 156.319Z" fill="#4B8DF0"/>
<path d="M36.5814 167.663C36.5175 167.727 34.6628 166.381 32.4884 164.651C30.314 162.92 28.5233 161.446 28.5872 161.382C28.6512 161.318 30.5058 162.664 32.6803 164.394C34.9186 166.125 36.6454 167.599 36.5814 167.663Z" fill="#4B8DF0"/>
<path d="M36.0698 186.185C36.0058 186.249 35.4942 185.801 34.7268 185.096C33.8954 184.391 32.8082 183.429 31.5291 182.404C30.25 181.378 29.0989 180.481 28.2675 179.776C27.4361 179.135 26.9244 178.687 26.9244 178.687C26.9244 178.623 27.5 179.007 28.3954 179.584C29.2907 180.225 30.5058 181.122 31.7849 182.148C33.064 183.173 34.1512 184.199 34.9826 184.904C35.6861 185.673 36.1337 186.185 36.0698 186.185Z" fill="#4B8DF0"/>
<path d="M46.4302 174.713C46.4302 174.713 46.3023 174.905 46.1105 175.226C45.8546 175.546 45.5349 175.995 45.0872 176.508C44.1919 177.597 42.9128 179.007 41.3779 180.545C39.907 182.084 38.5639 183.494 37.6046 184.519C36.6453 185.544 36.0698 186.185 36.0698 186.185C36.0698 186.185 36.1977 185.993 36.3895 185.673C36.6453 185.352 36.9651 184.904 37.4128 184.391C38.3081 183.301 39.5872 181.891 41.1221 180.353C42.593 178.815 43.936 177.405 44.8953 176.379C45.8546 175.354 46.3663 174.713 46.4302 174.713Z" fill="#4B8DF0"/>
<path d="M185.721 146.705H261.506L275.704 126.58L290.541 147.282L308 146.961L289.198 121.645L204.651 121.966L185.721 146.705Z" fill="#BDD6FC"/>
<path d="M223.646 146.961V217.59H299.302V146.961H290.669L275.704 126.58L261.506 146.705L223.646 146.961Z" fill="#8CB7F9"/>
<path d="M252.041 187.018H234.326V217.654H252.041V187.018Z" fill="#BDD6FC"/>
<path d="M290.541 186.121H262.657V203.426H290.541V186.121Z" fill="#BDD6FC"/>
<path d="M271.035 186.121H270.395V203.618H271.035V186.121Z" fill="#455A64"/>
<path d="M282.611 186.121H281.971V203.618H282.611V186.121Z" fill="#455A64"/>
<path d="M282.291 195.094H270.715V195.735H282.291V195.094Z" fill="#455A64"/>
<path d="M290.541 151.512H262.657V168.816H290.541V151.512Z" fill="#BDD6FC"/>
<path d="M271.035 151.512H270.395V169.009H271.035V151.512Z" fill="#455A64"/>
<path d="M282.611 151.512H281.971V169.009H282.611V151.512Z" fill="#455A64"/>
<path d="M282.291 160.421H270.715V161.062H282.291V160.421Z" fill="#455A64"/>
<path d="M250.186 151.64H232.599V168.304H250.186V151.64Z" fill="#BDD6FC"/>
<path d="M223.645 146.961H192.948V217.59H223.645V146.961Z" fill="#BDD6FC"/>
<path d="M241.744 151.64H241.105V168.304H241.744V151.64Z" fill="#455A64"/>
<path d="M250.186 160.1H232.599V160.741H250.186V160.1Z" fill="#455A64"/>
<path d="M275.64 143.757C277.688 143.757 279.349 142.093 279.349 140.04C279.349 137.987 277.688 136.322 275.64 136.322C273.591 136.322 271.93 137.987 271.93 140.04C271.93 142.093 273.591 143.757 275.64 143.757Z" fill="#BDD6FC"/>
<path d="M249.035 135.425L253.768 129.657V115.621H243.919V135.553L249.035 135.425Z" fill="#8CB7F9"/>
<path d="M249.035 135.425V115.621H253.768V129.657L249.035 135.425Z" fill="#455A64"/>
<path d="M254.471 113.57H242.832V115.621H254.471V113.57Z" fill="#455A64"/>
<path d="M223.645 177.918H166.471V217.654H223.645V177.918Z" fill="#8CB7F9"/>
<path d="M202.221 177.918H166.471V217.654H202.221V177.918Z" fill="#BDD6FC"/>
<path d="M196.977 190.672H173.57V217.526H196.977V190.672Z" fill="#8CB7F9"/>
<path d="M220.512 190.608H205.419V194.453H220.512V190.608Z" fill="#455A64"/>
<path d="M185.721 146.705V148.756H261.506V146.705H185.721Z" fill="#455A64"/>
<path d="M261.506 148.756L275.64 128.824L275.704 126.58L261.506 146.705V148.756Z" fill="#455A64"/>
<path d="M307.616 146.961H290.669V148.307H307.616V146.961Z" fill="#455A64"/>
<path d="M246.029 182.276H239.762V184.647H246.029V182.276Z" fill="#BDD6FC"/>
<path d="M191.349 31.7252C177.151 12.1774 156.558 3.07642 135.07 3.07642C135.07 3.07642 82.4361 3.07642 66.8314 50.3117C61.0756 67.7445 62.3547 86.5874 69.3256 103.572C71.7559 109.404 74.9535 115.813 79.1745 121.902C92.7326 141.578 135.07 195.286 135.07 195.286H144.279C156.111 178.879 185.785 124.273 194.738 106.776C205.866 84.7928 207.593 54.1572 191.349 31.7252ZM143.831 119.082C119.017 119.082 98.8721 98.8929 98.8721 74.0255C98.8721 49.1581 119.017 28.9693 143.831 28.9693C168.645 28.9693 188.791 49.1581 188.791 74.0255C188.791 98.8929 168.645 119.082 143.831 119.082Z" fill="#4B8DF0"/>
<path opacity="0.4" d="M191.349 31.7252C177.151 12.1774 156.558 3.07642 135.07 3.07642C135.07 3.07642 82.4361 3.07642 66.8314 50.3117C61.0756 67.7445 62.3547 86.5874 69.3256 103.572C71.7559 109.404 74.9535 115.813 79.1745 121.902C92.7326 141.578 135.07 195.286 135.07 195.286H144.279C156.111 178.879 185.785 124.273 194.738 106.776C205.866 84.7928 207.593 54.1572 191.349 31.7252ZM143.831 119.082C119.017 119.082 98.8721 98.8929 98.8721 74.0255C98.8721 49.1581 119.017 28.9693 143.831 28.9693C168.645 28.9693 188.791 49.1581 188.791 74.0255C188.791 98.8929 168.645 119.082 143.831 119.082Z" fill="black"/>
<path d="M200.558 32.1097C186.425 12.5619 165.768 3.46094 144.279 3.46094C144.279 3.46094 91.6454 3.46094 76.0408 50.6962C70.285 68.1291 71.564 86.9719 78.535 103.956C80.9652 109.788 84.1629 116.198 88.3838 122.286C101.942 141.962 144.279 195.671 144.279 195.671C144.279 195.671 193.14 128.311 203.884 107.161C215.14 85.1133 216.866 54.4776 200.558 32.1097ZM143.895 119.402C118.954 119.466 98.8722 99.4697 98.9361 74.3459C99.0001 49.4785 119.081 29.2897 143.895 29.2897C168.709 29.2897 188.855 49.4785 188.855 74.3459C188.855 99.3415 168.709 119.402 143.895 119.402Z" fill="#4B8DF0"/>
<path d="M143.831 28.9692C124.262 28.9692 107.634 41.467 101.43 58.964C107.506 45.5689 120.936 36.2756 136.541 36.2756C157.837 36.2756 175.041 53.5803 175.041 74.8586C175.041 96.201 157.773 113.442 136.541 113.442C124.198 113.442 113.198 107.609 106.163 98.5724C114.157 110.878 128.035 119.082 143.831 119.082C168.645 119.082 188.791 98.8929 188.791 74.0254C188.791 49.0939 168.645 28.9692 143.831 28.9692Z" fill="#4B8DF0"/>
<path opacity="0.4" d="M143.831 28.9692C124.262 28.9692 107.634 41.467 101.43 58.964C107.506 45.5689 120.936 36.2756 136.541 36.2756C157.837 36.2756 175.041 53.5803 175.041 74.8586C175.041 96.201 157.773 113.442 136.541 113.442C124.198 113.442 113.198 107.609 106.163 98.5724C114.157 110.878 128.035 119.082 143.831 119.082C168.645 119.082 188.791 98.8929 188.791 74.0254C188.791 49.0939 168.645 28.9692 143.831 28.9692Z" fill="black"/>
<path d="M233.494 94.6629C231.704 93.4451 229.465 92.8683 227.291 93.1247C223.581 93.5733 218.273 94.0861 218.273 94.0861V94.2783L192.5 95.8806L184.634 79.7937L172.674 87.6769C172.674 87.6769 174.273 90.1765 180.988 102.61C183.674 107.545 189.174 110.365 194.738 109.532L225.116 105.11V105.046C228.25 104.853 231.64 104.597 232.151 104.148C233.11 103.315 233.942 100.175 233.942 100.175C233.942 100.175 239.378 103.379 240.401 103.443C241.424 103.507 241.616 102.674 242.256 101.713C242.64 101.072 237.076 97.0984 233.494 94.6629Z" fill="#FFBE9D"/>
<path d="M186.232 78.7682C186.232 78.7682 181.244 69.0904 176.639 59.9894C171.012 48.7734 158.541 46.5302 158.541 46.5302L140.506 44.1588C140.506 44.1588 125.477 37.3011 111.407 54.2853L99.8953 67.1676L102.325 69.3467L113.773 79.6654L116.012 81.7163L121.192 76.3968L118.762 89.92L114.541 108.763L123.686 107.673L129.889 69.6672L164.808 72.4872L162.058 96.4574C162.634 96.3933 166.855 95.5601 168.198 89.7919C168.709 87.5487 168.581 85.6259 168.198 84.2159L170.244 89.4073L186.232 78.7682Z" fill="#455A64"/>
<path d="M129.889 69.603L123.686 107.609L114.541 108.699C122.407 115.492 132.639 119.594 143.895 119.594C149.523 119.594 154.831 118.569 159.82 116.71L162.122 96.3291L164.872 72.359L129.889 69.603Z" fill="#263238"/>
<path d="M131.936 42.2361L131.169 73.064L136.988 73.9613L137.756 42.6847C137.82 42.7488 135.773 41.7874 131.936 42.2361Z" fill="#263238"/>
<path d="M156.622 73.2563L161.419 46.7866C161.674 46.4661 165.639 47.9402 166.855 49.2861L162.57 73.8972L156.622 73.2563Z" fill="#263238"/>
<path d="M137.244 69.4749C137.244 69.4749 137.308 69.6672 137.308 69.9876C137.308 70.3081 137.372 70.8208 137.308 71.4617C137.244 72.1026 137.116 72.8717 136.605 73.5126C136.349 73.8331 136.029 74.1536 135.581 74.3458C135.134 74.5381 134.622 74.6022 134.174 74.5381C133.215 74.3458 132.448 73.7049 132 72.9999C131.552 72.2949 131.424 71.5258 131.36 70.8849C131.296 70.244 131.36 69.7954 131.36 69.4108C131.424 69.0903 131.424 68.8981 131.424 68.8981C131.488 68.8981 131.424 69.6672 131.552 70.8849C131.616 71.4617 131.808 72.1667 132.192 72.8717C132.575 73.5126 133.343 74.0895 134.174 74.2817C135.07 74.474 135.837 74.0254 136.285 73.3845C136.732 72.7436 136.924 72.0385 137.052 71.4617C137.244 70.244 137.18 69.4749 137.244 69.4749Z" fill="#455A64"/>
<path d="M133.791 72.1667C133.087 71.9103 132.767 71.1413 133.023 70.4363C133.279 69.7313 134.046 69.4108 134.75 69.6672C135.453 69.9235 135.773 70.6926 135.517 71.3976C135.262 72.1026 134.494 72.4872 133.791 72.1667Z" fill="#455A64"/>
<path d="M161.099 72.3591C161.099 73.1282 160.523 73.705 159.756 73.705C159.052 73.705 158.413 73.1282 158.413 72.3591C158.413 71.6541 158.988 71.0132 159.756 71.0132C160.523 71.0132 161.099 71.6541 161.099 72.3591Z" fill="#455A64"/>
<path d="M162.889 71.4618C162.889 71.4618 162.889 72.1027 162.57 73C162.442 73.4486 162.186 74.0254 161.674 74.5382C161.227 75.0509 160.459 75.3714 159.628 75.3073C158.86 75.2432 158.157 74.8586 157.709 74.3459C157.262 73.8332 157.07 73.2563 156.942 72.7436C156.878 72.2309 156.878 71.8463 156.878 71.59C156.942 71.3336 156.942 71.1413 157.006 71.2054C157.07 71.2054 156.942 71.8463 157.134 72.7436C157.262 73.1922 157.453 73.705 157.901 74.1536C158.285 74.6023 158.924 74.9227 159.628 74.9868C160.331 75.0509 160.971 74.7945 161.419 74.3459C161.866 73.8973 162.122 73.3845 162.314 73C162.762 72.0386 162.889 71.3977 162.889 71.4618Z" fill="#455A64"/>
<path d="M133.727 84.0877C133.663 84.0877 133.663 83.8313 133.663 83.4468C133.663 83.2545 133.663 82.9981 133.727 82.7418C133.727 82.6136 133.727 82.4854 133.791 82.3572V82.1649V82.0368V81.9727C133.599 82.1009 134.046 81.7804 133.982 81.7804C135.198 81.9086 136.221 82.1009 136.157 82.1649C136.157 82.229 135.134 82.229 133.919 82.1009C133.855 82.1649 134.238 81.7804 134.11 81.9086V81.9727V82.1009V82.2931C134.11 82.4213 134.046 82.5495 134.046 82.7418C133.982 82.9981 133.982 83.2545 133.919 83.4468C133.791 83.8313 133.727 84.0877 133.727 84.0877Z" fill="#455A64"/>
<path d="M132.767 92.9323C132.703 92.9323 132.703 91.9068 132.831 90.6891C132.959 89.4714 133.151 88.51 133.215 88.51C133.279 88.51 133.279 89.5355 133.151 90.7532C133.023 91.9709 132.831 92.9323 132.767 92.9323Z" fill="#455A64"/>
<path d="M134.046 100.559C133.982 100.623 133.087 100.239 131.936 99.726C131.936 99.7901 131.744 99.4055 131.872 99.5337V99.4696V99.3415V99.1492C131.872 99.021 131.936 98.8928 131.936 98.7005C132 98.4442 132 98.1878 132.064 97.9955C132.128 97.611 132.192 97.3546 132.256 97.3546C132.32 97.3546 132.32 97.611 132.32 97.9955C132.32 98.1878 132.32 98.4442 132.256 98.7005C132.256 98.8287 132.256 98.9569 132.192 99.1492V99.3415V99.4696V99.5337C132.256 99.6619 132.064 99.3415 132.128 99.3415C133.215 99.9824 134.11 100.495 134.046 100.559Z" fill="#455A64"/>
<path d="M139.994 103.507C139.93 103.571 139.227 103.315 138.459 102.931C137.628 102.546 136.988 102.097 137.052 102.033C137.116 101.969 137.756 102.226 138.587 102.61C139.355 103.059 139.994 103.443 139.994 103.507Z" fill="#455A64"/>
<path d="M147.029 105.174C147.093 105.238 146.134 105.687 145.046 106.199C144.791 106.199 144.983 106.199 144.919 106.199H144.855L144.727 106.135L144.535 106.007C144.407 105.943 144.279 105.879 144.151 105.815C143.895 105.687 143.703 105.558 143.512 105.494C143.192 105.302 142.936 105.11 143 105.11C143 105.046 143.256 105.174 143.64 105.302C143.831 105.366 144.023 105.494 144.279 105.558C144.407 105.622 144.535 105.687 144.663 105.751L144.855 105.879L144.983 105.943H145.046C144.983 105.943 145.174 105.943 144.919 105.943C146.006 105.366 146.965 105.046 147.029 105.174Z" fill="#455A64"/>
<path d="M151.762 103.187C151.826 103.251 151.314 103.571 150.61 103.828C149.971 104.084 149.395 104.212 149.331 104.148C149.267 104.084 149.779 103.764 150.483 103.507C151.186 103.251 151.762 103.123 151.762 103.187Z" fill="#455A64"/>
<path d="M156.494 99.1492C156.558 99.1492 156.558 100.175 156.43 101.392C156.238 101.649 156.366 101.456 156.302 101.521H156.238L156.11 101.585L155.919 101.649C155.791 101.713 155.663 101.777 155.535 101.777C155.279 101.841 155.087 101.969 154.831 102.033C154.448 102.161 154.192 102.226 154.192 102.161C154.192 102.097 154.384 101.969 154.767 101.777C154.959 101.713 155.151 101.585 155.407 101.456C155.535 101.392 155.663 101.328 155.791 101.264L155.982 101.2L156.11 101.136H156.174C156.11 101.2 156.302 101.008 156.046 101.264C156.238 100.175 156.366 99.1492 156.494 99.1492Z" fill="#455A64"/>
<path d="M157.326 90.8813C157.389 90.8813 157.389 91.8427 157.262 92.9964C157.134 94.15 156.942 95.0473 156.878 95.0473C156.814 95.0473 156.814 94.0859 156.942 92.9323C157.07 91.7786 157.262 90.8813 157.326 90.8813Z" fill="#455A64"/>
<path d="M155.791 84.2159C155.791 84.1518 156.814 84.1518 158.029 84.28C158.349 84.6646 158.093 84.4082 158.157 84.4723V84.5364V84.6646V84.8568C158.157 84.985 158.093 85.1132 158.093 85.3055C158.029 85.5619 158.029 85.8182 157.965 86.0105C157.901 86.395 157.837 86.6514 157.773 86.6514C157.709 86.6514 157.709 86.395 157.709 86.0105C157.709 85.8182 157.709 85.5619 157.773 85.3055C157.773 85.1773 157.773 85.0491 157.837 84.8568V84.6646V84.5364V84.4723C157.901 84.5364 157.709 84.28 157.965 84.6646C156.75 84.5364 155.727 84.3441 155.791 84.2159Z" fill="#455A64"/>
<path d="M147.924 83.3827C147.924 83.3186 148.82 83.3186 149.907 83.4468C150.994 83.5749 151.89 83.7031 151.826 83.8313C151.826 83.8954 150.93 83.8954 149.843 83.7672C148.756 83.639 147.924 83.5109 147.924 83.3827Z" fill="#455A64"/>
<path d="M140.058 82.5495C140.058 82.4855 140.953 82.4854 142.041 82.6136C143.128 82.7418 144.023 82.87 143.959 82.9982C143.959 83.0623 143.064 83.0623 141.977 82.9341C140.953 82.8059 140.058 82.6136 140.058 82.5495Z" fill="#455A64"/>
<path d="M98.9361 71.6541C98.8721 72.4232 98.8721 73.1923 98.8721 73.9614C98.8721 77.0378 99.1919 80.1142 99.7675 82.9983V83.0624C99.8314 83.4469 99.9593 83.8315 100.023 84.1519C100.343 85.626 100.791 87.036 101.238 88.446C101.302 88.6383 101.366 88.7665 101.43 88.9588C103.093 88.5742 107.89 84.4083 113.39 79.281L102.006 69.0264C100.407 70.6927 99.4477 71.5259 98.9361 71.6541Z" fill="#FFBE9D"/>
<path d="M170.947 5.12732C171.331 9.54962 176.384 13.2669 180.796 13.1387C183.227 13.0746 185.721 11.9851 188.087 12.626C192.052 13.7796 193.587 19.2915 197.68 19.9965C200.686 20.5733 203.5 18.0738 206.57 17.9456C208.808 17.8174 210.918 18.971 212.837 20.2529C214.692 21.5347 216.482 23.0088 218.593 23.7138C220.703 24.4188 222.686 23.137 224.86 22.4961C225.372 23.842 225.756 25.5724 226.459 27.0465C227.163 28.5206 227.994 31.0843 226.779 31.6611C226.779 31.6611 223.389 33.4557 221.407 33.3275C222.942 34.9298 225.436 35.6348 227.61 34.9939C228.186 38.2625 228.57 42.108 226.331 44.5435C225.372 45.633 223.965 46.338 222.494 46.6585C215.395 48.5171 207.913 43.518 200.686 44.8639C197.744 45.4407 194.994 47.043 191.988 47.4276C189.046 47.8121 185.977 46.9148 183.61 45.0562C180.732 42.7489 178.814 38.8393 175.168 38.2625C173.57 38.0062 171.907 38.4548 170.372 38.9034C168.773 39.3521 167.174 39.8007 165.575 39.4162C163.977 39.0957 162.506 37.6857 162.57 36.0834" fill="#263238"/>
<path d="M156.814 48.1326C157.581 43.6462 158.54 38.9675 158.54 38.9675C158.54 38.9675 164.424 39.0316 166.982 31.7252C169.349 24.7393 171.075 8.01143 171.075 8.01143C163.401 3.20458 153.232 3.71731 146.134 9.29325L140.25 45.6971C139.546 49.9272 142.616 53.9008 147.157 54.5417C151.761 55.2467 156.046 52.3626 156.814 48.1326Z" fill="#FFBE9D"/>
<path d="M166.663 20.5733C166.599 21.0861 166.087 21.4706 165.575 21.4065C165.064 21.3424 164.68 20.8938 164.744 20.3811C164.808 19.8683 165.32 19.4838 165.831 19.5479C166.343 19.612 166.727 20.0606 166.663 20.5733Z" fill="#263238"/>
<path d="M168.453 19.74C168.325 19.8682 167.686 19.1632 166.663 18.9709C165.639 18.7787 164.808 19.1632 164.68 19.035C164.616 18.9709 164.808 18.7787 165.192 18.5864C165.575 18.3941 166.151 18.2659 166.79 18.3941C167.43 18.5223 167.942 18.8428 168.197 19.1632C168.453 19.4837 168.517 19.74 168.453 19.74Z" fill="#263238"/>
<path d="M156.046 18.907C155.982 19.4197 155.471 19.8042 154.959 19.7401C154.447 19.6761 154.064 19.2274 154.128 18.7147C154.192 18.202 154.703 17.8174 155.215 17.8815C155.726 17.8815 156.11 18.3942 156.046 18.907Z" fill="#263238"/>
<path d="M157.581 18.266C157.453 18.3942 156.814 17.6892 155.79 17.4969C154.767 17.3047 153.936 17.6892 153.808 17.561C153.744 17.4969 153.936 17.3047 154.32 17.1124C154.703 16.9201 155.279 16.7919 155.918 16.9201C156.558 17.0483 157.07 17.3688 157.325 17.6892C157.581 17.9456 157.645 18.202 157.581 18.266Z" fill="#263238"/>
<path d="M159.948 26.5979C159.948 26.5338 160.587 26.5338 161.674 26.5979C161.93 26.5979 162.186 26.5979 162.25 26.4056C162.314 26.2133 162.314 25.8929 162.186 25.5724C162.058 24.8674 161.93 24.1624 161.738 23.3933C161.163 20.3169 160.779 17.8174 160.907 17.8174C161.035 17.8174 161.61 20.2529 162.186 23.3292C162.314 24.0983 162.442 24.8033 162.57 25.5083C162.634 25.8288 162.698 26.2133 162.506 26.5979C162.378 26.7902 162.186 26.9183 161.994 26.9183C161.802 26.9183 161.674 26.9183 161.546 26.9183C160.587 26.7902 159.948 26.662 159.948 26.5979Z" fill="#263238"/>
<path d="M158.54 38.9675C158.54 38.9675 153.424 38.3906 148.947 34.5452C148.947 34.5452 150.482 40.1211 158.093 40.762L158.54 38.9675Z" fill="#EB996E"/>
<path d="M159.116 29.0334C158.86 28.4566 158.221 28.072 157.581 28.072C157.134 28.072 156.622 28.2002 156.302 28.5207C155.982 28.8411 155.791 29.3539 155.982 29.7384C156.174 30.187 156.75 30.3793 157.261 30.3152C157.773 30.2511 158.285 29.9948 158.732 29.7384C158.86 29.6743 158.988 29.6102 159.052 29.482C159.18 29.3538 159.18 29.1616 159.116 29.0334Z" fill="#EB996E"/>
<path d="M156.814 26.7902C157.006 26.7902 156.814 27.9438 157.581 28.9052C158.412 29.8666 159.628 29.9307 159.628 30.1229C159.628 30.187 159.308 30.3152 158.796 30.187C158.285 30.1229 157.581 29.8025 157.069 29.2257C156.558 28.6488 156.43 27.9438 156.494 27.4952C156.558 26.9825 156.75 26.7261 156.814 26.7902Z" fill="#263238"/>
<path d="M151.25 3.90962C153.232 8.33193 159.756 13.7156 164.744 15.6383C164.296 14.7411 161.482 12.1774 161.035 11.216C163.081 13.3951 165.959 16.4074 169.093 17.1765C169.477 17.2406 169.86 17.3688 170.18 17.2406C170.628 17.0483 170.82 16.5997 170.947 16.1511C171.523 14.3565 171.971 11.216 172.035 9.29329C172.099 7.43465 171.587 5.44782 170.244 3.90962C168.517 1.98689 165.767 1.08961 163.081 0.512786C160.843 0.0641464 158.477 -0.25631 156.238 0.128238C154 0.576877 151.953 1.8587 151.314 3.71735" fill="#263238"/>
<path d="M139.291 20.6374C139.291 18.6506 139.354 16.7278 139.482 15.5101C139.994 11.6005 141.209 -2.62775 154.32 1.02545L152.913 4.67866C152.913 4.67866 153.936 13.8437 147.221 18.7147C147.221 18.7147 147.221 27.8156 142.616 31.1484C142.552 31.0843 139.291 24.9315 139.291 20.6374Z" fill="#263238"/>
<path d="M147.477 18.0738C146.709 17.7533 145.878 17.6251 145.046 17.8174C144.215 17.9456 143.447 18.3942 143 19.0992C142.552 19.8042 142.424 20.7015 142.552 21.4706C142.68 22.3038 143.064 23.0729 143.575 23.7138C143.895 24.2265 144.343 24.6752 144.854 24.9315C145.366 25.1879 146.07 25.252 146.581 24.9956" fill="#FFBE9D"/>
<path d="M146.134 22.8806C146.198 22.9447 145.814 23.3292 145.11 23.0088C144.791 22.8806 144.471 22.4961 144.343 22.0474C144.215 21.5988 144.151 21.1501 144.151 20.6374C144.215 20.1247 144.407 19.6119 144.727 19.2915C145.046 18.971 145.558 18.7788 145.878 18.8428C146.645 18.971 146.773 19.5479 146.709 19.5479C146.645 19.6119 146.389 19.2915 145.878 19.2915C145.366 19.2915 144.791 19.8683 144.791 20.7015C144.727 21.5347 144.918 22.3679 145.302 22.6242C145.75 22.9447 146.134 22.8165 146.134 22.8806Z" fill="#EB996E"/>
<path d="M223.197 18.7147C223.197 18.7147 223.134 18.9069 222.814 19.2274C222.558 19.5479 222.046 19.9324 221.279 20.1247C220.511 20.317 219.488 20.317 218.465 19.9324C217.378 19.5479 216.354 18.7788 215.267 17.9456C214.18 17.1124 212.965 16.151 211.366 15.7665C210.599 15.6383 209.767 15.6383 208.936 15.8947C208.104 16.0869 207.273 16.4715 206.506 16.9201C205.674 17.3047 204.843 17.8174 203.947 18.2019C203.052 18.5865 202.093 18.907 201.07 18.971C200.046 19.0351 198.959 18.7147 198.064 18.0738C197.168 17.4969 196.465 16.6638 195.825 15.7665C194.546 14.036 193.523 12.1774 191.924 11.0237C191.157 10.3828 190.261 10.0623 189.302 9.93417C188.343 9.80598 187.447 9.87008 186.552 10.0623C184.761 10.3828 183.099 10.9596 181.436 11.1519C179.773 11.3442 178.238 11.1519 176.895 10.7674C174.209 9.93417 172.418 8.39598 171.395 7.17824C170.372 5.96051 170.052 5.12732 170.052 5.12732C170.052 5.12732 170.116 5.19141 170.116 5.2555C170.18 5.38368 170.244 5.51187 170.372 5.64005C170.564 5.96051 170.947 6.47324 171.459 7.05006C172.482 8.2037 174.273 9.6778 176.959 10.4469C178.302 10.8314 179.837 11.0237 181.436 10.7674C183.035 10.5751 184.697 9.99826 186.552 9.61371C187.447 9.42144 188.407 9.35735 189.43 9.48553C190.389 9.61371 191.413 9.99826 192.18 10.6392C193.843 11.921 194.866 13.7796 196.145 15.446C196.785 16.2792 197.488 17.1124 198.32 17.6251C199.151 18.2019 200.11 18.4583 201.134 18.4583C202.093 18.4583 203.052 18.1379 203.884 17.6892C204.779 17.3047 205.61 16.856 206.442 16.4074C207.273 16.0228 208.104 15.6383 208.936 15.3819C209.767 15.1256 210.663 15.1256 211.494 15.3178C213.157 15.7024 214.372 16.7278 215.459 17.561C216.546 18.4583 217.57 19.1633 218.593 19.612C219.616 20.0606 220.575 20.0606 221.343 19.8683C222.11 19.676 222.622 19.3556 222.878 19.0351C223.134 18.907 223.197 18.6506 223.197 18.7147Z" fill="#263238"/>
<path d="M75.9127 146L64.3372 169.458L67.7906 169.586L57.9418 188.236H63.122L55.0639 204.772H100.087L90.1744 188.236L94.9069 188.044L85.4418 169.393L88.8953 169.201L75.9127 146Z" fill="#455A64"/>
<path d="M77.8952 173.239C77.9592 173.239 77.8952 183.173 77.7673 195.415C77.5754 207.656 77.3836 217.59 77.2557 217.59C77.1917 217.59 77.2557 207.656 77.3836 195.415C77.5754 183.109 77.7673 173.239 77.8952 173.239Z" fill="#263238"/>
<path d="M83.3953 179.264C83.4592 179.264 83.2034 179.712 82.6918 180.289C82.2441 180.866 81.4767 181.635 80.6453 182.468C79.8139 183.301 79.1104 184.006 78.5348 184.583C78.0232 185.16 77.7034 185.48 77.6395 185.48C77.5755 185.48 77.8313 185.032 78.343 184.455C78.7906 183.878 79.5581 183.109 80.3895 182.276C81.2209 181.443 81.9244 180.738 82.4999 180.161C83.0116 179.584 83.3313 179.199 83.3953 179.264Z" fill="#263238"/>
<path d="M77.7673 185.673C77.7034 185.737 76.5522 184.968 75.2092 183.878C73.8661 182.789 72.7789 181.891 72.8429 181.827C72.9068 181.763 74.058 182.532 75.401 183.622C76.7441 184.711 77.8313 185.609 77.7673 185.673Z" fill="#263238"/>
<path d="M77.4476 197.209C77.3836 197.273 76.1685 196.184 74.5697 194.902C72.9708 193.62 71.6918 192.595 71.7557 192.53C71.8197 192.466 73.2266 193.364 74.8255 194.645C76.3604 195.927 77.5115 197.145 77.4476 197.209Z" fill="#263238"/>
<path d="M83.9069 190.095C83.9709 190.159 82.6918 191.89 80.8371 193.748C79.9418 194.645 79.1744 195.479 78.4709 196.184C77.8953 196.825 77.5116 197.209 77.4476 197.209C77.3837 197.145 78.6627 195.415 80.5174 193.556C81.3488 192.659 82.1802 191.825 82.8837 191.12C83.4592 190.48 83.843 190.031 83.9069 190.095Z" fill="#263238"/>
</svg>
