<svg width="360" height="293" viewBox="0 0 360 293" fill="none" xmlns="http://www.w3.org/2000/svg">
<path fill-rule="evenodd" clip-rule="evenodd" d="M360 107.91V293H0V19.2559C35.3551 6.85559 74.2142 0 115 0C216.886 0 306.75 42.782 360 107.91Z" fill="url(#paint0_linear_82_388)"/>
<path d="M240.509 69H158.562V204.486H240.509V69Z" fill="#A5C9FF"/>
<path d="M235.987 75.0085H163.007V198.527H235.987V75.0085Z" fill="#DCEAFF"/>
<path d="M238.294 95.7588H161.28V101.477H238.294V95.7588Z" fill="#A5C9FF"/>
<path d="M227.133 113.487C227.204 113.565 216.616 123.862 203.488 136.495C190.36 149.128 179.652 159.312 179.582 159.234C179.511 159.156 190.098 148.866 203.226 136.226C216.355 123.586 227.055 113.416 227.133 113.487Z" fill="#A5C9FF"/>
<path d="M212.724 113.77C212.795 113.848 206.057 120.515 197.685 128.675C189.313 136.835 182.455 143.381 182.384 143.303C182.313 143.225 189.044 136.559 197.423 128.441C205.802 120.324 212.625 113.721 212.724 113.77Z" fill="#A5C9FF"/>
<path d="M80.0836 136.056C81.9841 139.084 84.2231 141.886 86.7574 144.407Z" fill="white"/>
<path d="M35.2638 144.202L41.9376 135.964Z" fill="white"/>
<path d="M178.435 190.204L177.02 195.611L159.327 198.824V205.965C159.327 205.965 184.139 209.192 186.411 208.088C188.683 206.984 190.827 193.346 190.827 193.346L178.435 190.204Z" fill="#FFBF9D"/>
<path d="M177.381 195.866C177.331 195.95 178.372 196.51 179.334 197.522C180.297 198.534 180.806 199.56 180.905 199.517C180.707 198.66 180.25 197.884 179.596 197.295C179.01 196.616 178.241 196.12 177.381 195.866V195.866Z" fill="#FF9A6C"/>
<path d="M203.028 122.128C203.162 118.736 204.569 115.519 206.967 113.116C209.366 110.714 212.581 109.303 215.972 109.163H216.68C224.239 109.29 228.35 115.78 228.004 123.317L227.048 153.714L215.102 158.272L210.488 154.025C210.488 151.902 210.488 147.493 210.445 147.493C210.403 147.493 203.149 146.665 202.759 139.425C202.575 135.908 202.774 128.675 203.028 122.128Z" fill="#FFBF9D"/>
<path d="M210.445 147.479C213.804 147.338 217.052 146.235 219.801 144.301C219.801 144.301 217.756 149.843 210.495 149.489L210.445 147.479Z" fill="#FF9A6C"/>
<path d="M205.704 128.632C205.711 128.902 205.824 129.158 206.019 129.345C206.214 129.531 206.474 129.634 206.744 129.63C206.878 129.636 207.012 129.614 207.137 129.567C207.262 129.519 207.376 129.446 207.472 129.353C207.568 129.259 207.644 129.147 207.696 129.023C207.747 128.899 207.772 128.766 207.77 128.632C207.763 128.362 207.65 128.105 207.455 127.917C207.261 127.73 207 127.625 206.73 127.627C206.596 127.623 206.462 127.645 206.336 127.694C206.211 127.742 206.097 127.816 206.001 127.91C205.905 128.004 205.829 128.116 205.778 128.24C205.727 128.365 205.702 128.498 205.704 128.632Z" fill="#263238"/>
<path d="M204.706 125.264C204.84 125.398 205.597 124.782 206.708 124.74C207.82 124.697 208.662 125.221 208.775 125.08C208.888 124.938 208.697 124.775 208.329 124.535C207.835 124.217 207.253 124.063 206.666 124.096C206.086 124.116 205.528 124.322 205.074 124.683C204.741 124.959 204.635 125.207 204.706 125.264Z" fill="#263238"/>
<path d="M215.208 128.378C215.217 128.647 215.331 128.903 215.525 129.09C215.719 129.278 215.979 129.383 216.249 129.382C216.381 129.387 216.513 129.366 216.636 129.319C216.76 129.272 216.873 129.201 216.97 129.11C217.066 129.02 217.143 128.91 217.197 128.789C217.25 128.669 217.279 128.538 217.282 128.406C217.271 128.137 217.157 127.882 216.963 127.695C216.769 127.508 216.511 127.402 216.242 127.401C216.109 127.396 215.977 127.418 215.854 127.464C215.73 127.511 215.617 127.582 215.52 127.673C215.424 127.764 215.347 127.873 215.294 127.994C215.24 128.115 215.211 128.245 215.208 128.378V128.378Z" fill="#263238"/>
<path d="M215.626 125.094C215.76 125.221 216.525 124.612 217.636 124.57C218.747 124.528 219.589 125.051 219.702 124.91C219.816 124.768 219.618 124.605 219.25 124.365C218.758 124.046 218.178 123.892 217.593 123.926C217.013 123.946 216.455 124.152 216.001 124.513C215.668 124.768 215.555 125.016 215.626 125.094Z" fill="#263238"/>
<path d="M212.017 133.792C211.421 133.631 210.807 133.548 210.191 133.544C209.908 133.544 209.639 133.48 209.582 133.289C209.543 132.994 209.597 132.695 209.738 132.433C209.978 131.725 210.226 131.017 210.488 130.239C211.528 127.104 212.271 124.535 212.144 124.492C212.017 124.45 211.068 126.962 210.021 130.09L209.313 132.298C209.151 132.651 209.116 133.048 209.214 133.424C209.259 133.522 209.325 133.609 209.409 133.678C209.492 133.746 209.59 133.795 209.695 133.82C209.855 133.855 210.019 133.872 210.184 133.869C210.795 133.923 211.411 133.897 212.017 133.792V133.792Z" fill="#263238"/>
<path d="M215.123 121.605C215.286 121.881 216.355 121.541 217.671 121.456C218.987 121.371 220.091 121.534 220.212 121.237C220.261 121.095 220.028 120.847 219.554 120.635C218.929 120.386 218.256 120.282 217.585 120.331C216.915 120.38 216.264 120.581 215.682 120.918C215.244 121.194 215.052 121.47 215.123 121.605Z" fill="#263238"/>
<path d="M204.515 121.994C204.755 122.242 205.654 121.951 206.744 121.916C207.834 121.881 208.761 122.029 208.973 121.76C209.058 121.626 208.91 121.378 208.499 121.152C207.934 120.878 207.309 120.751 206.681 120.783C206.054 120.815 205.445 121.005 204.911 121.336C204.529 121.612 204.409 121.874 204.515 121.994Z" fill="#263238"/>
<path d="M227.636 128.689C227.756 128.632 232.555 127.012 232.59 131.973C232.625 136.934 227.636 135.957 227.636 135.816C227.636 135.674 227.636 128.689 227.636 128.689Z" fill="#FFBF9D"/>
<path d="M229.143 133.919C229.143 133.919 229.228 133.983 229.377 134.046C229.583 134.129 229.814 134.129 230.021 134.046C230.34 133.841 230.598 133.555 230.768 133.216C230.939 132.878 231.015 132.5 230.99 132.121C231.004 131.695 230.919 131.271 230.743 130.883C230.693 130.729 230.608 130.589 230.493 130.474C230.379 130.36 230.239 130.274 230.085 130.225C229.985 130.201 229.88 130.212 229.788 130.256C229.695 130.3 229.62 130.374 229.575 130.465C229.511 130.607 229.575 130.706 229.518 130.713C229.462 130.72 229.412 130.635 229.448 130.43C229.474 130.307 229.542 130.198 229.639 130.119C229.706 130.066 229.783 130.026 229.866 130.003C229.949 129.98 230.035 129.974 230.12 129.984C230.324 130.023 230.514 130.114 230.673 130.248C230.832 130.382 230.953 130.554 231.026 130.748C231.244 131.173 231.351 131.645 231.337 132.121C231.337 133.126 230.814 134.068 230.099 134.28C229.966 134.32 229.825 134.329 229.688 134.307C229.55 134.285 229.42 134.232 229.306 134.153C229.15 134.039 229.129 133.933 229.143 133.919Z" fill="#FF9A6C"/>
<path d="M215.484 134.485C215.314 134.485 215.307 135.61 214.331 136.417C213.354 137.224 212.137 137.09 212.13 137.245C212.123 137.401 212.399 137.472 212.908 137.486C213.577 137.5 214.229 137.277 214.748 136.856C215.245 136.453 215.565 135.871 215.64 135.235C215.69 134.761 215.555 134.478 215.484 134.485Z" fill="#263238"/>
<path d="M193.021 115.603C193.06 115.455 193.129 115.316 193.222 115.194C193.316 115.073 193.433 114.971 193.566 114.895C194.143 114.627 194.78 114.517 195.413 114.577C196.994 114.527 198.543 114.118 199.943 113.381C199.447 113.149 198.993 112.839 198.598 112.461C198.176 112.081 197.865 111.592 197.7 111.048C197.536 110.504 197.523 109.926 197.664 109.375C197.688 109.273 197.735 109.177 197.801 109.095C197.867 109.013 197.951 108.947 198.046 108.901C198.372 108.795 198.655 109.106 198.881 109.354C199.167 109.741 199.552 110.043 199.996 110.228C200.439 110.414 200.925 110.476 201.401 110.409C202.063 110.361 202.706 110.165 203.283 109.835L203.347 109.765L204.09 108.986C205.93 107.118 207.522 105.815 209.164 105.129C212.031 104.046 215.139 103.767 218.152 104.322C220.686 104.952 222.979 106.976 223.361 109.559C224.776 108.349 226.9 108.335 228.619 109.007H228.662C230.594 109.673 231.705 111.69 232.292 113.636C232.328 113.749 232.356 113.855 232.384 113.961C233.044 114.99 233.939 115.847 234.996 116.46C235.187 116.559 235.399 116.693 235.421 116.905C235.442 117.118 235.272 117.295 235.102 117.422C234.64 117.755 234.111 117.982 233.552 118.087C233.733 118.55 233.951 118.997 234.203 119.425C234.423 119.793 234.692 120.225 234.501 120.614C234.415 120.755 234.289 120.866 234.138 120.934C233.988 121.001 233.82 121.02 233.658 120.989C233.335 120.922 233.029 120.79 232.76 120.6C232.979 121.109 233.198 121.619 233.425 122.128C232.718 122.255 231.991 122.216 231.302 122.015C230.912 123.848 230.651 127.245 230.191 128.491C228.874 128.491 228.549 128.392 227.89 128.618C227.034 128.908 227.381 130.43 226.256 130.034C225.682 129.814 224.791 127.67 224.592 127.089C223.282 123.245 222.817 119.163 223.227 115.122C222.419 114.28 221.458 113.6 220.396 113.119L220.481 113.197C218.442 112.489 216.142 111.852 214.231 112.822C212.745 113.579 211.889 115.136 210.785 116.36C209.858 117.486 208.705 118.404 207.401 119.055C206.096 119.707 204.669 120.076 203.212 120.14C202.958 122.334 202.908 125.915 202.83 127.925L201.033 123.855C200.891 123.615 200.771 123.374 200.657 123.147L200.615 123.077C200.44 122.679 200.244 122.292 200.028 121.916V121.916C199.792 122.11 199.494 122.213 199.189 122.207C198.883 122.201 198.59 122.086 198.362 121.883C198.134 121.679 197.986 121.401 197.945 121.099C197.904 120.796 197.972 120.488 198.138 120.232C198.307 119.991 198.512 119.779 198.747 119.602C198.499 119.846 198.192 120.023 197.856 120.114C197.52 120.206 197.166 120.21 196.829 120.126C196.495 120.026 196.204 119.82 195.999 119.539C195.794 119.257 195.688 118.916 195.696 118.569C195.718 118.333 195.802 118.108 195.941 117.917C196.079 117.725 196.266 117.574 196.482 117.479C195.584 117.559 194.683 117.372 193.892 116.941C193.361 116.721 192.851 116.247 193.021 115.603Z" fill="#263238"/>
<path d="M221.104 110.416C221.354 110.619 221.59 110.839 221.811 111.074C222.391 111.762 222.784 112.588 222.951 113.473C223.084 114.078 223.155 114.694 223.163 115.313C223.163 115.985 223.128 116.728 223.085 117.436C223.035 118.228 223.035 119.022 223.085 119.814C223.113 120.236 223.172 120.654 223.262 121.067C223.333 121.51 223.513 121.928 223.786 122.284C223.916 122.423 224.079 122.526 224.259 122.584C224.44 122.642 224.633 122.654 224.819 122.617C225.173 122.544 225.493 122.357 225.732 122.086C226.127 121.541 226.371 120.901 226.44 120.232H226.284C226.508 120.777 226.814 121.285 227.19 121.739C227.546 122.164 228.054 122.434 228.605 122.489C228.863 122.514 229.122 122.467 229.355 122.355C229.571 122.24 229.746 122.062 229.858 121.845C229.965 121.648 230.016 121.425 230.007 121.201C229.992 120.993 229.907 120.796 229.766 120.642L229.688 120.706C230.123 121.199 230.659 121.592 231.259 121.859C231.419 121.929 231.582 121.991 231.748 122.043L231.917 122.086C231.917 122.086 231.868 122.086 231.755 122.015C231.641 121.944 231.486 121.909 231.288 121.81C230.708 121.526 230.19 121.129 229.766 120.642L229.688 120.713C229.81 120.863 229.881 121.048 229.892 121.241C229.904 121.433 229.855 121.625 229.752 121.789C229.65 121.98 229.492 122.136 229.299 122.235C229.079 122.341 228.834 122.382 228.591 122.355C228.076 122.297 227.602 122.043 227.268 121.647C226.912 121.197 226.622 120.699 226.404 120.168L226.298 119.934L226.249 120.189C226.198 120.826 225.975 121.438 225.605 121.959C225.394 122.206 225.104 122.374 224.784 122.433C224.626 122.466 224.463 122.458 224.31 122.408C224.158 122.358 224.02 122.269 223.913 122.15C223.657 121.82 223.489 121.43 223.425 121.017C223.335 120.614 223.276 120.205 223.248 119.793C223.202 119.006 223.202 118.216 223.248 117.429C223.283 116.672 223.326 115.957 223.312 115.306C223.297 114.677 223.219 114.051 223.078 113.438C222.911 112.548 222.513 111.719 221.924 111.031C221.689 110.779 221.411 110.571 221.104 110.416Z" fill="#455A64"/>
<path d="M198.733 117.733C198.733 117.733 198.733 117.733 198.789 117.783L198.973 117.917C199.069 117.99 199.171 118.054 199.277 118.109C199.422 118.193 199.57 118.268 199.723 118.335C200.701 118.766 201.772 118.946 202.837 118.859C204.423 118.736 205.939 118.159 207.204 117.196C208.724 116.001 209.985 114.511 210.912 112.815C211.436 111.93 211.854 111.024 212.328 110.182C212.75 109.367 213.286 108.617 213.92 107.953C214.496 107.367 215.209 106.935 215.994 106.693C216.349 106.584 216.72 106.537 217.091 106.552C217.435 106.567 217.775 106.629 218.103 106.736C218.671 106.918 219.193 107.223 219.631 107.627C219.965 107.93 220.245 108.286 220.459 108.682C220.629 109.027 220.76 109.39 220.849 109.765C220.85 109.739 220.85 109.713 220.849 109.687C220.849 109.63 220.849 109.552 220.813 109.467C220.748 109.186 220.65 108.913 220.523 108.653C220.316 108.243 220.038 107.871 219.702 107.556C219.26 107.135 218.731 106.816 218.152 106.622C217.814 106.509 217.461 106.44 217.105 106.417C216.718 106.402 216.33 106.45 215.958 106.559C215.15 106.809 214.419 107.262 213.835 107.875C213.183 108.544 212.632 109.304 212.2 110.133C211.733 110.975 211.309 111.881 210.785 112.758C209.866 114.435 208.619 115.91 207.119 117.097C205.891 118.046 204.418 118.625 202.873 118.767C201.824 118.865 200.768 118.708 199.794 118.307C199.425 118.145 199.07 117.953 198.733 117.733V117.733Z" fill="#455A64"/>
<path d="M198.032 114.556C198.111 114.626 198.199 114.685 198.294 114.733C198.544 114.878 198.804 115.006 199.072 115.115C199.469 115.278 199.879 115.408 200.297 115.504C200.812 115.611 201.335 115.675 201.861 115.695C202.387 115.698 202.913 115.656 203.432 115.568C203.854 115.491 204.268 115.377 204.67 115.228C204.94 115.131 205.203 115.015 205.456 114.881C205.64 114.782 205.732 114.726 205.725 114.711C205.718 114.697 205.314 114.895 204.628 115.115C204.228 115.245 203.819 115.345 203.403 115.412C202.893 115.491 202.377 115.529 201.861 115.525C201.345 115.506 200.832 115.447 200.325 115.348C199.913 115.263 199.509 115.147 199.115 115.002C198.435 114.754 198.046 114.527 198.032 114.556Z" fill="#455A64"/>
<path d="M236.136 154.11L226.886 150.989L209.922 151.768L202.172 155.469L214.217 180.098L222.151 178.944L236.136 154.11Z" fill="#FFBF9D"/>
<path d="M175.081 190.204C175.081 190.204 186.652 159.425 188.039 158.866C190.82 157.741 208.867 150.748 208.867 150.748L217.225 158.802L227.685 151.06C227.685 151.06 244.939 155.03 245.753 157.281C246.567 159.531 239.929 198.647 239.929 198.647C239.929 198.647 242.696 220.721 242.477 230.593L244.939 240.827L185.491 240.983C185.491 240.983 186.843 220.89 189.1 202.674L190.459 186.566L189.575 197.097L175.081 190.204Z" fill="#4B8DF0"/>
<path d="M192.696 161.938C192.66 162.045 192.636 162.157 192.625 162.27C192.59 162.532 192.54 162.85 192.484 163.247C192.363 164.096 192.208 165.327 192.031 166.849C191.67 169.892 191.245 174.103 190.87 178.767C190.495 183.431 190.247 187.649 190.091 190.713C190.021 192.214 189.971 193.438 189.929 194.337C189.929 194.74 189.929 195.045 189.929 195.321C189.918 195.436 189.918 195.552 189.929 195.667C189.962 195.557 189.978 195.443 189.978 195.328C189.978 195.066 190.028 194.74 190.063 194.344C190.127 193.445 190.212 192.221 190.318 190.727C190.53 187.67 190.813 183.445 191.188 178.788C191.563 174.131 191.953 169.921 192.257 166.87C192.406 165.377 192.526 164.153 192.618 163.261C192.653 162.865 192.682 162.553 192.703 162.277C192.716 162.164 192.714 162.05 192.696 161.938Z" fill="#263238"/>
<path d="M240.623 154.924L243.489 155.745C245.456 156.287 247.233 157.364 248.623 158.858C250.012 160.351 250.96 162.202 251.359 164.202L256.702 194.245L239.78 200.374L233.956 195.809L240.623 154.924Z" fill="#4B8DF0"/>
<path d="M185.831 234.903H185.972L186.376 234.974L187.933 235.229C189.277 235.448 191.238 235.745 193.665 235.936C194.989 236.039 196.319 236.039 197.643 235.936C198.002 235.911 198.359 235.862 198.711 235.788C198.895 235.788 199.079 235.724 199.256 235.675L199.78 235.498C200.488 235.3 200.884 234.556 201.195 233.856C201.502 233.096 201.739 232.309 201.903 231.506C202.087 230.692 202.236 229.843 202.356 228.973C202.604 227.239 202.759 225.434 202.873 223.566C203.113 219.503 203.149 215.639 203.092 212.242L203.234 212.384L191.91 212.143L188.704 212.058L187.855 212.023H187.558C187.656 212.009 187.756 212.009 187.855 212.023H191.917L203.241 212.143H203.382V212.277C203.46 215.71 203.439 219.574 203.198 223.65C203.078 225.512 202.922 227.331 202.667 229.079C202.54 229.956 202.391 230.813 202.2 231.641C202.028 232.459 201.779 233.26 201.457 234.033C201.298 234.412 201.093 234.771 200.849 235.101C200.718 235.262 200.573 235.411 200.417 235.547C200.247 235.666 200.061 235.759 199.865 235.823L199.313 236C199.122 236.05 198.938 236.078 198.754 236.113C198.389 236.186 198.02 236.236 197.65 236.262C196.313 236.354 194.972 236.342 193.637 236.227C191.711 236.067 189.795 235.802 187.897 235.434C187.19 235.314 186.701 235.2 186.347 235.116L185.951 235.024L185.831 234.903Z" fill="#263238"/>
<path d="M203.057 216.17C203.057 216.255 199.455 216.326 195.01 216.326C190.566 216.326 186.956 216.255 186.956 216.17C186.956 216.085 190.566 216.014 195.01 216.014C199.455 216.014 203.057 216.078 203.057 216.17Z" fill="#263238"/>
<path d="M238.435 240.99C238.435 241.075 226.772 241.145 212.377 241.145C197.982 241.145 186.319 241.075 186.319 240.99C186.319 240.905 197.982 240.834 212.377 240.834C226.772 240.834 238.435 240.905 238.435 240.99Z" fill="#263238"/>
<path d="M223.1 188.477H234.862V180.098H223.1V188.477Z" fill="white"/>
<path d="M230.58 184.648C230.579 184.905 230.653 185.156 230.795 185.37C230.936 185.583 231.138 185.751 231.375 185.85C231.611 185.949 231.872 185.975 232.123 185.926C232.375 185.877 232.607 185.754 232.788 185.574C232.97 185.393 233.094 185.162 233.145 184.91C233.195 184.659 233.17 184.398 233.072 184.161C232.974 183.924 232.808 183.721 232.595 183.579C232.382 183.436 232.132 183.36 231.875 183.36C231.705 183.359 231.537 183.392 231.38 183.456C231.223 183.52 231.08 183.615 230.96 183.735C230.839 183.855 230.744 183.997 230.679 184.154C230.614 184.31 230.58 184.478 230.58 184.648Z" fill="#E0E0E0"/>
<path d="M225.123 184.945H229.292C229.468 184.945 229.61 184.803 229.61 184.627V184.436C229.61 184.26 229.468 184.117 229.292 184.117H225.123C224.948 184.117 224.805 184.26 224.805 184.436V184.627C224.805 184.803 224.948 184.945 225.123 184.945Z" fill="#E0E0E0"/>
<path d="M229.702 181.4L230.672 178.795H227.296L228.117 181.4H229.702Z" fill="#263238"/>
<path d="M208.782 177.366C208.813 177.469 208.856 177.569 208.909 177.663L209.327 178.484C209.688 179.192 210.261 180.204 211.004 181.421C211.747 182.638 212.682 184.068 213.786 185.597C214.89 187.125 216.192 188.753 217.629 190.395C219.065 192.037 220.544 193.509 221.917 194.804C223.29 196.099 224.6 197.196 225.725 198.081C226.85 198.965 227.777 199.652 228.435 200.105L229.2 200.614C229.377 200.735 229.469 200.791 229.476 200.777C229.403 200.698 229.323 200.627 229.235 200.565L228.527 200.006C227.89 199.531 226.978 198.817 225.881 197.882C224.784 196.948 223.503 195.858 222.137 194.57C220.771 193.282 219.306 191.789 217.89 190.168C216.475 188.548 215.166 186.913 214.04 185.405C212.915 183.898 211.967 182.483 211.21 181.279C210.452 180.076 209.851 179.093 209.462 178.399L208.987 177.606C208.926 177.52 208.857 177.44 208.782 177.366V177.366Z" fill="#263238"/>
<path d="M226.029 215.908C225.951 215.791 225.861 215.682 225.76 215.582L224.947 214.698C224.586 214.323 224.147 213.849 223.658 213.282C223.17 212.716 222.59 212.108 221.988 211.393C220.764 209.977 219.356 208.258 217.855 206.297C216.355 204.337 214.791 202.115 213.241 199.723C211.691 197.33 210.332 194.974 209.15 192.801C207.968 190.628 207.027 188.633 206.22 186.927C205.817 186.085 205.513 185.306 205.187 184.627C204.862 183.947 204.642 183.36 204.444 182.879L203.97 181.768C203.925 181.633 203.863 181.505 203.786 181.386C203.817 181.523 203.86 181.658 203.913 181.789L204.331 182.921C204.515 183.41 204.741 184.011 205.038 184.698C205.336 185.384 205.64 186.17 206.036 187.019C206.786 188.732 207.763 190.742 208.917 192.936C210.07 195.129 211.45 197.479 212.993 199.885C214.536 202.292 216.135 204.5 217.636 206.467C219.136 208.435 220.587 210.14 221.833 211.534C222.448 212.242 223.036 212.851 223.538 213.396C224.041 213.941 224.494 214.401 224.869 214.769L225.725 215.611C225.818 215.718 225.92 215.818 226.029 215.908V215.908Z" fill="#263238"/>
<path d="M244.953 166.906C244.869 166.906 243.538 174.938 241.974 184.868C240.41 194.797 239.207 202.872 239.292 202.886C239.377 202.9 240.707 194.853 242.271 184.917C243.835 174.981 245.038 166.92 244.953 166.906Z" fill="#263238"/>
<path d="M241.614 261.612C241.699 261.734 241.812 261.835 241.943 261.907C242.073 261.979 242.219 262.019 242.368 262.026C242.516 262.033 242.665 262.006 242.802 261.946C242.938 261.887 243.06 261.797 243.156 261.683C243.546 261.322 243.956 257.366 243.956 257.366L244.876 252.072L244.713 262.15C244.713 262.15 244.819 263.106 245.563 263.141C246.306 263.177 246.815 262.072 246.815 262.072L247.898 251.69C247.898 251.69 247.551 257.465 247.933 257.762C248.457 258.166 248.931 258.039 249.101 257.593C249.448 256.694 249.95 251.499 249.95 251.499L250.432 241.591L250.934 236.828L241.741 236.255L241.323 239.086C241.323 239.086 237.672 241.846 236.872 242.936C236.072 244.026 234.083 247.89 232.625 249.043C232.651 249.236 232.726 249.419 232.843 249.574C232.96 249.728 233.116 249.85 233.294 249.926C233.473 250.003 233.668 250.031 233.861 250.009C234.054 249.987 234.238 249.915 234.395 249.801C235.892 248.955 237.204 247.817 238.252 246.453C238.875 245.505 239.526 246.057 239.561 246.885C239.597 247.713 238.889 253.311 238.889 253.311C238.889 253.311 237.134 259.532 237.608 260.232C237.707 260.372 237.837 260.487 237.987 260.569C238.138 260.651 238.304 260.697 238.475 260.706C238.646 260.714 238.817 260.683 238.974 260.616C239.132 260.549 239.272 260.447 239.384 260.317C239.625 259.992 241.592 254.79 241.592 254.79" fill="#FFBF9D"/>
<path d="M251.33 196.212C251.33 196.212 251.96 215.816 252.038 218.902C252.151 223.679 250.799 237.72 250.799 237.72L241.309 239.079L240.983 199.956L251.33 196.212Z" fill="#FFBF9D"/>
<path d="M145.081 192.596C144.369 192.28 143.716 191.847 143.149 191.315C142.947 191.049 142.821 190.734 142.784 190.403C142.747 190.071 142.799 189.736 142.936 189.432L144.677 190.062C144.095 189.868 143.595 189.481 143.262 188.965C143.163 188.852 143.089 188.72 143.044 188.577C142.999 188.434 142.983 188.283 142.998 188.134C143.014 187.985 143.059 187.84 143.133 187.709C143.206 187.578 143.305 187.464 143.425 187.373C143.425 187.373 146.447 188.583 147.636 188.965C147.798 189.086 153.955 191.435 154.281 191.796L160.014 197.946L168.471 196.021L169.228 207.599C169.228 207.599 158.563 206.502 156.765 205.979C154.968 205.455 150.318 201.025 150.318 201.025L148.195 198.229L144.451 196.156C143.807 195.703 143.134 194.882 143.743 194.075C142.561 193.318 143.177 191.824 143.177 191.824L145.081 192.596Z" fill="#659BED"/>
<path d="M149.815 193.473C150.183 193.285 150.524 193.047 150.827 192.766L150.962 192.667L150.813 192.589C149.748 192.004 148.654 191.472 147.536 190.996C146.298 190.459 145.158 190.034 144.323 189.765C143.87 189.581 143.394 189.462 142.908 189.411C143.322 189.645 143.758 189.837 144.21 189.984C145.024 190.31 146.142 190.77 147.373 191.301C148.605 191.832 149.886 192.419 150.678 192.78V192.596C150.355 192.851 150.064 193.145 149.815 193.473V193.473Z" fill="#263238"/>
<path d="M147.218 193.473C146.613 193.05 145.95 192.716 145.25 192.483C144.582 192.142 143.866 191.903 143.127 191.775C143.733 192.199 144.399 192.533 145.101 192.766C145.767 193.107 146.481 193.345 147.218 193.473V193.473Z" fill="#263238"/>
<path d="M134.382 214.627H129.245V293.739H134.382V214.627Z" fill="#E0E0E0"/>
<path d="M134.16 293.739C134.16 293.739 134.16 293.596 134.16 293.318C134.16 293.039 134.16 292.635 134.16 292.108C134.16 291.041 134.16 289.481 134.16 287.469C134.16 283.438 134.16 277.61 134.107 270.387C134.107 255.961 134.06 235.987 134.033 213.769L134.207 213.878H129.419L129.593 213.769C129.593 252.306 129.54 284.699 129.466 293.739L129.419 293.71H133.034H134.207C134.207 293.71 133.845 293.71 133.061 293.71H129.419H129.379V293.68C129.305 284.64 129.245 252.247 129.245 213.71V213.6H134.382V213.71C134.382 235.957 134.328 255.961 134.315 270.412C134.315 277.619 134.268 283.442 134.261 287.465C134.261 289.468 134.261 291.024 134.261 292.082C134.261 292.605 134.261 293.006 134.261 293.28C134.261 293.554 134.16 293.739 134.16 293.739Z" fill="#263238"/>
<path d="M113.636 214.762H152.172V167.04H113.636V214.762Z" fill="#E1EDFF"/>
<path d="M124.946 214.854H152.172V167.033H124.946V214.854Z" fill="#F5F5F5"/>
<path d="M148.739 171.647H128.407V191.98H148.739V171.647Z" fill="white"/>
<path d="M128.407 191.987C128.397 191.867 128.397 191.746 128.407 191.626C128.407 191.357 128.407 191.003 128.407 190.558C128.407 189.581 128.407 188.194 128.364 186.446C128.364 182.843 128.308 177.748 128.272 171.647V171.478H128.449H148.782L148.98 171.683V177.146C148.98 178.944 148.98 180.685 148.98 182.405C148.98 185.816 148.98 189.043 148.98 192.001V192.171H148.81L134.012 192.086L129.9 192.037H128.831H128.477C128.607 192.028 128.737 192.028 128.867 192.037H129.971L134.125 191.994L148.81 191.902L148.633 192.079C148.633 189.121 148.633 185.894 148.633 182.483C148.633 180.779 148.633 179.027 148.633 177.224V171.761L148.831 171.959H128.499L128.669 171.782C128.669 177.84 128.605 182.893 128.584 186.467C128.584 188.236 128.584 189.631 128.534 190.621C128.534 191.093 128.534 191.461 128.534 191.725C128.414 191.846 128.407 191.98 128.407 191.987Z" fill="#263238"/>
<path d="M114.295 167.033C114.295 166.927 122.787 166.835 133.184 166.835C143.58 166.835 152.066 166.927 152.066 167.033C152.066 167.139 143.615 167.238 133.184 167.238C122.752 167.238 114.295 167.146 114.295 167.033Z" fill="#263238"/>
<path d="M113.644 214.762C113.537 214.762 113.445 204.146 113.445 191.081C113.445 178.017 113.537 167.394 113.644 167.394C113.75 167.394 113.842 178.01 113.842 191.081C113.842 204.153 113.743 214.762 113.644 214.762Z" fill="#263238"/>
<path d="M124.967 214.762C124.854 214.762 124.769 204.146 124.769 191.081C124.769 178.017 124.854 167.394 124.967 167.394C125.08 167.394 125.165 178.01 125.165 191.081C125.165 204.153 125.059 214.762 124.967 214.762Z" fill="#263238"/>
<path d="M145.618 199.05H148.739V195.929H145.618V199.05Z" fill="#455A64"/>
<path d="M141.315 199.05H144.436V195.929H141.315V199.05Z" fill="#455A64"/>
<path d="M137.005 199.05H140.126V195.929H137.005V199.05Z" fill="#455A64"/>
<path d="M132.703 199.05H135.824V195.929H132.703V199.05Z" fill="#455A64"/>
<path d="M128.4 199.05H131.521V195.929H128.4V199.05Z" fill="#455A64"/>
<path d="M145.618 203.19H148.739V200.069H145.618V203.19Z" fill="#455A64"/>
<path d="M141.315 203.19H144.436V200.069H141.315V203.19Z" fill="#455A64"/>
<path d="M137.005 203.19H140.126V200.069H137.005V203.19Z" fill="#455A64"/>
<path d="M132.703 203.19H135.824V200.069H132.703V203.19Z" fill="#455A64"/>
<path d="M128.4 203.19H131.521V200.069H128.4V203.19Z" fill="#455A64"/>
<path d="M145.618 207.323H148.739V204.202H145.618V207.323Z" fill="#455A64"/>
<path d="M141.315 207.323H144.436V204.202H141.315V207.323Z" fill="#455A64"/>
<path d="M137.005 207.323H140.126V204.202H137.005V207.323Z" fill="#455A64"/>
<path d="M128.4 207.323H135.824V204.202H128.4V207.323Z" fill="#4B8DF0"/>
<path d="M129.426 182.15C129.426 182.15 129.532 182.1 129.759 182.051C129.985 182.001 130.303 181.938 130.728 181.881C131.254 181.81 131.787 181.81 132.313 181.881C133.02 181.992 133.67 182.33 134.168 182.844C134.456 183.158 134.657 183.544 134.748 183.962C134.83 184.403 134.858 184.852 134.833 185.299C134.797 185.752 134.797 186.206 134.833 186.658C134.904 187.112 135.103 187.537 135.406 187.882C135.545 188.054 135.737 188.175 135.952 188.228C136.166 188.28 136.392 188.261 136.595 188.173C137.026 187.926 137.353 187.531 137.515 187.062C137.911 186.016 138.173 184.924 138.294 183.813C138.449 182.667 138.294 181.548 138.421 180.409C138.443 179.838 138.637 179.287 138.978 178.828C139.319 178.37 139.791 178.025 140.332 177.84C140.601 177.783 140.879 177.789 141.145 177.856C141.411 177.924 141.658 178.051 141.868 178.229C142.238 178.553 142.533 178.954 142.731 179.404C143.099 180.267 143.226 181.095 143.573 181.754C143.886 182.342 144.383 182.812 144.989 183.091C145.447 183.305 145.947 183.416 146.454 183.417C146.89 183.403 147.321 183.324 147.735 183.183C147.735 183.183 147.643 183.261 147.437 183.353C147.128 183.485 146.797 183.559 146.461 183.572C145.924 183.605 145.388 183.508 144.897 183.289C144.226 183.012 143.671 182.512 143.325 181.874C142.936 181.166 142.788 180.324 142.427 179.538C142.247 179.136 141.979 178.781 141.641 178.498C141.474 178.355 141.275 178.253 141.061 178.2C140.848 178.147 140.624 178.145 140.41 178.194C139.953 178.33 139.56 178.623 139.299 179.022C139.022 179.446 138.854 179.932 138.81 180.437C138.704 181.485 138.846 182.66 138.69 183.834C138.564 184.985 138.291 186.115 137.876 187.196C137.675 187.756 137.274 188.222 136.751 188.505C136.474 188.62 136.168 188.644 135.877 188.574C135.586 188.505 135.324 188.344 135.13 188.116C134.788 187.714 134.564 187.223 134.486 186.701C134.444 186.23 134.444 185.756 134.486 185.285C134.551 184.891 134.536 184.488 134.441 184.1C134.346 183.712 134.174 183.347 133.934 183.028C133.479 182.542 132.878 182.219 132.221 182.107C131.72 182.013 131.208 181.989 130.7 182.037C129.921 182.107 129.426 182.185 129.426 182.15Z" fill="#4B8DF0"/>
<path d="M150.24 240.643H115.54V249.128H150.24V240.643Z" fill="#E0E0E0"/>
<path d="M126.107 249.022C125.861 246.461 125.861 243.883 126.107 241.322C126.352 243.883 126.352 246.461 126.107 249.022V249.022Z" fill="#263238"/>
<path d="M149.872 240.636C149.872 240.742 142.179 240.82 132.695 240.82C123.212 240.82 115.519 240.742 115.519 240.636C115.519 240.53 123.212 240.452 132.695 240.452C142.179 240.452 149.872 240.537 149.872 240.636Z" fill="#263238"/>
<path d="M150.679 249.312C150.679 249.411 142.717 249.496 132.908 249.496C123.099 249.496 115.13 249.411 115.13 249.312C115.13 249.213 123.085 249.128 132.908 249.128C142.731 249.128 150.679 249.206 150.679 249.312Z" fill="#263238"/>
<path d="M154.231 196.382L150.891 193.99L144.996 193.65C145.059 194.125 145.241 194.576 145.526 194.961C145.811 195.346 146.188 195.652 146.623 195.851C148.039 196.361 150.197 197.047 150.197 197.047C150.197 197.047 149.921 202.157 153.177 202.504L155.194 200.282L154.231 196.382Z" fill="#659BED"/>
<path d="M116.934 282.37L30.3308 200.82C29.7002 200.198 28.9516 199.709 28.1293 199.381C27.3069 199.053 26.4272 198.892 25.542 198.909C24.6567 198.926 23.7837 199.119 22.9742 199.478C22.1647 199.836 21.435 200.353 20.8281 200.998C20.2211 201.643 19.7492 202.402 19.4398 203.232C19.1305 204.061 18.9901 204.944 19.0268 205.829C19.0636 206.714 19.2767 207.582 19.6538 208.383C20.0309 209.184 20.5642 209.902 21.2225 210.494L107.345 291.584C109.277 293.41 111.917 293.481 114.33 293.311H311.953V282.37H116.934Z" fill="#E0E0E0"/>
<path d="M116.935 282.37H117.862H120.593H131.209L171.238 282.32L311.953 282.207H312.116V282.37C312.116 285.753 312.116 289.518 312.116 293.311V293.481H311.946H183.382H115.965C115.257 293.481 114.599 293.481 113.927 293.481C113.243 293.52 112.558 293.52 111.874 293.481C110.482 293.436 109.127 293.015 107.954 292.264C107.41 291.853 106.897 291.404 106.418 290.919L104.946 289.504L102.023 286.751L90.4588 275.866C82.8391 268.685 75.3797 261.662 68.0808 254.797L26.7147 215.901L21.9022 211.365C21.0442 210.667 20.3242 209.815 19.779 208.852C19.0102 207.387 18.8017 205.692 19.1925 204.085C19.5833 202.477 20.5467 201.067 21.9022 200.119C23.2235 199.206 24.8245 198.789 26.4232 198.94C28.022 199.092 29.5161 199.802 30.6425 200.947L32.8577 203.035L37.2101 207.189L45.7028 215.115L97.8545 264.288C104.005 270.105 108.789 274.613 112.009 277.678L115.689 281.167C116.524 281.959 116.942 282.37 116.942 282.37C116.942 282.37 116.51 281.981 115.675 281.202L111.981 277.749L97.7696 264.415L45.5117 215.321L37.019 207.359L32.6454 203.24L30.4231 201.152C29.3463 200.05 27.9138 199.365 26.3798 199.218C24.8458 199.072 23.3096 199.474 22.0437 200.352C21.1879 200.952 20.4889 201.748 20.006 202.674C19.5231 203.601 19.2705 204.63 19.2695 205.675C19.2612 206.733 19.5166 207.776 20.0126 208.711C20.5453 209.645 21.2487 210.471 22.0862 211.145L26.927 215.682L68.3497 254.606L90.7419 275.668L102.299 286.545L105.229 289.298L106.694 290.714C107.163 291.185 107.664 291.622 108.194 292.023C109.313 292.738 110.604 293.137 111.931 293.177C112.6 293.219 113.272 293.219 113.941 293.177C114.649 293.127 115.307 293.177 115.986 293.177H183.418H311.989L311.812 293.347C311.812 289.553 311.812 285.788 311.812 282.405L311.982 282.575L171.217 282.504L131.202 282.455H120.586H117.862L116.935 282.37Z" fill="#263238"/>
<path d="M94.2591 204.804C91.2709 207.099 87.7031 208.518 83.9547 208.902C83.9547 208.902 89.758 212.094 95.724 206.715L94.2591 204.804Z" fill="#FF9A6C"/>
<path d="M70.1401 197.635C71.0512 198.993 71.766 200.472 72.2633 202.03C72.4092 202.342 72.4771 202.684 72.4611 203.028C72.445 203.372 72.3456 203.707 72.1713 204.004C71.9441 204.224 71.6525 204.365 71.3392 204.408C71.0259 204.45 70.7073 204.39 70.4303 204.238C69.8735 203.925 69.402 203.48 69.0573 202.943C67.7823 201.1 66.6332 199.173 65.6178 197.175" fill="#263238"/>
<path d="M83.1339 215.922C85.7969 215.425 88.3645 214.51 90.7419 213.212C93.0946 211.909 95.2889 210.34 97.2812 208.534L97.6917 208.399L105.604 210.593C109.85 212.136 115.993 214.132 119.107 216.255C123.481 219.27 128.853 228.145 128.853 228.145L148.612 241.308C148.612 241.308 152.236 242.596 150.084 249.928C147.933 257.26 129.327 266.871 129.327 266.871C129.327 266.871 124.776 268.761 122.108 266.029C119.808 263.672 108.661 253.063 108.661 253.063C108.661 253.063 92.2847 238.506 89.5034 235.335C83.7567 228.803 79.3052 227.288 83.1339 215.922Z" fill="#4B8DF0"/>
<path d="M115.335 259.029L130.353 228.93L148.754 233.339L168.386 240.523L217.282 236.347L295.839 235.76C297.958 235.742 300.005 236.525 301.571 237.954C303.39 239.617 306.207 242.278 306.617 245.689C308.266 259.376 309.398 268.081 309.285 267.564L127.487 268.76L115.335 259.029Z" fill="#455A64"/>
<path d="M105.937 226.524C106.644 226.892 120.969 242.54 120.969 242.54L153.941 233.792L156.482 242.504C156.482 242.504 125.236 257.437 121.804 257.529C118.371 257.621 115.271 255.816 106.609 250.615C97.628 245.229 94.2593 235.816 94.2593 235.816L105.937 226.524Z" fill="#FFBF9D"/>
<path d="M110.954 230.544L95.9506 243.828C95.9506 243.828 88.3073 233.813 85.1013 228.753C82.2704 224.238 83.4452 220.629 87.6632 218.053C91.8812 215.476 98.4701 218.966 101.11 220.883C104.16 223.049 110.954 230.544 110.954 230.544Z" fill="#4B8DF0"/>
<path d="M110.954 230.544C110.843 230.468 110.741 230.381 110.65 230.282L109.85 229.496C109.143 228.789 108.166 227.798 106.913 226.588C105.661 225.377 104.146 223.941 102.384 222.454C100.517 220.807 98.4653 219.382 96.2692 218.208C94.06 217.06 91.4886 216.824 89.1071 217.55C88.1381 217.821 87.2344 218.287 86.4509 218.918C85.6675 219.55 85.0205 220.334 84.5494 221.223C83.9322 222.444 83.7073 223.826 83.9054 225.179C84.0017 225.672 84.1342 226.157 84.3017 226.63C84.0331 226.197 83.8505 225.717 83.7638 225.215C83.5019 223.825 83.6955 222.388 84.3158 221.117C84.7877 220.183 85.4474 219.356 86.2536 218.689C87.0598 218.021 87.9951 217.528 89.0009 217.239C90.1786 216.87 91.4149 216.726 92.6457 216.814C93.969 216.9 95.2592 217.264 96.432 217.883C98.6569 219.071 100.729 220.525 102.603 222.214C104.365 223.721 105.859 225.172 107.097 226.411C108.336 227.649 109.298 228.682 109.928 229.411L110.678 230.246C110.78 230.336 110.872 230.436 110.954 230.544V230.544Z" fill="#263238"/>
<path d="M95.9718 243.821L110.954 230.565L108.293 227.798L94.2379 241.641L95.9718 243.821Z" fill="#E0E0E0"/>
<path d="M307.452 264.953H123.821C121.991 264.953 120.508 266.436 120.508 268.265V279.058C120.508 280.887 121.991 282.37 123.821 282.37H307.452C309.281 282.37 310.764 280.887 310.764 279.058V268.265C310.764 266.436 309.281 264.953 307.452 264.953Z" fill="#6B8896"/>
<path d="M298.931 264.953C298.931 265.059 261.422 265.307 215.23 265.512C169.037 265.717 131.528 265.802 131.521 265.703C131.514 265.604 169.03 265.349 215.23 265.144C261.429 264.939 298.931 264.854 298.931 264.953Z" fill="#263238"/>
<path d="M116.935 282.37L36.5802 206.807C35.8592 206.121 35.4387 205.178 35.4109 204.184C35.3831 203.189 35.75 202.224 36.4316 201.499L43.5796 193.884C43.9209 193.519 44.3313 193.226 44.787 193.022C45.2427 192.818 45.7344 192.706 46.2337 192.693C46.7329 192.681 47.2297 192.768 47.695 192.949C48.1603 193.13 48.5849 193.402 48.9441 193.749L129.037 271.089C130.53 272.504 131.634 277.883 130.183 279.376L130.112 282.37H116.935Z" fill="#6B8896"/>
<path d="M212.406 274.974H205.173V293.403H212.406V274.974Z" fill="#E0E0E0"/>
<path d="M212.406 293.41C212.397 293.285 212.397 293.16 212.406 293.035C212.406 292.766 212.406 292.42 212.406 291.995C212.406 291.054 212.406 289.751 212.356 288.138C212.356 284.84 212.306 280.268 212.271 274.981L212.448 275.158H205.18C205.541 274.79 205.279 275.059 205.357 274.974V280.254C205.357 281.952 205.357 283.594 205.357 285.158C205.357 288.272 205.357 291.061 205.314 293.396L205.187 293.269L210.445 293.34H211.896C212.07 293.328 212.245 293.328 212.42 293.34C212.262 293.348 212.103 293.348 211.946 293.34H210.53L205.194 293.41H205.067V293.283C205.067 290.947 205.067 288.159 205.024 285.045C205.024 283.481 205.024 281.839 205.024 280.141C205.024 279.284 205.024 278.414 205.024 277.536V274.988L205.215 274.804H212.582V274.981C212.547 280.318 212.519 284.932 212.498 288.258C212.498 289.858 212.462 291.139 212.448 292.073C212.448 292.483 212.448 292.816 212.448 293.078C212.444 293.19 212.43 293.301 212.406 293.41V293.41Z" fill="#263238"/>
<path d="M147.847 274.974H140.615V293.403H147.847V274.974Z" fill="#E0E0E0"/>
<path d="M147.841 293.41C147.832 293.285 147.832 293.16 147.841 293.035C147.841 292.766 147.841 292.42 147.841 291.995C147.841 291.054 147.841 289.751 147.791 288.138C147.791 284.84 147.742 280.268 147.706 274.981L147.883 275.158H140.615L140.799 274.974V277.649C140.799 278.527 140.799 279.397 140.799 280.254C140.799 281.952 140.799 283.594 140.799 285.158C140.799 288.272 140.799 291.061 140.756 293.396L140.629 293.269L145.887 293.34H147.303C147.477 293.328 147.652 293.328 147.826 293.34C147.669 293.349 147.51 293.349 147.352 293.34H145.937L140.601 293.41H140.473V293.283C140.473 290.947 140.473 288.159 140.431 285.045C140.431 283.481 140.431 281.839 140.431 280.141V274.988L140.615 274.804H148.018V274.981C148.018 280.318 147.961 284.932 147.94 288.258C147.94 289.858 147.897 291.139 147.89 292.073C147.89 292.483 147.89 292.816 147.89 293.078C147.884 293.19 147.867 293.301 147.841 293.41V293.41Z" fill="#263238"/>
<path d="M245.067 244.16H109.581C99.6309 244.16 95.059 254.705 102.271 262.313L117.642 278.301C119.609 280.197 122.235 281.255 124.967 281.252H226.772C230.07 281.253 233.259 280.073 235.76 277.925C239.66 274.571 246.433 267.586 252.385 261.57C259.434 254.415 256.603 244.16 245.067 244.16ZM129.419 271.641C129.419 272.315 129.216 272.973 128.837 273.53C128.458 274.087 127.919 274.517 127.292 274.763C126.665 275.01 125.978 275.062 125.321 274.913C124.664 274.764 124.067 274.42 123.608 273.927L108.223 257.359C107.77 256.882 107.468 256.282 107.354 255.635C107.24 254.987 107.319 254.32 107.58 253.717C107.842 253.114 108.275 252.601 108.826 252.242C109.377 251.883 110.021 251.693 110.678 251.697H125.328C125.866 251.697 126.398 251.803 126.895 252.009C127.392 252.215 127.843 252.517 128.223 252.898C128.603 253.279 128.904 253.73 129.109 254.227C129.315 254.725 129.42 255.257 129.419 255.795V271.641ZM156.517 270.452C156.517 271.39 156.144 272.29 155.481 272.954C154.817 273.618 153.917 273.991 152.979 273.991H139.412C138.473 273.991 137.573 273.618 136.91 272.954C136.246 272.29 135.873 271.39 135.873 270.452V255.859C135.873 254.92 136.246 254.02 136.91 253.357C137.573 252.693 138.473 252.32 139.412 252.32H152.964C153.903 252.32 154.803 252.693 155.467 253.357C156.13 254.02 156.503 254.92 156.503 255.859L156.517 270.452ZM219.992 269.603C219.992 270.541 219.62 271.441 218.956 272.105C218.292 272.768 217.392 273.141 216.454 273.141H202.887C201.948 273.141 201.048 272.768 200.385 272.105C199.721 271.441 199.348 270.541 199.348 269.603V255.017C199.348 254.078 199.721 253.178 200.385 252.514C201.048 251.851 201.948 251.478 202.887 251.478H216.44C217.378 251.478 218.278 251.851 218.942 252.514C219.605 253.178 219.978 254.078 219.978 255.017L219.992 269.603ZM247.629 256.517L232.243 273.078C231.784 273.57 231.188 273.914 230.532 274.063C229.875 274.213 229.189 274.161 228.562 273.915C227.936 273.669 227.397 273.241 227.018 272.685C226.638 272.129 226.434 271.472 226.433 270.799V254.967C226.433 253.882 226.864 252.842 227.631 252.075C228.398 251.307 229.438 250.876 230.523 250.876H245.173C245.826 250.876 246.466 251.067 247.012 251.425C247.559 251.783 247.989 252.293 248.249 252.892C248.51 253.491 248.59 254.153 248.48 254.797C248.37 255.441 248.074 256.039 247.629 256.517V256.517Z" fill="#E0E0E0"/>
<path d="M247.629 256.517C247.629 256.517 247.806 256.312 248.046 255.88C248.272 255.475 248.409 255.028 248.45 254.566C248.491 254.105 248.434 253.64 248.283 253.202C248.132 252.764 247.89 252.362 247.574 252.024C247.258 251.686 246.874 251.417 246.447 251.237C245.777 251.006 245.065 250.922 244.359 250.99H241.925H236.348H231.62C231.072 250.974 230.524 250.991 229.978 251.039C229.43 251.117 228.905 251.311 228.437 251.606C227.968 251.901 227.568 252.291 227.261 252.752C226.945 253.229 226.74 253.771 226.659 254.337C226.607 254.932 226.59 255.53 226.61 256.128C226.61 258.583 226.61 261.124 226.61 263.722C226.61 265.024 226.61 266.305 226.61 267.572V269.461C226.61 270.077 226.61 270.721 226.652 271.287C226.735 271.846 226.965 272.372 227.321 272.811C227.676 273.25 228.142 273.586 228.672 273.783C229.201 273.981 229.773 274.032 230.329 273.933C230.885 273.834 231.404 273.587 231.833 273.219C234.925 269.999 237.685 266.977 240.021 264.507L245.555 258.633L247.077 257.048L247.473 256.644C247.563 256.555 247.612 256.512 247.622 256.517C247.588 256.574 247.548 256.626 247.501 256.673L247.126 257.097L245.661 258.732L240.212 264.684C237.891 267.189 235.187 270.19 232.059 273.481C231.601 273.873 231.05 274.144 230.46 274.267C229.997 274.352 229.522 274.346 229.062 274.248C228.602 274.15 228.166 273.962 227.779 273.695C227.392 273.428 227.061 273.088 226.805 272.692C226.55 272.297 226.375 271.856 226.291 271.393C226.24 270.767 226.223 270.139 226.242 269.511V267.621C226.242 266.354 226.242 265.073 226.242 263.771C226.242 261.174 226.242 258.633 226.242 256.177C226.222 255.563 226.241 254.949 226.298 254.337C226.388 253.72 226.613 253.131 226.956 252.61C227.292 252.109 227.729 251.684 228.24 251.363C228.751 251.043 229.324 250.833 229.922 250.749C230.484 250.704 231.049 250.689 231.613 250.707H236.341H241.918H244.352C245.089 250.646 245.83 250.745 246.525 250.997C247.07 251.24 247.543 251.619 247.9 252.097C248.257 252.575 248.485 253.137 248.563 253.729C248.654 254.468 248.492 255.216 248.103 255.852C248.008 256.019 247.891 256.174 247.756 256.312C247.724 256.386 247.681 256.455 247.629 256.517V256.517Z" fill="#263238"/>
<path d="M219.992 269.603C219.984 269.537 219.984 269.47 219.992 269.405C219.992 269.249 219.992 269.051 219.992 268.803C219.992 268.258 219.992 267.487 219.957 266.517C219.957 264.5 219.922 261.627 219.9 258.095C219.9 257.203 219.9 256.269 219.9 255.3C219.931 254.814 219.861 254.327 219.692 253.87C219.524 253.413 219.262 252.996 218.924 252.646C218.556 252.278 218.111 251.996 217.622 251.82C217.133 251.644 216.611 251.578 216.093 251.627H212.66H205.286H203.347C202.719 251.58 202.089 251.69 201.514 251.945C200.936 252.219 200.447 252.651 200.104 253.19C199.761 253.73 199.577 254.356 199.575 254.995C199.575 257.706 199.575 260.353 199.575 262.915V266.68C199.575 267.296 199.575 267.904 199.575 268.506C199.552 269.089 199.574 269.673 199.638 270.254C199.749 270.791 199.988 271.295 200.334 271.721C200.68 272.147 201.124 272.484 201.627 272.702C202.116 272.904 202.642 272.998 203.17 272.978H204.762H210.58H215.378C216.025 273.026 216.676 273 217.317 272.901C217.837 272.777 218.322 272.535 218.733 272.193C219.317 271.71 219.732 271.053 219.915 270.317C220.035 269.815 220.021 269.532 220.042 269.532C220.064 269.8 220.045 270.069 219.985 270.332C219.846 270.991 219.523 271.597 219.055 272.081C218.587 272.566 217.992 272.908 217.338 273.07C216.684 273.18 216.02 273.221 215.357 273.191H210.558H204.741H203.099C202.526 273.251 201.947 273.188 201.401 273.007C200.848 272.768 200.361 272.401 199.979 271.936C199.597 271.47 199.332 270.92 199.207 270.332C199.135 269.728 199.109 269.12 199.129 268.513V266.687C199.129 265.455 199.129 264.203 199.129 262.922V255.017C199.127 254.311 199.326 253.619 199.701 253.021C200.077 252.424 200.615 251.945 201.252 251.641C201.875 251.359 202.558 251.235 203.241 251.28H215.98C216.541 251.235 217.105 251.314 217.633 251.509C218.161 251.705 218.64 252.013 219.037 252.412C219.399 252.792 219.678 253.243 219.857 253.736C220.036 254.23 220.111 254.755 220.077 255.278C220.077 256.248 220.077 257.182 220.077 258.074C220.077 261.613 220.035 264.479 220.021 266.496C220.021 267.465 220.021 268.237 219.985 268.782V269.383C219.998 269.456 220.001 269.53 219.992 269.603V269.603Z" fill="#263238"/>
<path d="M156.517 270.452C156.508 270.384 156.508 270.315 156.517 270.247C156.517 270.091 156.517 269.893 156.517 269.652C156.517 269.1 156.517 268.336 156.482 267.359C156.482 265.342 156.482 262.476 156.425 258.937C156.425 258.046 156.425 257.119 156.425 256.149C156.456 255.663 156.386 255.176 156.218 254.719C156.049 254.262 155.787 253.845 155.448 253.495C155.081 253.126 154.637 252.843 154.148 252.666C153.658 252.488 153.136 252.421 152.617 252.469H149.185H139.829C139.201 252.425 138.571 252.537 137.996 252.794C137.418 253.066 136.929 253.497 136.586 254.035C136.242 254.574 136.059 255.199 136.057 255.838C136.057 258.555 136.057 261.202 136.057 263.757V267.529C136.057 268.145 136.057 268.753 136.057 269.355C136.034 269.936 136.056 270.518 136.121 271.096C136.23 271.634 136.469 272.138 136.815 272.564C137.161 272.99 137.605 273.327 138.109 273.545C138.598 273.746 139.124 273.84 139.652 273.821H141.244H147.062H151.86C152.508 273.863 153.158 273.834 153.799 273.736C154.321 273.615 154.806 273.373 155.215 273.028C155.799 272.546 156.214 271.888 156.397 271.153C156.517 270.65 156.503 270.367 156.524 270.374C156.546 270.642 156.527 270.912 156.467 271.174C156.332 271.834 156.011 272.442 155.542 272.926C155.073 273.41 154.476 273.75 153.821 273.906C153.167 274.022 152.502 274.063 151.839 274.026H147.041H141.223H139.631C139.059 274.046 138.49 273.944 137.961 273.729C137.407 273.492 136.918 273.125 136.536 272.66C136.154 272.194 135.89 271.643 135.767 271.054C135.695 270.452 135.669 269.847 135.689 269.242V267.416C135.689 266.184 135.689 264.925 135.689 263.644V255.859C135.689 255.153 135.888 254.462 136.264 253.865C136.639 253.267 137.176 252.788 137.812 252.483C138.435 252.2 139.119 252.079 139.801 252.129H141.74H149.114H152.568C153.129 252.083 153.694 252.16 154.222 252.356C154.751 252.551 155.23 252.861 155.625 253.262C155.988 253.641 156.268 254.092 156.447 254.585C156.626 255.079 156.7 255.604 156.666 256.128C156.666 257.097 156.666 258.024 156.666 258.916C156.666 262.455 156.623 265.321 156.609 267.338C156.609 268.315 156.609 269.079 156.574 269.631C156.574 269.872 156.574 270.07 156.574 270.226C156.566 270.303 156.547 270.38 156.517 270.452V270.452Z" fill="#263238"/>
<path d="M129.419 271.641C129.413 271.577 129.413 271.513 129.419 271.45V270.877C129.419 270.346 129.419 269.61 129.383 268.683C129.383 266.744 129.348 263.998 129.327 260.608C129.327 259.758 129.327 258.86 129.327 257.932V256.517C129.343 256.044 129.315 255.57 129.242 255.102C129.048 254.113 128.484 253.237 127.664 252.653C127.239 252.35 126.758 252.136 126.248 252.023C125.714 251.925 125.17 251.891 124.627 251.924H111.889C111.257 251.895 110.625 251.923 109.999 252.009C109.405 252.148 108.864 252.454 108.44 252.892C108.016 253.33 107.727 253.881 107.607 254.479C107.486 255.063 107.535 255.67 107.748 256.227C107.989 256.775 108.338 257.268 108.775 257.678L113.58 262.865L121.698 271.662L123.347 273.453L123.729 273.87L124.118 274.238C124.259 274.337 124.408 274.429 124.543 274.528L125.003 274.734C125.537 274.922 126.11 274.971 126.668 274.877C127.226 274.783 127.752 274.549 128.194 274.196C128.76 273.744 129.159 273.117 129.327 272.412C129.447 271.931 129.433 271.662 129.454 271.662C129.462 271.728 129.462 271.794 129.454 271.86C129.455 272.05 129.436 272.24 129.398 272.426C129.253 273.166 128.855 273.832 128.272 274.309C127.815 274.691 127.266 274.949 126.68 275.059C126.094 275.168 125.489 275.124 124.925 274.932L124.436 274.712L123.976 274.408L123.552 274.026L123.163 273.615L121.499 271.839L113.297 263.099L108.477 257.925C108.007 257.487 107.631 256.957 107.373 256.368C107.135 255.746 107.081 255.068 107.218 254.415C107.351 253.748 107.673 253.134 108.147 252.646C108.62 252.158 109.224 251.816 109.886 251.662C110.537 251.563 111.196 251.53 111.853 251.563H117.515H124.592C125.161 251.534 125.731 251.572 126.291 251.676C127.095 251.861 127.827 252.276 128.399 252.871C128.971 253.465 129.357 254.213 129.511 255.024C129.583 255.52 129.606 256.023 129.582 256.524C129.582 257.005 129.582 257.479 129.582 257.939C129.582 258.867 129.582 259.765 129.582 260.615C129.582 264.005 129.532 266.751 129.525 268.69C129.525 269.617 129.525 270.353 129.49 270.884V271.457C129.475 271.521 129.451 271.583 129.419 271.641V271.641Z" fill="#263238"/>
<path d="M245.067 244.16L245.973 244.196L247.091 244.252L248.62 244.514C248.926 244.561 249.228 244.639 249.518 244.748L250.509 245.066C250.862 245.207 251.207 245.368 251.542 245.547L252.087 245.816C252.257 245.929 252.427 246.057 252.604 246.184C254.274 247.293 255.48 248.974 255.994 250.912C256.295 252.066 256.372 253.267 256.22 254.45C256.031 255.745 255.619 256.997 255.003 258.152C254.343 259.411 253.507 260.569 252.519 261.591L249.313 264.854C247.098 267.111 244.727 269.518 242.179 272.044C240.905 273.311 239.589 274.599 238.209 275.894C237.501 276.538 236.794 277.196 236.086 277.833C235.347 278.496 234.54 279.08 233.68 279.574C231.888 280.598 229.891 281.21 227.834 281.365C226.779 281.443 225.711 281.4 224.663 281.414H221.443H207.905H178.025H145.017H125.321C124.567 281.428 123.814 281.371 123.07 281.245C121.569 280.981 120.143 280.396 118.888 279.532C118.256 279.102 117.675 278.604 117.154 278.046L115.59 276.418L112.448 273.141L106.17 266.637L103.063 263.403C102.547 262.865 102.023 262.334 101.556 261.747C101.322 261.45 101.067 261.174 100.848 260.869L100.247 259.921L99.9493 259.44L99.7157 258.93L99.2557 257.904L98.9443 256.828L98.7886 256.29L98.7178 255.738C98.4723 254.265 98.5667 252.754 98.9938 251.322C99.4146 249.911 100.14 248.61 101.118 247.509C102.096 246.409 103.304 245.536 104.656 244.953C105.325 244.673 106.019 244.458 106.729 244.309C107.083 244.238 107.437 244.153 107.791 244.096L108.867 244.019C109.574 243.955 110.282 243.983 110.99 243.976H137.607L193.517 244.019L231.21 244.075L241.457 244.111H244.126H245.031H244.126H241.457H231.21L193.517 244.174L137.607 244.21H111.025C110.317 244.21 109.61 244.21 108.902 244.252L107.854 244.323C107.508 244.38 107.147 244.464 106.821 244.528C106.135 244.675 105.465 244.886 104.818 245.158C103.511 245.716 102.342 246.554 101.394 247.613C100.447 248.672 99.7431 249.926 99.3335 251.287C98.9238 252.664 98.8343 254.116 99.0717 255.533L99.1425 256.071L99.2911 256.588L99.5954 257.628L100.041 258.626L100.268 259.121L100.558 259.581L101.138 260.508C101.351 260.806 101.605 261.075 101.846 261.358C102.315 261.93 102.814 262.478 103.339 263C104.365 264.075 105.406 265.123 106.439 266.227L112.716 272.752L115.859 276.029C116.838 277.154 117.923 278.183 119.1 279.1C120.314 279.933 121.692 280.497 123.141 280.756C123.863 280.881 124.596 280.936 125.328 280.919H178.046H207.926H224.685C225.753 280.919 226.808 280.954 227.834 280.884C229.853 280.732 231.813 280.135 233.573 279.136C235.204 278.099 236.711 276.881 238.068 275.505C239.483 274.21 240.771 272.922 242.045 271.669C244.593 269.15 246.999 266.715 249.193 264.5L252.406 261.244C253.388 260.239 254.22 259.098 254.876 257.855C255.484 256.72 255.896 255.49 256.093 254.217C256.242 253.06 256.17 251.886 255.881 250.756C255.381 248.847 254.203 247.184 252.569 246.078L252.059 245.717L251.521 245.448C251.19 245.268 250.85 245.105 250.502 244.96L249.525 244.634C249.237 244.523 248.939 244.442 248.634 244.394L247.112 244.111L246.001 244.04C245.371 244.196 245.067 244.16 245.067 244.16Z" fill="#263238"/>
<path d="M222.101 247.918C222.101 248.017 197.473 248.102 167.098 248.102C136.722 248.102 112.087 248.017 112.087 247.918C112.087 247.819 136.708 247.734 167.098 247.734C197.487 247.734 222.101 247.812 222.101 247.918Z" fill="white"/>
<path d="M153.821 233.785L157.26 233.339C157.826 233.467 171.889 237.465 171.889 237.465L176.687 243.07C176.545 243.357 176.311 243.587 176.022 243.723C175.733 243.859 175.406 243.894 175.095 243.821C174.255 243.703 173.494 243.264 172.972 242.596L170.601 240.268L166.758 238.98L170.898 241.903L174.507 246.255C174.507 246.255 174.394 247.239 173.609 247.43C172.823 247.621 172.009 246.616 172.009 246.616C172.009 246.616 171.832 247.876 170.99 247.982C170.148 248.088 165.972 245.795 165.972 245.795C165.972 245.795 163.057 243.566 163.141 243.736C163.226 243.905 165.47 246.092 165.47 246.092C165.47 246.092 168.86 248.024 168.718 248.661C168.683 248.861 168.606 249.051 168.491 249.218C168.376 249.386 168.227 249.526 168.053 249.631C167.876 249.737 163.651 247.508 162.901 247.225C162.151 246.942 155.611 242.872 155.611 242.872L152.639 239.978L153.821 233.785Z" fill="#FFBF9D"/>
<path d="M164.599 241.577C164.934 241.871 165.314 242.11 165.725 242.285C166.673 242.78 167.595 243.326 168.485 243.92C169.476 244.663 170.296 245.477 170.955 245.986C171.285 246.29 171.669 246.53 172.087 246.694C171.789 246.359 171.465 246.049 171.117 245.767C170.35 245.002 169.542 244.279 168.697 243.601C167.801 242.995 166.854 242.47 165.866 242.03C165.46 241.837 165.036 241.685 164.599 241.577Z" fill="#FF9A6C"/>
<path d="M70.3453 188.788C66.0763 184.438 60.8942 181.091 55.1736 178.988C49.4529 176.886 43.3366 176.08 37.2666 176.63C40.9184 190.558 47.1747 203.162 57.7904 212.851C60.9718 215.866 64.6064 218.364 68.5619 220.254C72.545 222.156 77.0004 222.843 81.3716 222.228C82.1209 216.186 81.5206 210.052 79.6139 204.27C77.7072 198.487 74.5417 193.2 70.3453 188.788V188.788Z" fill="#455A64"/>
<path d="M80.8689 221.513L80.7203 221.435L80.3169 221.195C79.963 220.968 79.4322 220.657 78.7811 220.204C76.9282 218.949 75.1424 217.598 73.4308 216.156C70.9048 214.009 68.4996 211.725 66.2262 209.312C63.6289 206.616 60.9184 203.509 58.1441 200.197L50.3592 190.812C47.953 187.982 45.7307 185.42 43.7987 183.353C41.8666 181.287 40.2601 179.673 39.0923 178.583C38.5262 178.031 38.0661 177.621 37.7689 177.33L37.4292 177.005C37.3584 176.927 37.316 176.885 37.323 176.877C37.3716 176.905 37.4167 176.938 37.4575 176.977L37.8184 177.274C38.1369 177.55 38.6111 177.939 39.1914 178.477C40.3733 179.538 42.0223 181.131 43.9827 183.176C45.943 185.221 48.229 187.741 50.614 190.6C52.999 193.459 55.6459 196.644 58.3989 199.956C61.1519 203.268 63.8625 206.375 66.4386 209.079C68.7104 211.489 71.1032 213.783 73.6077 215.951C75.7309 217.784 77.578 219.171 78.8732 220.084C79.5101 220.551 80.0267 220.876 80.3664 221.124L80.7486 221.4C80.7933 221.433 80.8337 221.471 80.8689 221.513V221.513Z" fill="#263238"/>
<path d="M88.8734 184.889C89.0625 183.756 88.9254 182.593 88.478 181.535C88.0306 180.477 87.2914 179.569 86.3469 178.916C86.1345 178.774 85.8939 178.626 85.8231 178.378C85.7849 178.16 85.8145 177.935 85.9081 177.734C86.1019 177.155 86.1755 176.542 86.1244 175.934C86.0733 175.325 85.8985 174.734 85.6108 174.195C85.3171 173.663 84.8883 173.218 84.3676 172.905C83.847 172.592 83.253 172.422 82.6455 172.412C83.4806 170.742 82.3695 168.512 80.6073 167.882C79.7105 167.614 78.7537 167.622 77.8613 167.904C76.9689 168.187 76.1823 168.732 75.6037 169.468C75.4622 168.913 75.1453 168.419 74.7002 168.06C74.255 167.7 73.7056 167.494 73.1338 167.472C71.9887 167.458 70.8703 167.818 69.949 168.498C68.6751 169.347 67.4933 170.72 67.748 172.235C67.0403 171.612 65.9292 171.803 65.1153 172.235C64.0258 172.905 63.2258 173.958 62.8723 175.187C62.5188 176.417 62.6373 177.734 63.2045 178.88C62.2378 178.944 61.315 179.308 60.5647 179.921C60.2004 180.238 59.9515 180.667 59.8567 181.141C59.762 181.614 59.8268 182.106 60.041 182.539C59.5791 182.427 59.0965 182.433 58.6376 182.557C58.1788 182.681 57.7584 182.918 57.4154 183.247C56.8586 183.649 56.4347 184.209 56.1981 184.853C56.0892 185.18 56.0831 185.532 56.1805 185.863C56.278 186.193 56.4743 186.485 56.743 186.701C56.0701 186.926 55.5143 187.409 55.1977 188.044C54.8812 188.679 54.8299 189.414 55.0551 190.087C55.2804 190.76 55.7637 191.316 56.3987 191.632C57.0338 191.949 57.7686 192 58.4415 191.775C58.2737 192.333 58.2514 192.925 58.3765 193.494C58.5017 194.063 58.7703 194.59 59.1567 195.026C59.5432 195.463 60.0347 195.793 60.5846 195.985C61.1345 196.178 61.7245 196.227 62.2986 196.127C62.2169 196.248 62.1646 196.386 62.1458 196.531C62.1271 196.675 62.1424 196.822 62.1905 196.96C62.2386 197.097 62.3183 197.222 62.4231 197.323C62.5279 197.424 62.6549 197.499 62.794 197.543C63.074 197.614 63.3668 197.617 63.6485 197.553C63.9301 197.489 64.1926 197.36 64.4147 197.175L68.0382 201.931C68.7609 202.997 69.6497 203.941 70.6709 204.726C71.1817 205.119 71.777 205.388 72.4097 205.511C73.0423 205.634 73.6949 205.607 74.3157 205.434" fill="#263238"/>
<path d="M85.3348 180.331C82.2137 176.651 75.1861 175.887 71.6617 179.149L61.0105 190.784L62.5958 192.829L84.1305 216.76L97.6809 209.101L94.2874 204.783C94.2874 204.783 98.5903 200.303 94.804 193.105C92.8932 189.553 88.8167 184.422 85.3348 180.331Z" fill="#FFBF9D"/>
<path d="M87.7766 187.189C87.9372 187.401 88.0093 187.667 87.9776 187.931C87.9459 188.195 87.813 188.436 87.6068 188.604C87.5081 188.693 87.3925 188.761 87.267 188.803C87.1415 188.846 87.0086 188.863 86.8764 188.853C86.7442 188.843 86.6154 188.807 86.4976 188.746C86.3799 188.685 86.2757 188.6 86.1913 188.498C86.0307 188.286 85.9587 188.02 85.9903 187.756C86.022 187.492 86.155 187.251 86.3612 187.083C86.4599 186.994 86.5755 186.927 86.701 186.884C86.8265 186.841 86.9593 186.824 87.0915 186.834C87.2237 186.844 87.3526 186.881 87.4703 186.942C87.588 187.003 87.6922 187.087 87.7766 187.189V187.189Z" fill="#263238"/>
<path d="M86.2478 183.905C86.2478 184.089 85.257 184.096 84.3724 184.754C83.4877 185.413 83.1763 186.347 82.9994 186.304C82.8225 186.262 82.872 186.021 82.9994 185.597C83.1857 185.047 83.5365 184.567 84.0044 184.224C84.4624 183.876 85.0215 183.687 85.5967 183.686C86.0426 183.7 86.262 183.834 86.2478 183.905Z" fill="#263238"/>
<path d="M80.2534 193.381C80.4158 193.593 80.4889 193.859 80.4572 194.124C80.4254 194.388 80.2913 194.63 80.0836 194.797C79.9844 194.885 79.8685 194.952 79.7427 194.994C79.6169 195.036 79.4839 195.053 79.3517 195.042C79.2195 195.032 79.0908 194.994 78.9733 194.933C78.8558 194.871 78.752 194.786 78.6681 194.684C78.5075 194.472 78.4355 194.206 78.4672 193.942C78.4988 193.678 78.6318 193.436 78.838 193.268C78.9371 193.18 79.0531 193.113 79.1789 193.071C79.3046 193.029 79.4376 193.012 79.5698 193.023C79.7021 193.034 79.8308 193.071 79.9483 193.132C80.0657 193.194 80.1695 193.279 80.2534 193.381V193.381Z" fill="#263238"/>
<path d="M77.8401 190.728C77.8401 190.912 76.8493 190.912 75.9646 191.577C75.08 192.242 74.7686 193.162 74.5917 193.127C74.4147 193.091 74.4643 192.844 74.5917 192.419C74.7767 191.866 75.1276 191.385 75.5966 191.039C76.0579 190.697 76.615 190.509 77.189 190.501C77.6136 190.515 77.8543 190.643 77.8401 190.728Z" fill="#263238"/>
<path d="M85.802 194.747C86.1593 194.253 86.5778 193.806 87.0475 193.417C87.2528 193.226 87.4368 193.021 87.3589 192.837C87.2811 192.653 87.0122 192.461 86.7078 192.277L84.7475 191.046C81.9803 189.284 79.7934 187.762 79.8713 187.649C79.9491 187.536 82.2421 188.88 85.0093 190.65L86.9414 191.909C87.2245 192.108 87.5854 192.284 87.7269 192.709C87.7535 192.814 87.7558 192.923 87.7337 193.028C87.7116 193.134 87.6657 193.233 87.5996 193.318C87.5048 193.448 87.3902 193.563 87.2599 193.657C86.824 194.083 86.3338 194.45 85.802 194.747V194.747Z" fill="#263238"/>
<path d="M87.0263 197.168C86.6996 197.082 86.3565 197.079 86.0287 197.161C85.701 197.243 85.399 197.406 85.1509 197.635C84.9703 197.8 84.8242 198 84.7209 198.222C84.6177 198.445 84.5594 198.685 84.5493 198.93C84.5427 199.165 84.6066 199.396 84.7328 199.594C84.8589 199.792 85.0415 199.948 85.257 200.041C85.5233 200.102 85.8019 200.08 86.0552 199.978C86.3084 199.875 86.5239 199.697 86.6724 199.468C86.9807 199.007 87.1947 198.49 87.3023 197.946C87.3448 197.802 87.3639 197.651 87.3589 197.5C87.354 197.427 87.3281 197.357 87.2841 197.298C87.2402 197.239 87.1802 197.193 87.1112 197.168" fill="#FF9A6C"/>
<path d="M83.6578 197.281C83.7922 197.168 84.5141 198.13 85.8517 198.201C87.1893 198.272 88.1235 197.401 88.2367 197.536C88.3499 197.67 88.1447 197.89 87.7201 198.243C87.1649 198.673 86.4751 198.891 85.7738 198.859C85.0977 198.826 84.4608 198.532 83.9975 198.038C83.6578 197.663 83.587 197.345 83.6578 197.281Z" fill="#263238"/>
<path d="M75.7383 187.373C75.8303 187.677 74.8607 188.222 73.9194 189.121C72.9782 190.02 72.3483 190.926 72.044 190.812C71.9095 190.756 71.8812 190.423 72.044 189.935C72.2799 189.309 72.6578 188.747 73.148 188.293C73.6325 187.833 74.2197 187.496 74.8607 187.309C75.3561 187.168 75.6887 187.21 75.7383 187.373Z" fill="#263238"/>
<path d="M84.0043 181.584C84.0043 181.895 83.2329 182.143 82.4898 182.681C81.7467 183.219 81.2372 183.82 80.9399 183.721C80.7984 183.664 80.7488 183.388 80.8762 183.013C81.0687 182.513 81.407 182.081 81.8473 181.774C82.2876 181.468 82.8097 181.3 83.3462 181.294C83.7566 181.287 83.9973 181.428 84.0043 181.584Z" fill="#263238"/>
<path d="M77.1677 174.889C77.82 175.319 78.3275 175.936 78.6238 176.659C78.9201 177.382 78.9915 178.177 78.8287 178.942C78.666 179.706 78.2765 180.403 77.7113 180.943C77.1461 181.482 76.4313 181.839 75.6603 181.966C76.0205 182.047 76.3384 182.258 76.5537 182.558C76.7689 182.858 76.8665 183.226 76.828 183.594C76.7193 184.33 76.3252 184.993 75.7311 185.441C75.1347 185.937 74.4386 186.298 73.69 186.501C72.9413 186.704 72.1578 186.743 71.3928 186.616C71.7007 187.156 71.876 187.762 71.9042 188.383C71.9324 189.004 71.8127 189.623 71.5549 190.189C71.2972 190.755 70.9088 191.251 70.4217 191.638C69.9346 192.024 69.3626 192.29 68.753 192.412C69.3102 192.477 69.8445 192.672 70.3134 192.98C70.7824 193.288 71.173 193.701 71.4543 194.187C71.7357 194.672 71.9 195.217 71.9342 195.777C71.9684 196.337 71.8715 196.897 71.6513 197.413C71.4311 197.929 71.0937 198.387 70.6657 198.75C70.2377 199.112 69.7311 199.371 69.1859 199.503C68.6408 199.636 68.0722 199.64 67.5253 199.515C66.9784 199.389 66.4682 199.138 66.0353 198.781C65.4304 198.927 64.8 198.932 64.193 198.795C63.5861 198.658 63.0187 198.383 62.535 197.992C62.0512 197.6 61.664 197.103 61.4034 196.538C61.1427 195.973 61.0156 195.355 61.0318 194.733C60.6241 194.851 60.1929 194.86 59.7807 194.759C59.3686 194.658 58.9899 194.452 58.6821 194.16C58.0715 193.565 57.6274 192.821 57.3941 192.001C57.0324 191.029 56.8704 189.994 56.9179 188.958C56.9653 187.922 57.2211 186.907 57.6701 185.972C58.1418 185.048 58.8809 184.288 59.7912 183.79C60.7014 183.293 61.7405 183.081 62.7728 183.183C63.0026 183.259 63.2506 183.259 63.4805 183.183C63.6063 183.086 63.7071 182.96 63.7748 182.816C63.8425 182.672 63.875 182.514 63.8697 182.355C64.0325 180.94 64.1882 179.454 65.0516 178.335C65.5948 177.672 66.3467 177.212 67.1846 177.031C68.0226 176.85 68.8972 176.958 69.6659 177.338C69.5398 176.394 69.7217 175.435 70.1847 174.604C70.6476 173.773 71.3667 173.113 72.2349 172.723C74.0042 172.015 76.3326 173.162 76.6582 175.03" fill="#263238"/>
<path d="M69.4962 199.694C69.3901 199.694 65.4127 200.975 67.8119 204.294C70.211 207.614 73.0419 204.542 72.9782 204.443C72.9145 204.344 69.4962 199.694 69.4962 199.694Z" fill="#FFBF9D"/>
<path d="M71.0602 203.912C71.0602 203.912 71.0602 203.99 70.9682 204.11C70.8734 204.268 70.7211 204.382 70.5436 204.429C70.2334 204.449 69.9235 204.387 69.6443 204.251C69.3651 204.114 69.1263 203.907 68.9512 203.65C68.7379 203.373 68.5902 203.052 68.5195 202.709C68.4742 202.583 68.4608 202.448 68.4806 202.316C68.5003 202.184 68.5526 202.059 68.6328 201.952C68.6857 201.886 68.7604 201.841 68.8435 201.826C68.9266 201.81 69.0125 201.825 69.0857 201.867C69.1989 201.924 69.2202 202.009 69.2414 202.001C69.2626 201.994 69.2414 201.895 69.1494 201.775C69.0709 201.706 68.9709 201.666 68.8663 201.662C68.7278 201.66 68.5937 201.71 68.4912 201.803C68.3737 201.929 68.2905 202.083 68.2496 202.25C68.2087 202.418 68.2115 202.593 68.2577 202.759C68.3239 203.148 68.4843 203.515 68.7248 203.827C68.9238 204.134 69.208 204.375 69.5424 204.522C69.8768 204.67 70.247 204.716 70.6073 204.655C70.7143 204.617 70.8113 204.556 70.891 204.475C70.9707 204.394 71.031 204.296 71.0673 204.188C71.1098 203.997 71.0744 203.912 71.0602 203.912Z" fill="#FF9A6C"/>
<path d="M70.7489 186.078L70.8692 186.028L71.2089 185.844C71.6297 185.608 72.0175 185.318 72.3625 184.981C72.6146 184.739 72.8315 184.462 73.0065 184.16C73.2259 183.81 73.366 183.416 73.417 183.006C73.4794 182.528 73.4235 182.042 73.2542 181.591C73.0648 181.088 72.7004 180.671 72.228 180.416V180.586C73.3902 180.566 74.5139 180.166 75.4269 179.447C75.9293 179.055 76.3562 178.575 76.6867 178.031C76.8647 177.75 76.9961 177.441 77.0759 177.118C77.1748 176.783 77.1748 176.427 77.0759 176.092C76.9424 175.713 76.7274 175.367 76.446 175.08C76.1798 174.804 75.8936 174.549 75.5897 174.316C75.3001 174.074 74.9756 173.879 74.6272 173.735C74.4543 173.655 74.2659 173.613 74.0752 173.613C73.8845 173.613 73.6961 173.655 73.5232 173.735L73.601 173.919C74.2774 173.671 74.8523 173.206 75.2358 172.596C75.5885 172.046 75.782 171.409 75.7949 170.756C75.8014 170.173 75.6339 169.601 75.3137 169.114C75.04 168.702 74.6803 168.354 74.2592 168.095C73.663 167.722 72.9649 167.546 72.2634 167.592C72.0201 167.607 71.7809 167.662 71.5557 167.755C71.7897 167.709 72.0259 167.676 72.2634 167.656C72.9433 167.638 73.6126 167.828 74.1813 168.201C74.5846 168.454 74.9276 168.792 75.1863 169.192C75.4821 169.659 75.6323 170.203 75.618 170.756C75.5996 171.375 75.411 171.977 75.0731 172.497C74.7115 173.069 74.1681 173.502 73.5302 173.728L73.6152 173.912C73.7609 173.842 73.9205 173.805 74.0823 173.805C74.244 173.805 74.4037 173.842 74.5493 173.912C74.8779 174.049 75.1834 174.235 75.4552 174.464C76.0768 174.874 76.568 175.454 76.8707 176.134C76.9483 176.437 76.9581 176.753 76.8994 177.061C76.8407 177.368 76.7149 177.658 76.531 177.911C76.0786 178.649 75.4498 179.263 74.7011 179.698C73.9525 180.133 73.1075 180.375 72.2422 180.402H71.8176L72.1502 180.565C72.5897 180.794 72.9296 181.177 73.1056 181.64C73.2799 182.066 73.3479 182.527 73.3038 182.985C73.2577 183.378 73.1299 183.756 72.9287 184.096C72.7613 184.39 72.5567 184.661 72.32 184.903C71.976 185.245 71.5937 185.547 71.1806 185.802C71.0301 185.883 70.8859 185.975 70.7489 186.078V186.078Z" fill="white"/>
<path d="M79.7865 177.104C79.7865 177.104 79.8926 177.104 80.0837 177.047C80.3451 176.953 80.5856 176.809 80.7914 176.623C81.1137 176.35 81.3436 175.984 81.4496 175.575C81.5187 175.317 81.4831 175.043 81.3505 174.811C81.2759 174.681 81.1653 174.576 81.0321 174.509C80.899 174.441 80.7489 174.413 80.6003 174.429L80.6499 174.627H80.7206C81.1602 174.457 81.5571 174.193 81.8835 173.853C82.21 173.513 82.458 173.106 82.6102 172.66C82.7029 172.393 82.7531 172.114 82.7589 171.831C82.7752 171.731 82.7752 171.628 82.7589 171.527C82.7055 171.895 82.6178 172.258 82.497 172.61C82.3348 173.023 82.0897 173.397 81.7769 173.711C81.464 174.026 81.0901 174.272 80.6782 174.436H80.6145L79.6732 174.804L80.664 174.634C80.773 174.626 80.8819 174.649 80.9783 174.701C81.0747 174.752 81.1546 174.829 81.209 174.924C81.3141 175.111 81.3444 175.331 81.2939 175.54C81.2043 175.917 81.0048 176.26 80.7206 176.524C80.4419 176.765 80.1266 176.961 79.7865 177.104Z" fill="white"/>
<path d="M82.6315 217.501C82.6315 217.501 89.6379 216.538 93.3251 213.7C95.4001 212.161 97.3674 210.482 99.2133 208.675L97.3449 208.286C97.3449 208.286 92.3484 213.615 83.1339 215.922L82.6315 217.501Z" fill="#E0E0E0"/>
<path d="M83.7777 216.743C83.7731 216.827 83.7588 216.91 83.7353 216.991C83.6793 217.232 83.606 217.468 83.5159 217.699C83.1765 218.534 82.6681 219.291 82.0226 219.921C81.5751 220.364 81.0677 220.743 80.5152 221.046C80.3417 221.159 80.1325 221.205 79.9277 221.174C79.8186 221.141 79.7196 221.081 79.6403 220.999C79.561 220.917 79.504 220.817 79.4748 220.706C79.4187 220.299 79.5172 219.885 79.7508 219.546C80.1438 218.792 80.6837 218.124 81.3389 217.582C81.994 217.04 82.7511 216.634 83.5654 216.389L84.9809 215.986L83.7423 216.694C83.2969 216.957 82.8217 217.166 82.3269 217.316C80.5327 217.768 78.6694 217.876 76.835 217.635C76.5817 217.648 76.3318 217.573 76.1273 217.423C76.0704 217.373 76.026 217.31 75.9977 217.24C75.9695 217.17 75.9581 217.095 75.9645 217.019C75.9744 216.887 76.0237 216.762 76.1061 216.658C76.2412 216.485 76.4159 216.347 76.6156 216.255C76.7869 216.161 76.9642 216.078 77.1464 216.007C77.9493 215.683 78.8094 215.523 79.6753 215.539C80.5411 215.555 81.3949 215.745 82.1854 216.099C82.4321 216.214 82.6689 216.349 82.8931 216.503C83.0488 216.609 83.1266 216.672 83.1196 216.687C83.1125 216.701 82.7728 216.488 82.1146 216.234C81.1922 215.873 80.1999 215.728 79.2129 215.809C78.5373 215.86 77.8748 216.022 77.2526 216.29C76.9122 216.401 76.6038 216.593 76.3538 216.849C76.2547 216.991 76.2476 217.104 76.3538 217.182C76.4989 217.268 76.6668 217.307 76.835 217.295C78.6259 217.507 80.4404 217.397 82.1924 216.97C82.652 216.824 83.0937 216.627 83.5088 216.382L83.6574 216.715C82.1047 217.176 80.7988 218.235 80.0268 219.659C79.8365 219.927 79.7418 220.251 79.7579 220.579C79.7721 220.639 79.8007 220.696 79.8414 220.742C79.8821 220.789 79.9336 220.825 79.9914 220.848C80.1243 220.861 80.2576 220.826 80.3665 220.749C80.9041 220.474 81.3997 220.123 81.8386 219.709C82.4818 219.106 83.0032 218.385 83.3743 217.585C83.6574 217.097 83.7494 216.736 83.7777 216.743Z" fill="#E0E0E0"/>
<path d="M81.7538 222.412C81.7538 222.412 81.7042 222.412 81.591 222.412L81.1027 222.447C80.671 222.447 80.0411 222.547 79.2202 222.504C76.9063 222.469 74.6064 222.139 72.3765 221.52C69.0692 220.594 65.9149 219.19 63.0134 217.352C59.4641 215.113 56.2559 212.374 53.4875 209.22C50.7286 206.056 48.2981 202.62 46.2334 198.965C44.5356 195.993 43.0183 192.92 41.6899 189.765C40.5575 187.076 39.7578 184.853 39.2412 183.304C38.9793 182.532 38.8024 181.888 38.675 181.513L38.5405 181.039C38.5329 180.985 38.5329 180.93 38.5405 180.876C38.571 180.925 38.5948 180.977 38.6113 181.032L38.7811 181.485C38.9368 181.916 39.1492 182.511 39.411 183.254C39.9701 184.783 40.8265 186.991 41.9659 189.659C43.3204 192.789 44.8564 195.837 46.566 198.788C48.6343 202.414 51.0571 205.825 53.7989 208.973C56.5335 212.11 59.6976 214.845 63.1974 217.097C66.0671 218.928 69.1812 220.343 72.4473 221.301C74.6547 221.937 76.9316 222.3 79.2272 222.384C80.0411 222.455 80.6427 222.384 81.1027 222.384H81.591L81.7538 222.412Z" fill="#263238"/>
<path d="M288.45 157.337C288.535 155.589 287.876 153.905 287.331 152.242C286.787 150.579 286.319 148.781 286.787 147.097C287.374 144.974 289.285 143.501 290.325 141.555C291.365 139.609 291.429 137.309 291.606 135.094C291.783 132.879 292.165 130.557 293.623 128.901C295.47 126.778 300.311 126.417 302.59 128.038C302.944 140.564 305.909 153.254 303.234 165.497C297.08 165.738 290.98 164.268 285.612 161.251C287.31 160.94 288.372 159.064 288.45 157.337Z" fill="#263238"/>
<path d="M315.152 169.453L316.879 134.86C316.913 134.189 316.693 133.529 316.263 133.012C315.833 132.496 315.224 132.16 314.557 132.072L300.439 128.073C295.895 127.465 292.71 132.985 292.293 137.55C291.826 142.617 291.458 148.831 291.953 152.631C292.944 160.289 298.761 161.428 298.761 161.428C298.761 168.965 298.598 169.524 298.598 169.524L301.479 175.455L315.152 169.453Z" fill="#FFBF9D"/>
<path d="M293.991 143.877C293.979 144.131 294.069 144.381 294.24 144.57C294.411 144.76 294.649 144.874 294.904 144.889C295.028 144.902 295.153 144.891 295.273 144.855C295.392 144.82 295.503 144.761 295.6 144.682C295.696 144.603 295.775 144.505 295.833 144.395C295.891 144.284 295.927 144.164 295.937 144.039C295.945 143.785 295.855 143.537 295.685 143.347C295.515 143.157 295.278 143.04 295.024 143.02C294.9 143.007 294.774 143.018 294.654 143.054C294.534 143.09 294.423 143.15 294.326 143.23C294.23 143.309 294.151 143.408 294.093 143.519C294.035 143.63 294.001 143.752 293.991 143.877V143.877Z" fill="#263238"/>
<path d="M293.545 140.819C293.665 140.954 294.423 140.423 295.47 140.458C296.518 140.494 297.282 141.039 297.395 140.911C297.508 140.784 297.339 140.621 297.006 140.366C296.56 140.037 296.024 139.854 295.47 139.843C294.923 139.826 294.385 139.985 293.934 140.296C293.602 140.536 293.489 140.763 293.545 140.819Z" fill="#263238"/>
<path d="M302.909 144.202C302.897 144.457 302.986 144.706 303.157 144.896C303.328 145.085 303.567 145.2 303.822 145.214C303.946 145.227 304.071 145.215 304.191 145.178C304.31 145.142 304.421 145.082 304.518 145.002C304.614 144.923 304.693 144.825 304.751 144.714C304.809 144.603 304.844 144.482 304.855 144.358C304.866 144.103 304.777 143.854 304.606 143.664C304.435 143.475 304.197 143.36 303.942 143.346C303.818 143.333 303.692 143.345 303.573 143.382C303.453 143.418 303.342 143.478 303.246 143.557C303.15 143.637 303.07 143.735 303.012 143.846C302.955 143.957 302.919 144.078 302.909 144.202Z" fill="#263238"/>
<path d="M303.878 141.308C303.998 141.442 304.756 140.911 305.803 140.947C306.85 140.982 307.608 141.527 307.728 141.4C307.848 141.272 307.671 141.109 307.339 140.855C306.892 140.529 306.356 140.349 305.803 140.338C305.257 140.32 304.719 140.476 304.267 140.784C303.935 141.024 303.821 141.251 303.878 141.308Z" fill="#263238"/>
<path d="M299.837 149C299.287 148.813 298.717 148.694 298.138 148.647C297.869 148.611 297.622 148.547 297.579 148.363C297.565 148.085 297.637 147.808 297.784 147.571L298.634 145.547C299.823 142.666 300.686 140.296 300.573 140.253C300.46 140.211 299.398 142.504 298.209 145.384C297.926 146.092 297.65 146.799 297.395 147.415C297.214 147.735 297.154 148.109 297.225 148.47C297.261 148.566 297.318 148.652 297.393 148.723C297.468 148.793 297.559 148.844 297.657 148.873C297.804 148.917 297.956 148.943 298.11 148.951C298.681 149.038 299.261 149.054 299.837 149V149Z" fill="#263238"/>
<path d="M298.761 161.428C302.348 161.583 305.908 160.741 309.044 158.993C309.497 157.939 306.999 162.794 298.719 163.424L298.761 161.428Z" fill="#FF8262"/>
<path d="M299.922 151.506C300.168 151.164 300.494 150.888 300.872 150.702C301.249 150.516 301.667 150.425 302.087 150.437C302.362 150.448 302.629 150.526 302.866 150.664C303.102 150.802 303.302 150.997 303.446 151.23C303.609 151.499 303.685 151.812 303.665 152.126C303.645 152.44 303.53 152.74 303.334 152.986C303.138 153.233 302.872 153.413 302.571 153.504C302.27 153.595 301.948 153.592 301.649 153.494C301.068 153.286 300.546 152.942 300.127 152.489C299.993 152.38 299.884 152.242 299.809 152.086C299.77 152 299.755 151.906 299.765 151.813C299.775 151.72 299.81 151.631 299.865 151.555" fill="#FF8262"/>
<path d="M302.916 149.814C302.746 149.814 302.71 150.94 301.705 151.725C300.7 152.511 299.497 152.348 299.483 152.504C299.469 152.659 299.745 152.737 300.262 152.765C300.929 152.791 301.585 152.583 302.116 152.178C302.623 151.782 302.96 151.208 303.057 150.572C303.114 150.097 302.993 149.814 302.916 149.814Z" fill="#263238"/>
<path d="M303.538 136.969C303.63 137.252 304.685 137.146 305.916 137.33C307.147 137.514 308.131 137.882 308.301 137.627C308.379 137.507 308.216 137.238 307.82 136.92C307.297 136.559 306.695 136.329 306.065 136.247C305.435 136.153 304.793 136.209 304.189 136.41C303.729 136.608 303.496 136.828 303.538 136.969Z" fill="#E0E0E0"/>
<path d="M294.019 137.21C294.196 137.458 294.925 137.21 295.803 137.21C296.68 137.21 297.402 137.415 297.579 137.21C297.657 137.09 297.579 136.849 297.232 136.608C296.809 136.323 296.31 136.17 295.799 136.17C295.289 136.17 294.789 136.323 294.366 136.608C294.048 136.849 293.941 137.125 294.019 137.21Z" fill="#263238"/>
<path d="M298.754 128.024C300.063 124.896 302.894 124.23 305.93 123.905C308.967 123.579 313.468 124.839 315.973 126.481C318.063 127.75 319.941 129.34 321.536 131.194C322.88 132.928 323.482 134.917 324.317 136.913C325.612 140.034 325.534 143.48 325.732 146.821C325.963 151.032 326.636 155.207 327.742 159.276C328.139 160.734 328.542 162.482 326.475 163.325C326.089 163.474 325.684 163.572 325.272 163.615C322.059 164.004 318.952 165.03 315.364 165.271H313.156C310.368 165.271 308.91 163.473 309.037 161.194C309.32 154.308 312.682 143.006 313.05 140.833C313.057 140.833 314.218 125.985 298.754 128.024Z" fill="#263238"/>
<path d="M299.773 127.925C300.24 128.313 300.623 128.793 300.898 129.334C301.173 129.876 301.335 130.468 301.373 131.074C301.535 132.277 301.472 133.501 301.691 134.69C301.928 135.883 302.447 137.001 303.206 137.95C303.964 138.9 304.94 139.653 306.051 140.147C306.758 140.458 307.735 140.579 308.174 139.942C308.145 140.786 308.374 141.62 308.828 142.333C309.283 143.045 309.943 143.603 310.722 143.933C311.847 144.386 313.114 144.315 314.303 144.577C315.492 144.839 316.737 145.66 316.801 146.877L317.296 138.385L314.918 130.904L307.608 126.552L299.773 127.925Z" fill="#263238"/>
<path d="M312.724 141.895C312.472 141.728 312.235 141.538 312.017 141.329C311.468 140.723 311.073 139.995 310.863 139.206C310.569 138.026 310.399 136.818 310.354 135.603C310.297 134.106 310.124 132.615 309.837 131.145C309.543 129.658 308.856 128.278 307.848 127.146C307.393 126.665 306.85 126.276 306.249 126C305.722 125.768 305.159 125.63 304.586 125.589C303.751 125.522 302.916 125.72 302.201 126.155C302.09 126.227 301.984 126.305 301.882 126.389C301.806 126.443 301.737 126.508 301.677 126.58C301.617 126.634 301.563 126.693 301.514 126.757C301.735 126.554 301.972 126.37 302.222 126.205C302.934 125.798 303.755 125.62 304.572 125.695C305.785 125.791 306.918 126.342 307.742 127.238C308.726 128.359 309.397 129.718 309.688 131.18C309.975 132.641 310.15 134.122 310.212 135.61C310.265 136.834 310.448 138.049 310.757 139.234C310.979 140.032 311.397 140.762 311.974 141.357C312.19 141.58 312.444 141.763 312.724 141.895V141.895Z" fill="white"/>
<path d="M319.08 140.876C318.696 140.834 318.32 140.742 317.962 140.6C317.012 140.139 316.205 139.43 315.626 138.547C315.208 137.954 314.848 137.321 314.55 136.658C314.237 135.886 314.037 135.073 313.956 134.244C313.85 133.374 313.814 132.44 313.715 131.484C313.665 130.994 313.587 130.508 313.482 130.026C313.364 129.54 313.2 129.066 312.993 128.611C312.175 126.833 310.717 125.428 308.91 124.676C307.434 124.074 305.803 123.965 304.26 124.365C303.231 124.62 302.267 125.087 301.429 125.738C301.119 125.974 300.834 126.242 300.58 126.537L300.637 126.488L300.807 126.332C300.877 126.269 300.962 126.184 301.075 126.092C301.189 126 301.309 125.893 301.465 125.787C302.306 125.154 303.27 124.704 304.296 124.464C305.816 124.086 307.418 124.202 308.867 124.796C310.626 125.541 312.049 126.907 312.866 128.632C313.068 129.088 313.227 129.562 313.34 130.048C313.441 130.515 313.519 130.988 313.574 131.463C313.673 132.419 313.715 133.346 313.821 134.223C313.91 135.065 314.119 135.89 314.444 136.672C314.747 137.339 315.114 137.974 315.541 138.569C316.133 139.462 316.965 140.171 317.94 140.614C318.209 140.719 318.489 140.79 318.775 140.826H319.002L319.08 140.876Z" fill="#455A64"/>
<path d="M308.167 139.956V140.027V140.239C308.167 140.331 308.167 140.451 308.209 140.586L308.308 141.046C308.415 141.468 308.577 141.875 308.789 142.256C309.082 142.761 309.475 143.202 309.943 143.551C311.24 144.401 312.788 144.783 314.331 144.634C315.249 144.595 316.161 144.455 317.049 144.216C318.02 143.973 318.954 143.597 319.823 143.098L320 142.999H319.802C318.694 142.839 317.62 142.504 316.617 142.008H316.56L316.518 142.15C318.784 142.515 321.108 142.098 323.107 140.968L323.241 140.89L323.092 140.848C321.684 140.421 320.362 139.75 319.186 138.866C318.411 138.301 317.788 137.553 317.373 136.688C316.958 135.824 316.764 134.87 316.808 133.912C316.808 133.664 316.808 133.459 316.857 133.317V133.112C316.856 133.129 316.856 133.145 316.857 133.162V133.317C316.857 133.459 316.815 133.657 316.787 133.912C316.748 134.67 316.851 135.428 317.091 136.148C317.502 137.245 318.21 138.206 319.136 138.923C320.319 139.823 321.651 140.509 323.071 140.947V140.819C321.097 141.931 318.804 142.34 316.567 141.98L316.079 141.895L316.525 142.114H316.581C317.599 142.612 318.688 142.949 319.809 143.112V142.978C318.951 143.466 318.033 143.837 317.077 144.082C316.198 144.321 315.297 144.466 314.387 144.513C312.869 144.664 311.343 144.3 310.056 143.48C309.592 143.143 309.202 142.714 308.91 142.22C308.693 141.847 308.524 141.447 308.407 141.032C308.407 140.862 308.336 140.706 308.301 140.579C308.266 140.451 308.266 140.331 308.252 140.239L308.216 140.027L308.167 139.956Z" fill="#455A64"/>
<path d="M323.836 160.791C323.878 160.791 323.418 156.715 322.802 151.697C322.187 146.679 321.67 142.61 321.628 142.61C321.585 142.61 322.052 146.686 322.661 151.711C323.269 156.736 323.772 160.798 323.836 160.791Z" fill="#455A64"/>
<path d="M248.987 251.414C248.423 251.95 247.775 252.389 247.07 252.717C246.746 252.8 246.406 252.796 246.085 252.704C245.764 252.612 245.473 252.435 245.244 252.193L246.489 250.827C246.089 251.298 245.54 251.618 244.932 251.733C244.79 251.782 244.639 251.8 244.489 251.788C244.339 251.776 244.193 251.733 244.06 251.662C243.927 251.591 243.81 251.493 243.717 251.375C243.623 251.257 243.555 251.121 243.517 250.976C243.517 250.976 245.782 248.64 246.581 247.685C246.751 247.578 251.266 242.773 251.719 242.603L259.582 239.638L265.619 231.818L275.046 236.205C275.046 236.205 266.956 244.231 265.803 245.689C264.649 247.147 258.726 249.772 258.726 249.772L255.336 250.657L251.995 253.332C251.337 253.764 250.325 254.075 249.794 253.226C248.641 254.04 247.494 252.901 247.494 252.901L248.987 251.414Z" fill="#FFBF9D"/>
<path d="M250.615 249.765C249.429 250.647 248.384 251.704 247.515 252.901C248.701 252.019 249.747 250.961 250.615 249.765V249.765Z" fill="#C17560"/>
<path d="M251.712 245.236C250.84 246.364 249.894 247.432 248.881 248.435C247.964 249.523 246.973 250.547 245.916 251.499C246.697 250.304 247.601 249.194 248.612 248.187C249.536 247.094 250.575 246.105 251.712 245.236V245.236Z" fill="#FF8262"/>
<path d="M254.359 246.998C253.484 247.955 252.522 248.83 251.486 249.61C250.526 250.483 249.486 251.262 248.379 251.938C250.211 250.101 252.213 248.443 254.359 246.984V246.998Z" fill="#FF8262"/>
<path d="M327.374 176.509C329.561 178.489 331.023 181.141 331.529 184.047C333.036 192.73 336.171 211.131 335.994 213.12C335.754 215.731 334.444 219.893 331.479 220.607C329.601 221.028 327.653 221.028 325.775 220.607L323.701 173.19L327.374 176.509Z" fill="white"/>
<path d="M327.289 221.277L327.253 177.041C327.253 177.041 326.578 175.232 323.833 172.581C322.574 171.364 316.608 167.428 316.608 167.428L316.103 164.509C313.81 163.043 311.112 162.25 308.345 162.228C300.473 162.329 295.701 165.659 295.701 165.659L294.926 168.545L291.079 169.588L284.835 193.764L282.638 226.652L276.167 293.739L333.703 292.98L332.004 248.555C331.835 244.172 331.285 239.809 330.361 235.511L327.289 221.277Z" fill="white"/>
<path d="M295.322 169.291L295.534 169.241L296.15 169.078C296.68 168.944 297.459 168.76 298.429 168.576C300.95 168.109 303.498 167.795 306.058 167.635C308.616 167.447 311.185 167.447 313.744 167.635C314.727 167.72 315.513 167.847 316.058 167.939L316.681 168.066C316.753 168.078 316.827 168.078 316.9 168.066L316.688 168.003L316.072 167.847C315.308 167.682 314.535 167.559 313.758 167.479C311.195 167.248 308.618 167.221 306.051 167.401C303.481 167.562 300.925 167.895 298.4 168.399C297.431 168.604 296.659 168.809 296.128 168.965L295.527 169.156C295.385 169.255 295.315 169.284 295.322 169.291Z" fill="#263238"/>
<g opacity="0.3">
<path opacity="0.3" d="M316.759 168.08C310.283 169.227 303.722 168.08 296.872 168.901C303.489 167.536 310.375 166.884 316.759 168.08Z" fill="black"/>
</g>
<path d="M327.494 180.345C327.586 180.345 327.629 190.098 327.579 202.129C327.53 214.16 327.417 223.919 327.318 223.919C327.219 223.919 327.176 214.167 327.226 202.129C327.275 190.091 327.374 180.345 327.494 180.345Z" fill="#263238"/>
<path d="M288.502 293.739C288.494 293.654 288.494 293.569 288.502 293.484C288.502 293.296 288.502 293.047 288.502 292.724C288.502 292.052 288.548 291.063 288.588 289.819C288.681 287.277 288.814 283.632 288.98 279.14C289.339 270.102 289.844 257.654 290.396 243.902C290.948 230.15 291.519 217.676 291.905 208.671C292.117 204.179 292.284 200.534 292.403 197.993C292.47 196.748 292.523 195.773 292.556 195.094C292.556 194.771 292.596 194.523 292.603 194.341C292.593 194.254 292.593 194.166 292.603 194.079C292.607 194.166 292.607 194.254 292.603 194.341C292.603 194.529 292.603 194.778 292.603 195.094C292.603 195.767 292.556 196.755 292.516 197.999C292.423 200.541 292.29 204.186 292.124 208.678C291.758 217.716 291.26 230.164 290.708 243.923C290.157 257.681 289.585 270.149 289.193 279.153C288.987 283.646 288.814 287.29 288.701 289.826C288.635 291.07 288.581 292.045 288.548 292.731C288.548 293.047 288.508 293.296 288.502 293.484C288.511 293.569 288.511 293.655 288.502 293.739Z" fill="#263238"/>
<path d="M327.317 223.919C327.025 224.018 326.724 224.092 326.419 224.139C325.845 224.259 325.003 224.401 323.949 224.556C321.217 224.945 318.463 225.144 315.704 225.151C312.945 225.151 310.189 224.952 307.459 224.556C306.411 224.408 305.569 224.259 304.989 224.132C304.684 224.096 304.384 224.022 304.097 223.912C304.404 223.911 304.709 223.94 305.01 223.997C305.598 224.082 306.426 224.188 307.494 224.309C310.22 224.623 312.96 224.784 315.704 224.79C318.45 224.778 321.193 224.615 323.92 224.302L326.397 223.997C326.701 223.939 327.009 223.913 327.317 223.919V223.919Z" fill="#263238"/>
<path d="M316.9 168.116L317.056 168.187L317.494 168.413C317.876 168.618 318.428 168.937 319.122 169.39C321.066 170.684 322.924 172.102 324.685 173.636C325.91 174.682 327.073 175.8 328.167 176.984C328.789 177.643 329.339 178.367 329.809 179.142C330.035 179.561 330.229 179.996 330.389 180.444C330.53 180.897 330.693 181.357 330.828 181.824C331.903 185.582 332.746 189.786 333.567 194.209C334.388 198.633 335.024 202.865 335.52 206.736C335.76 208.668 335.973 210.508 336.114 212.235C336.313 213.857 336.129 215.503 335.576 217.04C335.058 218.302 334.121 219.347 332.923 219.999C332.026 220.471 331.053 220.78 330.049 220.912C329.422 221.01 328.786 221.043 328.153 221.011C327.933 221.011 327.77 221.011 327.657 220.975H327.494C327.494 220.975 327.721 220.975 328.153 220.975C328.781 220.973 329.408 220.919 330.028 220.813C331.008 220.66 331.955 220.336 332.823 219.857C333.967 219.212 334.855 218.196 335.343 216.977C335.864 215.476 336.028 213.874 335.824 212.299C335.668 210.579 335.442 208.76 335.194 206.814C334.685 202.957 334.005 198.725 333.213 194.309C332.42 189.892 331.564 185.689 330.516 181.952C330.382 181.492 330.226 181.039 330.085 180.586C329.932 180.153 329.748 179.732 329.533 179.326C329.077 178.567 328.546 177.855 327.947 177.203C326.872 176.017 325.726 174.896 324.515 173.848C322.777 172.311 320.95 170.876 319.044 169.553C318.337 169.078 317.827 168.746 317.459 168.519L317.034 168.257C316.942 168.158 316.893 168.123 316.9 168.116Z" fill="#263238"/>
<path d="M327.139 222.705C327.139 222.705 327.139 222.817 327.231 223.034C327.323 223.251 327.365 223.58 327.464 224.001C327.662 224.87 327.959 226.134 328.34 227.772C328.722 229.411 329.188 231.444 329.753 233.813C330.319 236.183 331.004 238.887 331.47 241.967C331.703 243.501 331.88 245.133 331.986 246.837C332.092 248.542 332.12 250.325 332.198 252.174C332.339 255.879 332.488 259.874 332.65 264.119C332.968 272.608 333.322 282.111 333.703 292.357L333.703 292.98H333.189L292.863 293.391L276.365 293.739H276.167V293.555C278.626 267.435 280.795 244.369 282.349 227.825C283.141 219.566 283.763 212.932 284.215 208.352C284.441 206.075 284.618 204.311 284.738 203.087C284.801 202.495 284.844 202.041 284.879 201.731C284.914 201.422 284.943 201.271 284.943 201.271C284.943 201.271 284.943 201.429 284.943 201.731C284.943 202.034 284.879 202.501 284.83 203.094C284.724 204.298 284.568 206.068 284.37 208.358C283.96 212.965 283.36 219.546 282.611 227.838L276.549 293.575L276.365 293.397L292.87 293.042L333.541 292.186L333.378 292.351C333.011 282.104 332.671 272.608 332.375 264.105C332.229 259.863 332.09 255.882 331.958 252.161C331.887 250.31 331.824 248.533 331.767 246.831C331.668 245.126 331.499 243.54 331.272 241.974C330.827 238.907 330.107 236.202 329.605 233.827C329.103 231.451 328.63 229.424 328.262 227.772C327.895 226.12 327.627 224.857 327.436 223.995C327.344 223.567 327.28 223.244 327.231 223.021L327.139 222.705Z" fill="white"/>
<path d="M288.45 237.472H279.603C279.603 237.472 275.498 262.901 279.95 264.557C281.081 265.07 282.367 265.128 283.539 264.716C284.712 264.305 285.68 263.457 286.242 262.349L288.45 237.472Z" fill="white"/>
<path d="M288.45 237.472C288.459 237.625 288.459 237.779 288.45 237.932C288.45 238.265 288.393 238.725 288.351 239.298C288.252 240.53 288.117 242.278 287.94 244.457C287.565 248.923 287.041 255.158 286.433 262.363V262.391C286.058 263.084 285.542 263.692 284.918 264.174C284.265 264.667 283.494 264.98 282.682 265.08C281.855 265.17 281.018 265.074 280.233 264.797C280.022 264.744 279.819 264.661 279.632 264.55C279.442 264.427 279.275 264.274 279.136 264.097C278.875 263.751 278.669 263.367 278.528 262.957C278.128 261.741 277.89 260.478 277.82 259.199C277.728 257.954 277.707 256.729 277.721 255.526C277.721 253.12 277.905 250.82 278.096 248.654C278.478 244.316 279.002 240.494 279.511 237.423V237.324H279.617L286.157 237.394H287.884H288.322C288.421 237.394 288.471 237.394 288.464 237.394H288.301H287.841H286.079L279.617 237.465L279.731 237.366C279.278 240.431 278.782 244.252 278.414 248.583C278.237 250.749 278.096 253.042 278.068 255.427C278.068 256.623 278.068 257.84 278.174 259.072C278.239 260.317 278.463 261.549 278.839 262.738C279.122 263.488 279.547 264.21 280.325 264.358C281.059 264.622 281.843 264.714 282.618 264.627C283.354 264.523 284.055 264.244 284.661 263.813C285.266 263.382 285.76 262.812 286.1 262.15V262.207C286.765 255.052 287.346 248.867 287.763 244.436C287.976 242.242 288.145 240.487 288.273 239.242C288.329 238.654 288.379 238.187 288.414 237.826C288.45 237.465 288.45 237.479 288.45 237.472Z" fill="#263238"/>
<path d="M284.947 177.267L277.055 209.057L257.544 238.279L270.049 247.649L290.672 220.529C290.637 223.559 298.74 188.887 298.74 188.887L306.659 173.219C300.842 169.843 294.14 168.073 288.506 172.008C286.726 173.276 285.463 175.143 284.947 177.267Z" fill="white"/>
<path d="M287.353 173.594C287.383 173.518 287.426 173.449 287.48 173.388C287.62 173.2 287.773 173.022 287.94 172.858C288.57 172.26 289.331 171.819 290.162 171.57C291.402 171.185 292.727 171.168 293.977 171.52C295.497 171.99 296.833 172.923 297.799 174.188C298.764 175.432 299.419 176.887 299.709 178.434C299.937 179.691 299.975 180.974 299.823 182.242C299.73 183.092 299.564 183.933 299.327 184.754C299.262 185.061 299.157 185.359 299.016 185.639C298.945 185.639 299.377 184.344 299.568 182.214C299.674 180.972 299.609 179.722 299.377 178.498C299.083 177.005 298.443 175.601 297.508 174.4C296.59 173.195 295.326 172.299 293.885 171.831C292.694 171.491 291.431 171.491 290.24 171.831C289.433 172.052 288.683 172.443 288.039 172.978C287.586 173.346 287.388 173.622 287.353 173.594Z" fill="#263238"/>
<path d="M298.358 188.887C298.364 188.956 298.364 189.024 298.358 189.093C298.322 189.255 298.287 189.454 298.237 189.708C298.117 190.267 297.947 191.053 297.735 192.051C297.275 194.103 296.624 197.005 295.824 200.65L292.944 213.389C292.654 214.578 292.434 215.816 292.052 217.069C291.66 218.335 291.13 219.555 290.474 220.706C289.765 221.877 288.98 223 288.124 224.068L285.591 227.423L270.226 247.734L270.141 247.847L270.028 247.762L260.849 240.876L258.365 238.973L257.721 238.463C257.579 238.35 257.508 238.286 257.515 238.279L257.749 238.428L258.414 238.902L260.948 240.749L270.148 247.536H269.95L285.251 227.182L287.777 223.827C288.627 222.774 289.405 221.665 290.106 220.508C290.755 219.39 291.28 218.203 291.67 216.97C292.045 215.759 292.271 214.507 292.562 213.318C293.673 208.534 294.685 204.224 295.52 200.579C296.355 196.934 297.063 194.054 297.544 192.001C297.785 191.011 297.976 190.232 298.117 189.673C298.181 189.425 298.23 189.227 298.273 189.071C298.315 188.916 298.358 188.88 298.358 188.887Z" fill="#263238"/>
<defs>
<linearGradient id="paint0_linear_82_388" x1="115" y1="0" x2="115" y2="492" gradientUnits="userSpaceOnUse">
<stop stop-color="#D9E8FF"/>
<stop offset="1" stop-color="#5B9DFF"/>
</linearGradient>
</defs>
</svg>
