<svg width="360" height="294" viewBox="0 0 360 294" fill="none" xmlns="http://www.w3.org/2000/svg">
<path fill-rule="evenodd" clip-rule="evenodd" d="M360 107.91V293H0V19.2559C35.3551 6.85559 74.2142 0 115 0C216.886 0 306.75 42.782 360 107.91Z" fill="url(#paint0_linear_82_386)"/>
<path d="M77.0059 137.723L76.7733 166.072L118.834 166.417L119.066 138.068L77.0059 137.723Z" fill="#D9E8FF"/>
<path d="M119.196 138.411C119.072 138.544 118.939 138.669 118.798 138.785L117.62 139.8L113.233 143.485C109.492 146.599 104.347 150.855 98.6371 155.569L98.5155 155.672L98.3939 155.569L98.0993 155.331L83.2276 143.171L78.7474 139.458L77.5408 138.434C77.3949 138.319 77.2588 138.192 77.1339 138.055C77.2997 138.146 77.4563 138.252 77.6016 138.373L78.8549 139.341L83.4006 142.975L98.3659 155.045L98.6605 155.284H98.4173L113.088 143.288L117.549 139.697L118.775 138.733C118.903 138.611 119.044 138.502 119.196 138.411Z" fill="#4B8DF0"/>
<path d="M76.902 166.414C76.8225 166.344 80.0166 162.486 84.0338 157.791C88.0511 153.095 91.3809 149.349 91.4604 149.433C91.5399 149.518 88.3457 153.362 84.3238 158.057C80.3019 162.753 76.9815 166.484 76.902 166.414Z" fill="#4B8DF0"/>
<path d="M105.445 149.181C105.529 149.115 108.62 152.997 112.352 157.851C116.084 162.706 119.044 166.695 118.96 166.76C118.876 166.826 115.785 162.94 112.053 158.085C108.321 153.231 105.379 149.246 105.445 149.181Z" fill="#4B8DF0"/>
<path d="M275.069 104.579L274.928 121.85L300.55 122.06L300.692 104.79L275.069 104.579Z" fill="#D9E8FF"/>
<path d="M300.692 106.193C300.619 106.275 300.539 106.352 300.454 106.422L299.734 107.025L297.063 109.275L288.178 116.636L288.103 116.697L288.028 116.636L287.85 116.491L278.778 109.102L276.051 106.838L275.317 106.212C275.228 106.142 275.145 106.066 275.069 105.982C275.166 106.04 275.259 106.106 275.345 106.179L276.107 106.768L278.885 108.976L287.991 116.323L288.168 116.468H288.019L296.956 109.163L299.678 106.969L300.421 106.385C300.506 106.314 300.597 106.25 300.692 106.193Z" fill="#6FA8FF"/>
<path d="M274.929 123.253C274.877 123.211 276.827 120.859 279.273 118.002C281.719 115.144 283.749 112.857 283.796 112.899C283.842 112.941 281.902 115.294 279.451 118.156C277 121.018 274.975 123.295 274.929 123.253Z" fill="#6FA8FF"/>
<path d="M292.316 112.754C292.368 112.717 294.252 115.093 296.525 118.039C298.798 120.985 300.603 123.426 300.552 123.464C300.5 123.501 298.616 121.125 296.343 118.179C294.07 115.233 292.265 112.796 292.316 112.754Z" fill="#6FA8FF"/>
<path d="M246.863 239.622L196.43 239.594C190.35 239.594 185.449 234.422 185.449 228.047L185.477 95.1791C185.477 88.7814 190.416 83.6371 196.467 83.6371L246.9 83.6699C252.98 83.6699 257.876 88.8422 257.876 95.2165L257.853 228.08C257.853 234.459 252.928 239.627 246.863 239.622Z" fill="#263238"/>
<path d="M246.842 88.3699H237.063C236.403 88.4026 235.782 88.6956 235.338 89.1847C234.894 89.6739 234.661 90.3192 234.692 90.9794V92.8501C234.721 93.5107 234.487 94.1561 234.042 94.6451C233.597 95.1341 232.976 95.4269 232.316 95.4597H213.254C212.594 95.4269 211.974 95.1339 211.529 94.6448C211.085 94.1556 210.852 93.5103 210.883 92.8501V90.9794C210.912 90.3183 210.679 89.6725 210.234 89.1827C209.789 88.693 209.168 88.3991 208.507 88.3652H196.493C192.242 88.3652 188.795 91.9802 188.795 96.4464L188.772 226.134C188.772 230.601 192.214 234.22 196.46 234.22L246.79 234.253C251.041 234.253 254.488 230.638 254.488 226.172L254.511 96.4838C254.53 91.9896 251.088 88.3699 246.842 88.3699Z" fill="white"/>
<path d="M202.539 221.986V225.162C202.539 225.224 202.523 225.286 202.492 225.34C202.46 225.393 202.415 225.438 202.36 225.468C202.305 225.498 202.244 225.513 202.181 225.511C202.119 225.509 202.058 225.49 202.006 225.456L199.508 223.866C199.459 223.834 199.419 223.791 199.39 223.739C199.362 223.688 199.348 223.63 199.348 223.572C199.348 223.513 199.362 223.455 199.39 223.404C199.419 223.352 199.459 223.309 199.508 223.277L202.006 221.692C202.058 221.658 202.119 221.639 202.181 221.637C202.244 221.635 202.305 221.65 202.36 221.68C202.415 221.71 202.46 221.755 202.492 221.808C202.523 221.862 202.539 221.924 202.539 221.986Z" fill="#455A64"/>
<path d="M223.053 223.544C223.052 223.976 222.923 224.399 222.682 224.758C222.441 225.118 222.099 225.397 221.699 225.562C221.299 225.727 220.859 225.77 220.435 225.685C220.01 225.6 219.621 225.391 219.315 225.085C219.01 224.779 218.802 224.389 218.718 223.964C218.634 223.54 218.677 223.1 218.843 222.7C219.009 222.301 219.289 221.959 219.649 221.719C220.009 221.479 220.432 221.35 220.865 221.35C221.152 221.35 221.437 221.407 221.703 221.517C221.969 221.628 222.211 221.789 222.414 221.993C222.617 222.197 222.778 222.439 222.888 222.705C222.998 222.971 223.054 223.256 223.053 223.544Z" fill="#455A64"/>
<path d="M241.925 221.636H239.638C239.155 221.636 238.764 222.027 238.764 222.51V224.806C238.764 225.289 239.155 225.681 239.638 225.681H241.925C242.408 225.681 242.8 225.289 242.8 224.806V222.51C242.8 222.027 242.408 221.636 241.925 221.636Z" fill="#455A64"/>
<path d="M199.057 105.973C198.528 105.973 197.864 105.973 197.186 105.973C196.391 105.973 195.601 105.945 195.044 105.949C194.978 105.949 194.914 105.923 194.867 105.877C194.82 105.831 194.793 105.768 194.792 105.702C194.793 105.636 194.819 105.573 194.865 105.526C194.911 105.479 194.974 105.451 195.039 105.449C195.596 105.449 196.396 105.449 197.195 105.449C197.995 105.449 198.785 105.477 199.337 105.449C199.403 105.449 199.466 105.475 199.512 105.522C199.559 105.568 199.585 105.631 199.585 105.697C199.586 105.729 199.58 105.762 199.568 105.792C199.556 105.822 199.538 105.85 199.516 105.873C199.493 105.897 199.466 105.916 199.436 105.929C199.407 105.942 199.374 105.949 199.342 105.949L199.057 105.973Z" fill="#263238"/>
<path d="M196.575 107.642C196.54 107.642 196.505 107.634 196.473 107.62C196.441 107.605 196.412 107.584 196.388 107.558L194.868 105.842C194.826 105.796 194.802 105.736 194.802 105.673C194.802 105.611 194.826 105.551 194.868 105.505L196.351 103.948C196.374 103.924 196.401 103.905 196.432 103.892C196.462 103.879 196.495 103.873 196.528 103.873C196.561 103.873 196.594 103.879 196.625 103.892C196.655 103.905 196.683 103.924 196.706 103.948C196.729 103.971 196.747 103.998 196.76 104.028C196.772 104.058 196.779 104.091 196.779 104.123C196.779 104.156 196.772 104.188 196.76 104.218C196.747 104.248 196.729 104.276 196.706 104.299L195.378 105.702L196.748 107.245C196.771 107.268 196.789 107.295 196.802 107.325C196.814 107.355 196.821 107.388 196.821 107.42C196.821 107.453 196.814 107.485 196.802 107.515C196.789 107.545 196.771 107.573 196.748 107.596C196.698 107.632 196.637 107.648 196.575 107.642Z" fill="#263238"/>
<path d="M248.582 104.083C249.011 104.083 249.359 103.736 249.359 103.307C249.359 102.878 249.011 102.531 248.582 102.531C248.153 102.531 247.806 102.878 247.806 103.307C247.806 103.736 248.153 104.083 248.582 104.083Z" fill="#263238"/>
<path d="M249.34 105.753C249.341 105.908 249.295 106.059 249.21 106.189C249.124 106.318 249.003 106.419 248.86 106.478C248.717 106.538 248.559 106.554 248.407 106.524C248.255 106.494 248.116 106.419 248.006 106.31C247.897 106.2 247.822 106.061 247.792 105.909C247.762 105.757 247.778 105.6 247.838 105.457C247.898 105.314 247.998 105.192 248.128 105.106C248.257 105.021 248.408 104.976 248.563 104.977C248.665 104.977 248.766 104.997 248.86 105.036C248.955 105.075 249.04 105.132 249.112 105.204C249.184 105.276 249.241 105.362 249.28 105.456C249.319 105.55 249.34 105.651 249.34 105.753Z" fill="#263238"/>
<path d="M249.34 108.204C249.341 108.358 249.295 108.51 249.21 108.639C249.124 108.768 249.003 108.869 248.86 108.929C248.717 108.989 248.559 109.004 248.407 108.974C248.255 108.944 248.116 108.87 248.006 108.76C247.897 108.651 247.822 108.511 247.792 108.359C247.762 108.207 247.778 108.05 247.838 107.907C247.898 107.764 247.998 107.642 248.128 107.557C248.257 107.471 248.408 107.426 248.563 107.427C248.769 107.428 248.966 107.511 249.111 107.656C249.256 107.801 249.338 107.998 249.34 108.204Z" fill="#263238"/>
<path d="M254.513 117.931C254.513 118.001 239.847 118.057 221.777 118.057C203.706 118.057 189.04 118.001 189.04 117.931C189.04 117.861 203.702 117.809 221.777 117.809C239.852 117.809 254.513 117.866 254.513 117.931Z" fill="#455A64"/>
<path d="M204.369 165.834H200.132C199.837 165.834 199.599 166.072 199.599 166.367V169.178C199.599 169.472 199.837 169.711 200.132 169.711H204.369C204.663 169.711 204.902 169.472 204.902 169.178V166.367C204.902 166.072 204.663 165.834 204.369 165.834Z" fill="white"/>
<path d="M155.958 112.51C163.716 109.37 167.339 100.82 164.05 93.4122C160.762 86.0049 151.806 82.5455 144.048 85.6856C136.289 88.8257 132.666 97.3761 135.955 104.783C139.244 112.191 148.199 115.65 155.958 112.51Z" fill="#F5F5F5"/>
<path d="M154.764 110.049C161.114 107.576 164.161 100.657 161.571 94.5945C158.981 88.5322 151.735 85.6223 145.385 88.0951C139.036 90.5678 135.988 97.4868 138.578 103.549C141.168 109.611 148.414 112.521 154.764 110.049Z" fill="#455A64"/>
<path d="M153.514 106.888C158.036 105.075 160.162 100.105 158.263 95.787C156.364 91.4694 151.159 89.4391 146.636 91.2523C142.114 93.0655 139.988 98.0355 141.887 102.353C143.786 106.671 148.991 108.701 153.514 106.888Z" fill="#263238"/>
<path d="M153.437 99.5967C153.738 97.8245 152.477 96.1552 150.621 95.8682C148.765 95.5812 147.016 96.7851 146.716 98.5573C146.415 100.329 147.676 101.999 149.532 102.286C151.388 102.573 153.137 101.369 153.437 99.5967Z" fill="#455A64"/>
<path d="M90.3676 272.284C90.3676 272.284 87.1688 250.303 87.4353 237.522C87.7019 224.741 87.4353 210.351 87.4353 210.351H88.9085C88.9085 210.351 87.9124 235.731 88.9973 251.038C90.0823 266.344 92.9397 272.284 92.9397 272.284H90.3676Z" fill="#263238"/>
<path d="M99.8909 185.621C99.6599 184.842 99.1905 184.155 98.5487 183.657C97.6134 183.067 96.3881 183.31 95.3452 183.657C90.8977 185.233 86.9507 193.529 85.1501 197.892L91.0614 217.805C101.724 207.933 103.571 194.941 99.8909 185.621Z" fill="#455A64"/>
<path d="M98.2008 184.461C98.1858 184.552 98.1575 184.64 98.1166 184.723C98.0418 184.915 97.9436 185.153 97.8267 185.448C97.5695 186.074 97.2047 186.986 96.7698 188.118C95.8999 190.377 94.7916 193.538 93.8001 197.097C92.8087 200.656 92.1352 203.944 91.7377 206.329C91.5273 207.521 91.3682 208.489 91.27 209.135L91.1438 209.907C91.1314 209.997 91.111 210.086 91.083 210.173C91.0716 210.083 91.0716 209.992 91.083 209.902C91.1064 209.696 91.1297 209.434 91.1625 209.125C91.2373 208.447 91.3682 207.475 91.56 206.277C92.0586 203.154 92.7332 200.061 93.5803 197.013C94.4271 193.964 95.4435 190.965 96.6248 188.029C97.0925 186.907 97.4666 186.004 97.7519 185.387C97.8875 185.102 97.9997 184.868 98.0839 184.681C98.1173 184.605 98.1564 184.531 98.2008 184.461Z" fill="#263238"/>
<path d="M88.4317 222.599C82.8945 219.54 79.6302 213.783 79.3263 207.461C79.1111 203.046 80.4674 198.711 82.006 194.562C82.1006 194.188 82.3221 193.857 82.6327 193.627C83.1003 193.361 83.6802 193.594 84.1432 193.861C88.1698 196.153 90.6063 200.521 91.9018 204.968C92.8428 207.915 93.1613 211.025 92.8371 214.101C92.3311 217.332 90.794 220.313 88.4551 222.599" fill="#455A64"/>
<path d="M88.4329 222.599C88.4227 222.51 88.4227 222.421 88.4329 222.332C88.4329 222.131 88.4329 221.865 88.4329 221.57C88.4329 220.906 88.4049 219.947 88.3534 218.764C88.1939 215.68 87.8503 212.608 87.3246 209.565C86.7073 206.001 85.9637 202.807 85.4165 200.497L84.7244 197.747C84.6589 197.443 84.6028 197.195 84.556 196.999C84.5296 196.914 84.5154 196.826 84.5139 196.737C84.5518 196.818 84.5816 196.903 84.6028 196.99L84.8179 197.724C85.0003 198.36 85.2528 199.286 85.5475 200.436C86.1414 202.737 86.913 205.931 87.5304 209.504C88.0551 212.556 88.3676 215.641 88.4657 218.736C88.4984 219.924 88.4984 220.887 88.4657 221.542C88.4657 221.851 88.4423 222.103 88.4329 222.309C88.4476 222.405 88.4476 222.503 88.4329 222.599Z" fill="#263238"/>
<g opacity="0.3">
<path opacity="0.3" d="M88.4318 222.599C82.8947 219.54 79.6304 213.783 79.3264 207.461C79.1113 203.046 80.4675 198.711 82.0061 194.562C82.1008 194.188 82.3222 193.857 82.6328 193.627C83.1004 193.361 83.6803 193.594 84.1433 193.861C88.1699 196.153 90.6065 200.521 91.9019 204.968C92.8429 207.915 93.1614 211.025 92.8372 214.101C92.3312 217.332 90.7941 220.313 88.4552 222.599" fill="black"/>
</g>
<path d="M94.6799 256.229C100.133 257.426 104.622 261.27 109.879 263.141C113.358 264.375 117.292 264.815 120.069 267.247C119.405 265.563 117.825 264.441 116.291 263.482C111.954 260.779 107.326 258.573 102.495 256.907C100.021 256.051 97.3503 255.34 94.8156 256.042" fill="#455A64"/>
<path d="M86.7993 261.083C79.9714 260.975 72.7694 255.162 65.9883 254.816C73.1015 252.52 83.2919 254.395 86.7993 261.083Z" fill="#455A64"/>
<path d="M89.4661 244.705C92.9361 243.457 96.7382 243.401 100.381 243.967C104.024 244.532 107.541 245.697 111.035 246.861C110.684 244.49 108.767 242.713 106.966 241.133C105.645 239.91 104.212 238.814 102.687 237.859C101.145 236.896 99.3602 236.394 97.5426 236.414C96.4554 236.484 95.3936 236.773 94.4205 237.264C93.4475 237.754 92.5832 238.435 91.8792 239.267C90.5012 240.774 89.6495 242.687 89.452 244.719" fill="#455A64"/>
<path d="M75.4571 237.171C71.1593 233.5 64.6494 233.86 59 233.987C67.6845 238.139 77.0425 243.831 84.5204 249.887C84.7496 245.917 80.882 241.806 75.4571 237.171Z" fill="#455A64"/>
<g opacity="0.3">
<path opacity="0.3" d="M75.4582 237.171C71.1604 233.5 64.6505 233.86 59.0011 233.987C67.6856 238.139 77.0436 243.831 84.5215 249.887C84.7507 245.917 80.8831 241.806 75.4582 237.171Z" fill="black"/>
</g>
<path d="M91.4016 232.107C93.4983 230.651 95.7081 229.366 98.0097 228.262C100.269 227.238 102.382 225.601 104.557 224.418C107.363 222.884 109.842 220.752 112.442 218.848C115.042 216.945 117.899 215.233 121.08 214.728C118.459 214.265 115.766 214.426 113.218 215.196C110.68 215.961 108.207 216.924 105.82 218.077C102.495 219.573 99.0666 221.13 96.3261 223.572C93.5856 226.013 91.1117 228.44 91.4016 232.107Z" fill="#455A64"/>
<path d="M109.751 261.083C109.751 261.083 109.676 261.06 109.536 260.989L108.942 260.681C108.428 260.41 107.689 260.003 106.758 259.535C106.29 259.292 105.79 259.039 105.238 258.777C104.686 258.516 104.092 258.24 103.466 257.968C102.108 257.358 100.7 256.867 99.2568 256.5C97.8272 256.104 96.3221 256.067 94.8748 256.392C94.2375 256.526 93.6119 256.71 93.0041 256.944C92.4824 257.158 91.9801 257.416 91.5029 257.716C90.8152 258.151 90.1864 258.673 89.6323 259.268C89.2347 259.694 89.043 259.951 89.0243 259.937C89.0595 259.866 89.1018 259.799 89.1506 259.736C89.2765 259.552 89.414 259.375 89.5621 259.208C90.1049 258.576 90.7347 258.025 91.4328 257.571C91.9124 257.255 92.4195 256.982 92.948 256.757C93.555 256.513 94.1806 256.317 94.8187 256.173C96.2995 255.828 97.843 255.861 99.3082 256.266C100.763 256.634 102.182 257.135 103.545 257.763C104.177 258.039 104.771 258.319 105.318 258.6C105.865 258.88 106.375 259.128 106.828 259.381C107.764 259.848 108.479 260.316 108.98 260.597L109.55 260.947C109.69 261.032 109.756 261.074 109.751 261.083Z" fill="#263238"/>
<path d="M81.7075 257.702C81.8565 257.719 82.0018 257.76 82.1378 257.823C82.5177 257.957 82.8894 258.113 83.2508 258.291C85.6527 259.514 87.6321 261.43 88.9329 263.791C89.1322 264.142 89.3088 264.506 89.4614 264.88C89.5308 265.012 89.5782 265.154 89.6017 265.301C89.5643 265.301 89.3071 264.74 88.7833 263.875C88.0991 262.748 87.2723 261.713 86.3234 260.798C85.3683 259.887 84.3013 259.101 83.1479 258.459C82.2827 257.973 81.6935 257.739 81.7075 257.702Z" fill="#263238"/>
<path d="M66.6068 236.825C66.7057 236.847 66.8026 236.877 66.8968 236.914L67.7152 237.204L69.0059 237.672C69.511 237.859 70.0582 238.139 70.6755 238.406C73.8778 239.887 76.8664 241.792 79.5611 244.069C81.0344 245.335 82.4203 246.699 83.7093 248.152C84.7543 249.347 85.7362 250.596 86.6509 251.893C87.4272 252.997 88.0212 253.914 88.4234 254.55L88.891 255.284C88.9524 255.364 89.0027 255.452 89.0407 255.546C88.9709 255.474 88.9083 255.396 88.8536 255.312C88.732 255.153 88.559 254.915 88.3439 254.606C87.9183 253.984 87.3056 253.081 86.5106 251.992C85.7156 250.902 84.7148 249.653 83.5409 248.316C82.2501 246.881 80.8693 245.53 79.4068 244.27C76.7233 242.008 73.7645 240.094 70.6007 238.574C69.9927 238.294 69.4502 238.004 68.9545 237.807L67.6824 237.293L66.8781 236.961C66.7819 236.928 66.6906 236.883 66.6068 236.825Z" fill="#263238"/>
<path d="M99.7093 240.871C99.5249 240.867 99.3414 240.843 99.1621 240.8L98.5354 240.683C98.2922 240.637 98.007 240.637 97.6983 240.604C96.0824 240.468 94.4611 240.793 93.0217 241.539C92.2255 241.945 91.4992 242.476 90.8704 243.111C90.3511 243.621 89.8914 244.189 89.5001 244.804C89.1472 245.378 88.8347 245.977 88.5648 246.595C88.5855 246.413 88.6327 246.235 88.7051 246.066C88.8771 245.596 89.0948 245.143 89.3552 244.715C89.737 244.075 90.1938 243.483 90.7161 242.952C91.6079 242.013 92.7066 241.297 93.9245 240.858C95.1424 240.42 96.4459 240.272 97.731 240.426C98.0444 240.473 98.3343 240.487 98.5775 240.543L99.2042 240.702C99.3789 240.737 99.5486 240.794 99.7093 240.871Z" fill="#263238"/>
<path d="M106.573 219.587C106.49 219.647 106.402 219.7 106.311 219.746L105.553 220.158C104.889 220.518 103.935 221.042 102.78 221.724C101.625 222.407 100.269 223.263 98.8235 224.297C97.2469 225.399 95.7697 226.636 94.4087 227.996C93.7053 228.691 93.0982 229.478 92.6035 230.334C92.1359 231.195 91.729 232.022 91.3362 232.822C90.6265 234.226 89.9927 235.667 89.4374 237.139C89.0631 238.132 88.7507 239.147 88.5021 240.178C88.3244 240.908 88.2636 241.32 88.2402 241.315C88.2371 241.214 88.2465 241.114 88.2683 241.016C88.2683 240.819 88.3338 240.548 88.4086 240.16C88.6199 239.114 88.9043 238.084 89.2597 237.078C89.8019 235.591 90.4264 234.136 91.1304 232.719C91.5185 231.919 91.9394 231.087 92.3837 230.227C92.8885 229.348 93.5082 228.542 94.2263 227.827C95.5989 226.458 97.0921 225.215 98.6878 224.114C100.147 223.085 101.522 222.243 102.686 221.575C103.851 220.906 104.828 220.406 105.492 220.074L106.278 219.699C106.371 219.65 106.47 219.612 106.573 219.587Z" fill="#263238"/>
<path d="M87.43 240.253C87.3615 240.068 87.316 239.875 87.2943 239.678C87.2148 239.257 87.112 238.743 86.995 238.102C86.6654 236.364 86.2344 234.646 85.7043 232.958C85.1514 231.284 84.5002 229.644 83.7541 228.047L83.09 226.583C82.9968 226.41 82.9231 226.226 82.8702 226.036C82.989 226.194 83.0909 226.363 83.1742 226.541C83.3566 226.873 83.6091 227.364 83.9085 227.972C84.705 229.556 85.3819 231.198 85.9334 232.883C86.4739 234.572 86.8851 236.299 87.1634 238.051C87.271 238.719 87.3458 239.262 87.3879 239.641C87.4223 239.843 87.4364 240.048 87.43 240.253Z" fill="#263238"/>
<path d="M86.9347 224.722C86.7218 222.139 85.9682 219.629 84.7226 217.356C83.0398 214.226 80.6913 211.502 77.8423 209.377C74.9933 207.252 71.7132 205.777 68.2328 205.057L83.502 227.813L85.4615 231.887C86.8084 229.665 87.1077 227.304 86.9347 224.722Z" fill="#455A64"/>
<path d="M108.834 269.566H73.3335V275.857H108.834V269.566Z" fill="#4B8DF0"/>
<path d="M75.9845 274.613L79.0056 294.133H102.571L106.182 274.613H75.9845Z" fill="#4B8DF0"/>
<path d="M108.81 275.847C108.81 275.917 100.804 275.973 90.9316 275.973C81.0592 275.973 73.0294 275.936 73.0294 275.847C73.0294 275.758 81.0358 275.721 90.9176 275.721C100.799 275.721 108.81 275.796 108.81 275.847Z" fill="#263238"/>
<path d="M166.213 129.534C160.498 128.566 155.456 130.764 150.649 133.986C145.841 137.208 142.198 142.095 140.103 147.478C137.895 153.174 137.358 159.581 139.055 165.45C140.753 171.32 144.77 176.567 150.195 179.335C157.631 183.109 167.143 181.795 173.793 176.763C180.444 171.731 184.25 163.416 184.55 155.082C184.769 149.339 183.399 143.465 180.191 138.714C176.983 133.962 171.862 130.385 166.161 129.548" fill="#263238"/>
<path d="M149.959 148.975C150.792 146.786 150.469 144.345 150.801 142.03C151.531 136.923 155.642 132.831 160.398 130.843C164.822 128.973 170.219 129.393 175.559 131.119C179.212 132.298 182.649 134.36 185.086 137.325C186.689 139.317 187.793 141.663 188.305 144.167C188.818 146.672 188.724 149.263 188.032 151.724L161.918 147.918C159.472 149.943 156.97 152 154.005 153.127C153.149 153.507 152.209 153.656 151.278 153.562C150.815 153.508 150.377 153.321 150.017 153.024C149.657 152.727 149.39 152.333 149.249 151.888C149.01 150.897 149.595 149.924 149.959 148.975Z" fill="#263238"/>
<path d="M176.115 138.326L153.317 143.157C152.253 143.227 151.253 143.694 150.517 144.466C149.781 145.237 149.362 146.257 149.342 147.324L149.617 196.667C149.635 200.037 150.764 203.307 152.83 205.969L155.005 208.775C159.962 215.168 170.003 214.522 173.791 207.372C174.02 206.966 174.196 206.532 174.315 206.081C174.408 205.713 174.479 205.34 174.53 204.963L174.965 200.156C175.185 195.76 175.217 191.298 175.217 191.34C175.217 191.382 184.547 190.157 186.937 178.138C188.13 172.161 188.209 162.284 188.013 154.203C187.84 146.931 183.402 137.844 176.115 138.326Z" fill="#FFBE9D"/>
<path d="M184.546 163.467C184.533 163.872 184.363 164.255 184.072 164.536C183.781 164.817 183.393 164.974 182.989 164.973C182.791 164.981 182.593 164.95 182.407 164.881C182.222 164.811 182.052 164.706 181.908 164.57C181.763 164.434 181.648 164.27 181.568 164.089C181.487 163.908 181.444 163.712 181.441 163.514C181.453 163.109 181.622 162.725 181.913 162.443C182.204 162.161 182.593 162.003 182.998 162.004C183.196 161.997 183.394 162.029 183.579 162.099C183.764 162.17 183.934 162.276 184.078 162.412C184.222 162.548 184.338 162.712 184.418 162.893C184.498 163.074 184.542 163.269 184.546 163.467Z" fill="#263238"/>
<path d="M185.673 159.254C185.472 159.45 184.331 158.534 182.662 158.473C180.992 158.412 179.739 159.202 179.566 158.992C179.477 158.894 179.687 158.524 180.239 158.169C180.98 157.697 181.85 157.467 182.727 157.509C183.596 157.54 184.432 157.844 185.117 158.379C185.613 158.795 185.772 159.17 185.673 159.254Z" fill="#263238"/>
<path d="M169.582 163.093C169.571 163.498 169.402 163.883 169.111 164.164C168.82 164.446 168.43 164.602 168.025 164.599C167.827 164.607 167.63 164.576 167.444 164.506C167.259 164.437 167.089 164.331 166.945 164.195C166.802 164.059 166.686 163.896 166.607 163.715C166.527 163.533 166.485 163.338 166.482 163.14C166.494 162.735 166.663 162.351 166.954 162.069C167.245 161.787 167.634 161.629 168.039 161.63C168.237 161.621 168.435 161.653 168.621 161.723C168.806 161.792 168.976 161.899 169.12 162.035C169.264 162.172 169.379 162.336 169.458 162.517C169.538 162.699 169.58 162.895 169.582 163.093Z" fill="#263238"/>
<path d="M169.837 158.847C169.636 159.043 168.49 158.127 166.826 158.066C165.161 158.005 163.898 158.795 163.725 158.585C163.641 158.487 163.847 158.117 164.398 157.762C165.14 157.291 166.009 157.061 166.886 157.103C167.756 157.13 168.594 157.437 169.276 157.977C169.758 158.389 169.917 158.763 169.837 158.847Z" fill="#263238"/>
<path d="M174.833 171.558C174.833 171.464 175.871 171.324 177.559 171.175C177.989 171.146 178.396 171.076 178.495 170.791C178.546 170.351 178.463 169.906 178.256 169.514C177.896 168.467 177.517 167.372 177.124 166.241C175.553 161.564 174.431 157.701 174.622 157.64C174.814 157.58 176.236 161.33 177.807 166.016L178.892 169.332C179.032 169.8 179.29 170.38 179.046 171.011C178.978 171.159 178.878 171.289 178.752 171.393C178.627 171.497 178.48 171.571 178.322 171.609C178.082 171.662 177.837 171.686 177.592 171.68C175.885 171.675 174.833 171.638 174.833 171.558Z" fill="#263238"/>
<path d="M175.217 191.345C169.518 191.209 163.969 189.494 159.186 186.392C159.186 186.392 162.927 194.923 175.086 194.263L175.217 191.345Z" fill="#FF9A6C"/>
<path d="M173.967 175.543C173.666 175.13 173.264 174.801 172.8 174.587C172.336 174.373 171.825 174.28 171.316 174.317C170.947 174.336 170.585 174.428 170.253 174.589C169.92 174.749 169.623 174.975 169.38 175.253C169.146 175.522 169 175.856 168.962 176.211C168.924 176.566 168.997 176.923 169.169 177.235C169.595 177.89 170.53 178.073 171.334 177.876C172.135 177.629 172.878 177.224 173.518 176.684C173.712 176.561 173.881 176.402 174.014 176.216C174.075 176.124 174.108 176.016 174.108 175.905C174.108 175.794 174.075 175.686 174.014 175.594" fill="#FF9A6C"/>
<path d="M169.868 172.493C170.144 172.493 170.074 174.303 171.575 175.645C173.077 176.988 175.013 176.871 175.017 177.123C175.017 177.24 174.55 177.46 173.759 177.451C172.698 177.423 171.679 177.022 170.883 176.319C170.119 175.644 169.648 174.698 169.569 173.681C169.527 172.933 169.747 172.493 169.868 172.493Z" fill="#263238"/>
<path d="M169.73 153.894C169.548 154.362 167.888 154.063 165.919 154.222C163.95 154.381 162.346 154.853 162.103 154.437C161.995 154.236 162.285 153.82 162.945 153.408C163.817 152.902 164.794 152.601 165.801 152.529C166.807 152.457 167.817 152.615 168.753 152.992C169.459 153.319 169.805 153.679 169.73 153.894Z" fill="#263238"/>
<path d="M185.471 151.916C185.163 152.286 184.031 151.846 182.665 151.776C181.3 151.706 180.103 151.93 179.859 151.523C179.747 151.327 179.944 150.953 180.472 150.616C181.176 150.212 181.984 150.026 182.793 150.083C183.603 150.139 184.377 150.436 185.018 150.934C185.462 151.36 185.607 151.757 185.471 151.916Z" fill="#263238"/>
<path d="M145.777 145.453C148.143 138.513 158.46 129.052 165.765 129.707L177.321 136.951C176.901 138.936 175.952 140.77 174.576 142.261C173.2 143.751 171.447 144.843 169.502 145.42C167.425 146.009 164.932 146.131 163.67 147.885C162.407 149.639 163.062 152.328 161.855 154.175C160.186 156.738 155.776 156.513 154.499 159.319C153.942 160.535 154.19 162.004 153.615 163.21C152.848 164.814 148.705 166.783 147.021 166.213C145.337 165.642 145.389 162.757 144.865 161.232C143.967 158.627 144.397 157.294 144.725 155.859C145.52 152.435 144.65 148.764 145.777 145.453Z" fill="#263238"/>
<path d="M151.982 167.723C152.014 166.821 151.046 164.66 150.172 164.487C147.833 164.019 143.522 164.047 143.246 170.099C142.871 178.344 151.224 177.016 151.252 176.782C151.28 176.548 151.865 170.833 151.982 167.723Z" fill="#FFBE9D"/>
<path d="M148.876 173.527C148.838 173.499 148.726 173.62 148.478 173.719C148.13 173.85 147.744 173.84 147.402 173.691C146.547 173.335 145.878 171.918 145.901 170.417C145.914 169.709 146.083 169.013 146.397 168.378C146.489 168.128 146.64 167.904 146.837 167.725C147.034 167.546 147.271 167.417 147.529 167.349C147.696 167.313 147.871 167.336 148.023 167.414C148.175 167.493 148.294 167.622 148.361 167.779C148.459 168.013 148.399 168.177 148.441 168.191C148.483 168.205 148.628 168.065 148.576 167.723C148.538 167.516 148.431 167.329 148.272 167.19C148.052 167.009 147.77 166.922 147.487 166.947C147.145 166.999 146.823 167.137 146.55 167.349C146.277 167.562 146.064 167.84 145.929 168.158C145.548 168.856 145.341 169.636 145.326 170.431C145.326 172.096 146.084 173.705 147.262 174.088C147.481 174.162 147.713 174.186 147.942 174.159C148.171 174.131 148.391 174.053 148.586 173.929C148.852 173.723 148.904 173.541 148.876 173.527Z" fill="#FF9A6C"/>
<path d="M174.912 134.454C175.67 137.811 180.772 142.114 183.012 144.742C187.286 149.727 188.128 151.383 188.086 162.513C190.102 158.665 191.65 154.89 191.495 150.546C191.341 146.201 189.737 141.852 186.721 138.723C183.704 135.595 179.215 133.827 174.912 134.449" fill="#263238"/>
<path d="M154.255 125.063C152.319 123.37 149.728 122.421 147.091 122.074C143.324 121.531 139.484 122.296 136.213 124.24C133.065 126.195 130.839 129.468 130.554 132.966C130.423 134.758 130.783 136.551 131.595 138.153C132.408 139.755 133.642 141.105 135.165 142.058C133.47 144.116 131.302 145.733 128.847 146.772C129.298 147.238 129.837 147.61 130.432 147.867C131.028 148.124 131.668 148.26 132.317 148.268C133.632 148.281 134.943 148.124 136.217 147.801C135.484 149.22 134.271 150.333 132.794 150.943C134.952 151.188 137.136 150.866 139.131 150.008C141.077 149.163 142.91 148.076 144.584 146.772C150.42 142.437 153.502 138.868 157.089 132.793C157.393 130.361 156.191 126.751 154.255 125.063Z" fill="#263238"/>
<path d="M148.881 181.547C150.862 181.547 152.468 179.941 152.468 177.96C152.468 175.979 150.862 174.373 148.881 174.373C146.9 174.373 145.294 175.979 145.294 177.96C145.294 179.941 146.9 181.547 148.881 181.547Z" fill="#455A64"/>
<path d="M142.714 143.695C146.539 136.483 151.969 132.232 157.127 130.525L142.714 143.695Z" fill="#263238"/>
<path d="M157.141 130.525C156.908 130.647 156.666 130.75 156.417 130.834C155.949 131.026 155.28 131.301 154.48 131.727C152.403 132.816 150.488 134.192 148.794 135.814C147.096 137.441 145.587 139.253 144.295 141.216C143.827 141.978 143.416 142.591 143.163 143.03C143.041 143.263 142.9 143.485 142.742 143.695C142.838 143.451 142.952 143.215 143.083 142.988C143.308 142.521 143.677 141.899 144.15 141.118C145.411 139.112 146.914 137.27 148.625 135.632C150.336 133.995 152.285 132.626 154.406 131.573C155.05 131.259 155.712 130.983 156.389 130.745C156.632 130.648 156.884 130.575 157.141 130.525Z" fill="#455A64"/>
<path d="M137.907 150.045C137.907 150.045 137.944 150.045 138.014 150.045L138.323 150.134C138.594 150.214 138.997 150.317 139.516 150.438C140.994 150.751 142.504 150.884 144.015 150.836C146.255 150.754 148.472 150.36 150.604 149.667C153.219 148.807 155.745 147.698 158.147 146.356C160.715 144.953 163.123 143.55 165.256 142.179C167.154 140.984 168.958 139.645 170.653 138.176C171.795 137.185 172.857 136.104 173.828 134.945C174.179 134.542 174.422 134.206 174.6 134.009L174.796 133.757C174.819 133.725 174.846 133.697 174.876 133.673C174.86 133.707 174.841 133.739 174.82 133.771L174.637 134.037C174.478 134.266 174.24 134.613 173.903 135.029C172.954 136.216 171.906 137.321 170.77 138.33C169.081 139.822 167.278 141.179 165.377 142.39C163.24 143.793 160.836 145.196 158.264 146.599C155.845 147.939 153.299 149.039 150.665 149.882C148.512 150.57 146.273 150.95 144.015 151.009C142.493 151.047 140.973 150.89 139.492 150.541C139.091 150.446 138.694 150.33 138.304 150.195L138 150.083C137.94 150.045 137.902 150.045 137.907 150.045Z" fill="#455A64"/>
<path d="M207.989 225.704L221.785 250.902L241.993 239.599L251.814 242.844C251.814 242.844 227.028 269.726 222.997 271.096C218.965 272.466 211.357 272.714 207.003 267.266C203.041 262.285 191.504 236.245 191.504 236.245L207.989 225.704Z" fill="#FFBE9D"/>
<path d="M264.773 209.256C264.596 209.038 264.366 208.869 264.105 208.765C263.844 208.661 263.56 208.625 263.281 208.663L253.671 209.986C253.254 210.05 252.856 210.202 252.503 210.431C252.149 210.66 251.847 210.961 251.618 211.314L231.663 241.984L233.197 242.844L243.822 242.507L265.077 209.631L264.773 209.256Z" fill="#455A64"/>
<path d="M257.981 213.236C258.115 213.299 258.266 213.317 258.411 213.287C258.556 213.257 258.688 213.18 258.785 213.069C258.883 212.957 258.942 212.817 258.953 212.669C258.964 212.522 258.926 212.374 258.846 212.25C258.712 212.186 258.561 212.169 258.416 212.199C258.271 212.229 258.14 212.306 258.042 212.417C257.945 212.529 257.886 212.669 257.875 212.817C257.864 212.964 257.901 213.112 257.981 213.236Z" fill="white"/>
<path d="M265.086 209.631C264.472 209.801 263.847 209.923 263.215 209.995L258.117 210.786L254.6 211.3C254.302 211.325 254.014 211.418 253.756 211.57C253.499 211.722 253.279 211.93 253.113 212.179L251.977 213.943L246.879 221.795C243.25 227.36 239.939 232.383 237.526 236.002L234.631 240.267C234.296 240.804 233.919 241.314 233.504 241.792C233.772 241.219 234.085 240.669 234.439 240.146L237.18 235.778C239.518 232.102 242.792 227.046 246.402 221.481L251.547 213.648L252.706 211.889C252.915 211.59 253.187 211.339 253.503 211.156C253.819 210.972 254.171 210.86 254.535 210.828L258.071 210.36L263.215 209.752C263.834 209.661 264.46 209.62 265.086 209.631Z" fill="#263238"/>
<path d="M254.422 220.593C254.422 220.593 253.566 220.443 253.099 222.786C252.631 225.129 251.121 231.849 251.121 231.849L246.631 229.464L241.019 230.194C241.019 230.194 239.794 231.326 240.692 231.943C241.59 232.56 245.139 233.192 245.139 233.192L247.758 236.933L240.247 233.313C240.247 233.313 237.741 233.968 238.475 235.497C239.209 237.026 244.274 241.811 244.274 241.811L240.509 241.525L236.034 238.808C236.034 238.808 234.663 238.874 235.173 240.043C235.683 241.212 240.336 245.449 240.336 245.449L245.981 248.19C245.981 248.19 249.058 247.946 249.353 247.044C249.555 246.326 249.681 245.59 249.727 244.846C249.727 244.846 251.359 244.406 251.668 243.611C251.846 242.943 251.883 242.246 251.775 241.563C251.775 241.563 254.343 242.03 254.661 240.585C254.979 239.14 254.712 236.334 254.455 235.235C254.198 234.136 255.549 223.904 255.442 223.59C255.334 223.277 256.031 219.919 254.422 220.593Z" fill="#FFBE9D"/>
<path d="M249.556 247.058C249.556 247.123 249.027 247.366 248.083 247.525C245.581 247.885 243.037 247.28 240.965 245.833C240.189 245.271 239.81 244.813 239.857 244.762C239.964 244.617 241.727 246.165 244.496 246.791C247.264 247.418 249.523 246.88 249.556 247.058Z" fill="#FF9A6C"/>
<path d="M248.221 245.033C248.132 245.164 247.131 244.64 246.065 243.765C244.998 242.891 244.287 242.012 244.395 241.895C244.503 241.778 245.386 242.456 246.429 243.298C247.472 244.14 248.314 244.902 248.221 245.033Z" fill="#FF9A6C"/>
<path d="M251.212 240.164C251.123 240.295 250.132 239.786 249.131 238.855C248.13 237.924 247.541 236.984 247.663 236.886C247.784 236.788 248.556 237.541 249.533 238.434C250.511 239.327 251.278 240.029 251.212 240.164Z" fill="#FF9A6C"/>
<path d="M254.308 236.241C254.158 236.306 253.588 235.249 252.695 234.094C251.801 232.939 250.931 232.111 251.034 231.98C251.137 231.849 252.213 232.513 253.153 233.743C254.093 234.973 254.453 236.189 254.308 236.241Z" fill="#FF9A6C"/>
<path d="M209.88 226.195C209.88 226.195 200.995 211.375 198.53 208.382C196.546 206.065 194.054 204.237 191.248 203.041C190.139 202.564 188.978 202.22 187.788 202.017L175.011 199.211C175.011 199.211 174.899 205.01 165.747 205.347C155.229 205.74 149.009 196.283 149.009 196.283C149.009 196.283 134.245 198.566 130.714 200.385C127.183 202.204 121.627 204.51 118.555 219.807L116.408 234.772L141.868 237.111L144.304 274.945L156.931 283.737C156.931 283.737 191.936 292.837 194.171 293.436C196.407 294.035 197.15 237.111 197.15 237.111C197.15 237.111 206.162 231.293 209.88 226.195Z" fill="#4B8DF0"/>
<path d="M141.732 219.971C141.797 219.971 141.942 224.432 142.05 229.937C142.157 235.441 142.19 239.912 142.124 239.912C142.059 239.912 141.914 235.45 141.806 229.941C141.699 224.432 141.661 219.971 141.732 219.971Z" fill="#263238"/>
<path d="M192.844 219.816C192.899 219.886 192.948 219.962 192.989 220.041L193.358 220.7C193.522 220.985 193.718 221.341 193.915 221.766C194.111 222.192 194.382 222.66 194.593 223.207C195.15 224.472 195.628 225.769 196.024 227.093C196.493 228.721 196.845 230.381 197.076 232.06C197.466 235.11 197.555 238.191 197.343 241.259C197.268 242.433 197.188 243.387 197.114 244.041C197.076 244.345 197.048 244.593 197.025 244.794C197.02 244.882 197.005 244.968 196.978 245.052C196.966 244.965 196.966 244.876 196.978 244.79L197.02 244.032C197.067 243.377 197.118 242.423 197.174 241.226C197.33 238.17 197.217 235.106 196.838 232.069C196.604 230.404 196.26 228.755 195.809 227.135C195.424 225.815 194.965 224.518 194.434 223.249C194.223 222.702 193.966 222.225 193.793 221.799C193.62 221.374 193.424 221.014 193.274 220.719C193.124 220.424 193.031 220.219 192.942 220.041C192.901 219.97 192.868 219.895 192.844 219.816Z" fill="#263238"/>
<path d="M178.186 199.894C178.201 200.433 178.147 200.972 178.027 201.498C177.713 202.948 176.998 204.281 175.965 205.347C174.395 206.89 172.403 207.935 170.241 208.349C167.616 208.896 164.905 208.872 162.29 208.279C159.677 207.701 157.172 206.713 154.869 205.351C152.984 204.26 151.235 202.95 149.659 201.446C148.603 200.429 147.642 199.318 146.787 198.126C146.488 197.705 146.287 197.354 146.137 197.125C146.06 197.01 145.989 196.89 145.927 196.765C146.02 196.869 146.104 196.98 146.179 197.097C146.338 197.317 146.554 197.658 146.862 198.07C147.743 199.233 148.719 200.32 149.78 201.32C151.359 202.796 153.104 204.083 154.981 205.155C157.273 206.492 159.76 207.464 162.351 208.036C164.933 208.623 167.609 208.653 170.203 208.125C172.325 207.729 174.285 206.723 175.843 205.23C176.865 204.194 177.589 202.901 177.939 201.489C178.028 201.103 178.095 200.713 178.14 200.319C178.147 200.177 178.162 200.035 178.186 199.894Z" fill="#263238"/>
<path d="M192.037 281.805L144.116 271.367L141.899 237.106L120.583 235.132C120.583 235.132 121.368 258.558 122.191 265.531C123.37 275.548 129.291 289.213 132.751 291.944C136.212 294.675 194.202 293.441 194.202 293.441L192.037 281.805Z" fill="#FFBE9D"/>
<path d="M219.247 288.007C219.084 288.335 218.828 288.609 218.512 288.793C218.195 288.978 217.831 289.065 217.465 289.045C217.306 289.031 217.149 289 216.997 288.951C215.935 288.61 216.034 286.454 216.034 286.454L210.955 285.621C210.955 285.621 204.351 289.877 202.004 292.716C199.656 295.555 193.656 293.254 193.656 293.254L191.575 282.423L200.928 273.967C200.928 273.967 200.353 274.472 200.998 272.892C201.644 271.311 204.581 271.905 204.581 271.905C205.048 271.124 206.956 270.843 206.956 270.843L215.159 271.779C215.994 271.874 216.797 272.155 217.508 272.602C218.22 273.049 218.822 273.65 219.27 274.36L222.74 279.85C222.74 279.85 224.555 283.798 224.274 284.733C224.146 285.117 223.88 285.44 223.528 285.64C223.175 285.839 222.761 285.901 222.366 285.813C222.366 285.813 221.964 288.409 221.281 288.502C220.598 288.596 219.247 288.035 219.247 288.035V288.007Z" fill="#FFBE9D"/>
<path d="M201.79 280.239C201.79 280.323 202.889 280.239 204.638 280.299C206.918 280.408 209.171 280.829 211.335 281.553C212.523 281.952 213.677 282.445 214.787 283.026C215.778 283.582 216.812 284.041 217.125 284.766C217.195 284.923 217.223 285.095 217.206 285.267C217.19 285.438 217.13 285.602 217.032 285.743C216.882 285.974 216.667 286.157 216.414 286.267C216.182 286.344 215.938 286.379 215.694 286.37C215.694 286.37 215.951 286.599 216.48 286.459C216.796 286.365 217.075 286.174 217.275 285.911C217.415 285.732 217.507 285.519 217.541 285.294C217.574 285.068 217.549 284.838 217.466 284.625C217.249 284.148 216.894 283.748 216.447 283.475C215.979 283.18 215.512 282.881 215.011 282.6C211.834 280.854 208.268 279.936 204.643 279.93C202.861 279.949 201.781 280.178 201.79 280.239Z" fill="#FF9A6C"/>
<path d="M201.218 285.467C201.218 285.621 204.566 285.467 208.668 285.724C212.769 285.982 216.071 286.463 216.094 286.314C216.094 286.243 215.294 286.028 213.962 285.794C212.219 285.495 210.461 285.297 208.696 285.201C206.931 285.102 205.162 285.102 203.397 285.201C202.045 285.275 201.213 285.397 201.218 285.467Z" fill="#FF9A6C"/>
<path d="M219.2 287.805C219.27 287.519 219.305 287.225 219.303 286.931C219.356 286.132 219.356 285.331 219.303 284.532C219.273 283.972 219.198 283.415 219.078 282.867C218.928 282.224 218.653 281.617 218.269 281.08C217.462 279.839 216.418 278.77 215.197 277.933C213.991 277.087 212.669 276.419 211.273 275.95C210.121 275.619 208.931 275.438 207.733 275.412C206.718 275.375 205.9 275.412 205.334 275.412C205.039 275.396 204.744 275.426 204.459 275.501C204.459 275.585 205.708 275.627 207.709 275.772C208.869 275.855 210.016 276.066 211.128 276.404C212.467 276.886 213.735 277.544 214.902 278.359C216.071 279.159 217.079 280.173 217.872 281.347C218.667 282.38 218.807 283.568 218.938 284.56C219.139 286.547 219.088 287.81 219.2 287.805Z" fill="#FF9A6C"/>
<path d="M207.354 272.929C207.354 273.004 208.579 273.037 210.539 273.261C212.498 273.486 215.449 273.691 217.17 276.292C219.041 278.658 220.617 280.893 221.309 282.727C222.001 284.56 221.978 285.804 222.085 285.794C222.157 285.51 222.173 285.215 222.132 284.925C222.089 284.127 221.932 283.339 221.665 282.586C221.033 280.655 219.462 278.335 217.587 275.955C217.126 275.352 216.59 274.811 215.992 274.346C215.411 273.925 214.755 273.617 214.06 273.439C212.924 273.139 211.759 272.954 210.586 272.887C208.584 272.761 207.354 272.859 207.354 272.929Z" fill="#FF9A6C"/>
<path d="M203.792 290.967C203.961 290.861 204.117 290.737 204.26 290.597L205.635 289.494C207.358 288.151 209.158 286.912 211.027 285.78L210.91 285.804L215.984 286.664L215.811 286.454C215.794 286.869 215.825 287.285 215.905 287.693C215.969 288.149 216.169 288.574 216.48 288.914C216.668 289.082 216.903 289.19 217.153 289.222C217.387 289.284 217.63 289.298 217.869 289.265C218.359 289.19 218.807 288.943 219.132 288.568C219.214 288.473 219.288 288.372 219.351 288.264L219.398 288.184L219.421 288.142C219.487 288.119 218.856 288.348 219.122 288.254L219.281 288.32C219.496 288.404 219.711 288.484 219.936 288.554C220.165 288.624 220.397 288.682 220.633 288.727C220.758 288.748 220.885 288.762 221.012 288.769C221.173 288.784 221.336 288.751 221.479 288.675C221.703 288.502 221.876 288.27 221.98 288.006C222.077 287.778 222.159 287.544 222.227 287.305C222.366 286.834 222.475 286.354 222.555 285.869L222.26 286.075C222.601 286.148 222.956 286.126 223.285 286.012C223.615 285.899 223.907 285.697 224.131 285.43C224.365 285.14 224.489 284.778 224.482 284.405C224.458 284.073 224.398 283.743 224.304 283.423C223.924 282.174 223.455 280.953 222.901 279.771L221.03 276.839L219.856 274.968C219.496 274.323 219.065 273.721 218.57 273.172C218.047 272.643 217.422 272.226 216.732 271.947C216.06 271.698 215.353 271.553 214.637 271.517L206.907 270.647H206.846C206.384 270.722 205.929 270.841 205.49 271.002C205.02 271.146 204.608 271.434 204.311 271.825L204.596 271.736C204.179 271.544 203.72 271.457 203.261 271.483C202.802 271.509 202.357 271.647 201.964 271.886C201.279 272.386 200.812 273.129 200.659 273.963L200.724 273.855L194.28 279.649L192.54 281.249C192.328 281.426 192.134 281.623 191.96 281.838C192.194 281.691 192.413 281.521 192.615 281.333L194.42 279.813L200.967 274.145L201.014 274.108V274.037C201.155 273.314 201.564 272.671 202.16 272.237C202.495 272.043 202.872 271.933 203.259 271.916C203.645 271.899 204.03 271.975 204.381 272.139L204.564 272.213L204.667 272.05C204.912 271.757 205.237 271.541 205.602 271.428C206.013 271.281 206.438 271.173 206.869 271.105H206.809L214.534 272.017C215.204 272.055 215.864 272.192 216.494 272.424C217.116 272.68 217.681 273.058 218.154 273.537C218.622 274.061 219.029 274.635 219.37 275.249L220.544 277.119L222.415 280.047V280.019C222.958 281.174 223.419 282.367 223.794 283.587C223.88 283.869 223.935 284.159 223.958 284.452C223.964 284.706 223.879 284.953 223.719 285.149C223.55 285.347 223.33 285.495 223.083 285.577C222.836 285.66 222.571 285.673 222.316 285.617L222.059 285.575L222.017 285.822C221.945 286.287 221.843 286.746 221.713 287.197C221.631 287.601 221.449 287.977 221.185 288.292C221.117 288.316 221.045 288.324 220.974 288.315C220.87 288.313 220.767 288.302 220.665 288.282C220.45 288.246 220.237 288.195 220.029 288.128C219.819 288.063 219.609 287.992 219.403 287.913L219.253 287.852L218.954 287.96V287.992L218.916 288.058C218.866 288.142 218.808 288.222 218.743 288.296C218.493 288.591 218.147 288.788 217.766 288.853C217.58 288.879 217.391 288.868 217.209 288.82C217.037 288.804 216.874 288.736 216.742 288.624C216.274 288.119 216.19 287.221 216.185 286.505V286.314L216.012 286.29L210.989 285.462H210.924L210.873 285.495C209.01 286.66 207.228 287.951 205.541 289.358C204.952 289.854 204.512 290.251 204.222 290.532C204.066 290.663 203.922 290.809 203.792 290.967Z" fill="#FF9A6C"/>
<path d="M288.69 240.534L225.555 241.044C223.507 241.044 221.552 242.03 221.244 244.055L214.346 290.074H181.81C181.323 290.098 180.865 290.308 180.529 290.661C180.193 291.014 180.006 291.483 180.006 291.97C180.006 292.457 180.193 292.926 180.529 293.279C180.865 293.632 181.323 293.842 181.81 293.866H285.688L292.787 245.295C292.876 244.705 292.836 244.103 292.671 243.53C292.506 242.957 292.219 242.427 291.83 241.975C291.441 241.523 290.96 241.16 290.418 240.911C289.876 240.663 289.286 240.534 288.69 240.534Z" fill="#455A64"/>
<path d="M288.687 240.534C289.022 240.513 289.358 240.544 289.683 240.627C290.523 240.826 291.281 241.281 291.852 241.928C292.424 242.576 292.78 243.384 292.873 244.242C292.976 245.052 292.742 245.912 292.639 246.838C292.377 248.709 292.073 250.841 291.732 253.245C290.329 262.893 288.337 276.801 285.877 293.894L285.853 294.063H285.685L184.908 294.124H182.195C181.702 294.168 181.206 294.072 180.764 293.848C180.313 293.599 179.968 293.195 179.792 292.711C179.617 292.229 179.62 291.699 179.8 291.219C179.98 290.738 180.325 290.337 180.774 290.088C181.207 289.87 181.693 289.777 182.177 289.821H194.065H214.315L214.071 290.027C216.555 273.546 218.87 258.174 220.951 244.383C221.014 243.459 221.433 242.596 222.12 241.974C222.806 241.396 223.644 241.028 224.533 240.913C225.378 240.829 226.228 240.797 227.077 240.819H229.556L239.063 240.754L255.955 240.646L280.007 240.525H286.442H288.103C288.477 240.525 288.669 240.525 288.669 240.525C288.669 240.525 288.477 240.525 288.103 240.548L286.442 240.585L280.007 240.679L255.96 240.945L239.063 241.114L229.56 241.203L227.082 241.226C226.253 241.206 225.424 241.236 224.599 241.315C223.786 241.421 223.022 241.759 222.396 242.288C221.783 242.843 221.414 243.618 221.367 244.444C219.309 258.24 217.018 273.616 214.558 290.102L214.525 290.312H182.195C181.791 290.266 181.383 290.335 181.017 290.513C180.761 290.655 180.547 290.863 180.398 291.116C180.25 291.368 180.171 291.656 180.171 291.949C180.171 292.242 180.25 292.53 180.398 292.782C180.547 293.035 180.761 293.243 181.017 293.385C181.383 293.566 181.794 293.639 182.2 293.595H184.913L285.69 293.651L285.493 293.82L291.521 253.198C291.88 250.788 292.199 248.654 292.48 246.796C292.592 245.861 292.831 245.009 292.737 244.238C292.67 243.531 292.418 242.853 292.008 242.274C291.443 241.478 290.614 240.908 289.669 240.665C289.345 240.6 289.017 240.556 288.687 240.534Z" fill="#263238"/>
<path d="M254.437 270.567C256.619 270.567 258.389 268.798 258.389 266.616C258.389 264.433 256.619 262.664 254.437 262.664C252.254 262.664 250.485 264.433 250.485 266.616C250.485 268.798 252.254 270.567 254.437 270.567Z" fill="white"/>
<path d="M216.894 293.441C216.983 293.441 218.994 281.749 221.383 267.251C223.773 252.754 225.635 241.062 225.546 241.025C225.457 240.987 223.451 252.716 221.061 267.214C218.671 281.712 216.805 293.427 216.894 293.441Z" fill="#263238"/>
<path d="M238.805 137.475H194.627V139.944H238.805V137.475Z" fill="#455A64"/>
<path d="M248.356 136.483H245.525C245.237 136.483 245.004 136.751 245.004 137.082V140.337C245.004 140.667 245.237 140.935 245.525 140.935H248.356C248.644 140.935 248.877 140.667 248.877 140.337V137.082C248.877 136.751 248.644 136.483 248.356 136.483Z" fill="#4B8DF0"/>
<path d="M245.768 138.686L246.675 139.626L248.31 137.788" stroke="white" stroke-width="0.467664" stroke-linecap="round" stroke-linejoin="round"/>
<path d="M238.805 147.015H194.627V149.484H238.805V147.015Z" fill="#455A64"/>
<path d="M248.356 146.024H245.525C245.237 146.024 245.004 146.292 245.004 146.622V149.877C245.004 150.208 245.237 150.476 245.525 150.476H248.356C248.644 150.476 248.877 150.208 248.877 149.877V146.622C248.877 146.292 248.644 146.024 248.356 146.024Z" stroke="#4B8DF0" stroke-width="0.467664" stroke-miterlimit="10"/>
<path d="M238.805 156.555H194.627V159.025H238.805V156.555Z" fill="#455A64"/>
<path d="M248.356 155.564H245.525C245.237 155.564 245.004 155.832 245.004 156.162V159.417C245.004 159.748 245.237 160.016 245.525 160.016H248.356C248.644 160.016 248.877 159.748 248.877 159.417V156.162C248.877 155.832 248.644 155.564 248.356 155.564Z" stroke="#4B8DF0" stroke-width="0.467664" stroke-miterlimit="10"/>
<path d="M238.805 166.1H194.627V168.57H238.805V166.1Z" fill="#455A64"/>
<path d="M248.356 165.109H245.525C245.237 165.109 245.004 165.377 245.004 165.708V168.963C245.004 169.293 245.237 169.561 245.525 169.561H248.356C248.644 169.561 248.877 169.293 248.877 168.963V165.708C248.877 165.377 248.644 165.109 248.356 165.109Z" stroke="#4B8DF0" stroke-width="0.467664" stroke-miterlimit="10"/>
<path d="M238.805 175.641H194.627V178.11H238.805V175.641Z" fill="#455A64"/>
<path d="M248.356 174.649H245.525C245.237 174.649 245.004 174.917 245.004 175.248V178.503C245.004 178.833 245.237 179.101 245.525 179.101H248.356C248.644 179.101 248.877 178.833 248.877 178.503V175.248C248.877 174.917 248.644 174.649 248.356 174.649Z" stroke="#4B8DF0" stroke-width="0.467664" stroke-miterlimit="10"/>
<defs>
<linearGradient id="paint0_linear_82_386" x1="115" y1="0" x2="115" y2="492" gradientUnits="userSpaceOnUse">
<stop stop-color="#D9E8FF"/>
<stop offset="1" stop-color="#5B9DFF"/>
</linearGradient>
</defs>
</svg>
